<svg width="512" height="512" viewBox="0 0 512 512" fill="none" xmlns="http://www.w3.org/2000/svg">
<g clip-path="url(#clip0_56_2034)">
<path d="M476.476 300.433C476.476 309.412 472.84 317.533 466.961 323.412C461.072 329.291 452.951 332.927 443.982 332.927H68.0184C50.0794 332.927 35.5244 318.382 35.5244 300.433C35.5244 295.625 36.5644 291.07 38.4334 286.969C40.0594 283.403 42.3024 280.192 45.0394 277.454C50.9284 271.575 59.0494 267.939 68.0184 267.939H443.983C457.124 267.939 468.447 275.737 473.568 286.969C475.436 291.07 476.476 295.625 476.476 300.433Z" fill="#884D00"/>
<path d="M473.567 286.969C471.941 290.524 469.688 293.746 466.961 296.474C461.072 302.353 452.951 305.989 443.982 305.989H68.0176C54.8866 305.989 43.5636 298.191 38.4326 286.97C40.0586 283.404 42.3016 280.193 45.0386 277.455C50.9276 271.576 59.0486 267.94 68.0176 267.94H443.983C457.123 267.939 468.446 275.737 473.567 286.969Z" fill="#AA6100"/>
<path d="M504.425 359.158C504.425 401.025 485.042 432.135 453.71 452.77C422.368 473.416 379.077 483.587 331.26 483.587H180.74C85.1072 483.587 7.5752 442.892 7.5752 359.158C7.5752 354.492 8.7372 350.067 10.8372 346.088C12.6152 342.694 15.0692 339.634 18.0492 337.028C24.5132 331.362 33.4632 327.857 43.3312 327.857H468.668C483.082 327.857 495.505 335.331 501.162 346.089C503.263 350.067 504.425 354.491 504.425 359.158Z" fill="#FFA733"/>
<path d="M501.162 346.088C494.415 373.966 477.506 395.682 453.709 411.358C422.367 432.004 379.076 442.175 331.259 442.175H180.74C96.6019 442.175 26.4829 410.681 10.8379 346.088C12.6159 342.694 15.0699 339.634 18.0499 337.028C24.5139 331.362 33.4639 327.857 43.3319 327.857H468.669C483.082 327.856 495.506 335.33 501.162 346.088Z" fill="#FFB655"/>
<path d="M394.173 254.303L310.116 338.36C308.005 340.461 305.753 342.319 303.369 343.925C285.572 355.975 261.189 354.127 245.422 338.36L161.365 254.303H394.173Z" fill="#EEBF00"/>
<path d="M394.173 254.303L310.116 338.36C308.005 340.461 305.753 342.319 303.369 343.925C296.955 341.743 290.935 338.097 285.824 332.976L207.15 254.302H394.173V254.303Z" fill="#FFD422"/>
<path d="M494.991 266.03C494.991 270.434 494.264 274.939 492.688 279.333C486.517 296.555 469.992 303.241 457.114 293.726L441.67 282.322C430.893 274.353 417.146 277.615 409.348 289.998L408.691 291.038C401.206 302.937 388.156 306.472 377.5 299.502L342.916 276.887C334.937 271.675 325.371 272.241 317.816 278.392L290.1 300.938C282.141 307.412 272 307.685 263.828 301.635L232.213 278.202C224.133 272.212 214.113 272.404 206.184 278.707L177.397 301.565C169.67 307.696 159.953 308.05 151.964 302.504L114.693 276.606C107.36 271.515 98.5223 271.374 91.0883 276.232L56.3223 298.968C33.1713 301.948 21.9093 284.948 21.9093 284.948C16.3643 275.312 15.8083 263.888 18.8083 254.303C22.3743 242.849 31.0103 234.021 42.2413 234.021H469.77C480.78 234.021 489.577 242.718 493.193 254.253C494.364 257.95 494.991 261.939 494.991 266.03Z" fill="#6DC82A"/>
<path d="M493.193 254.253C493.041 254.758 492.87 255.253 492.688 255.758C486.517 272.99 469.992 279.676 457.114 270.161L441.67 258.747C430.893 250.788 417.146 254.05 409.348 266.423L408.691 267.473C401.206 279.372 388.156 282.907 377.5 275.937L342.916 253.322C334.937 248.1 325.371 248.676 317.816 254.827L290.1 277.373C282.141 283.848 272 284.11 263.828 278.06L232.213 254.627C224.133 248.637 214.113 248.839 206.184 255.132L177.397 278C169.67 284.121 159.953 284.485 151.964 278.939L114.693 253.041C107.36 247.94 98.5216 247.799 91.0876 252.667L56.3216 275.393C33.1706 278.383 21.9086 261.373 21.9086 261.373C20.6056 259.1 19.5756 256.727 18.8076 254.303C22.3736 242.849 31.0096 234.021 42.2406 234.021H469.77C480.779 234.021 489.577 242.718 493.193 254.253Z" fill="#7ED63E"/>
<path d="M486.365 213.234C486.436 216.597 485.991 219.84 485.123 222.9C481.214 236.516 468.669 246.475 453.801 246.475C395.419 246.475 239.921 245.162 216.467 245.94C215.942 245.96 215.417 245.98 214.901 245.991C185.286 247.112 178.539 251.859 178.539 267.647V325.412C178.539 328.382 177.337 331.078 175.388 333.028C173.439 334.977 170.752 336.179 167.782 336.179C161.833 336.179 157.015 340.997 157.015 346.946V372.107C157.015 374.662 156.712 377.137 156.126 379.521C152.803 393.278 140.389 403.49 125.481 403.49H124.683C107.734 403.49 94.0178 389.723 94.0678 372.774L94.2088 327.23C94.2188 323.735 95.6428 320.564 97.9358 318.281C100.239 315.988 103.4 314.574 106.905 314.574C113.915 314.574 119.601 308.887 119.601 301.878V267.647C119.601 255.95 110.127 246.476 98.4298 246.476H58.8158C40.9878 246.476 25.9888 232.406 25.6248 214.578C25.2608 196.286 39.9878 181.337 58.1988 181.337H453.153C470.991 181.336 486.011 195.407 486.365 213.234Z" fill="#FF3501"/>
<path d="M486.365 213.234C486.436 216.597 485.991 219.84 485.123 222.9C423.317 222.839 275.636 221.617 252.829 222.365C221.881 223.385 214.901 228.021 214.901 244.081V245.99C185.286 247.111 178.539 251.858 178.539 267.646V325.411C178.539 328.381 177.337 331.077 175.388 333.027C173.439 334.976 170.752 336.178 167.782 336.178C161.833 336.178 157.015 340.996 157.015 346.945V372.106C157.015 374.661 156.712 377.136 156.126 379.52C141.521 377.167 130.38 364.47 130.43 349.198L130.571 303.664C130.581 300.159 132.005 296.998 134.298 294.715C136.601 292.422 139.762 291.008 143.267 291.008C150.277 291.008 155.963 285.321 155.963 278.312V244.081C155.963 232.384 146.489 222.91 134.792 222.91H95.1778C77.3498 222.91 62.3508 208.84 61.9868 191.012C61.9158 187.648 62.3608 184.406 63.2388 181.336H453.153C470.991 181.336 486.011 195.407 486.365 213.234Z" fill="#FF5023"/>
<path d="M300.029 148.227L227.961 220.325C220.739 227.547 212.224 232.688 203.154 235.728C180.791 243.283 155.095 238.142 137.298 220.325L65.2002 148.227H300.029V148.227Z" fill="#EEBF00"/>
<path d="M300.029 148.227L227.961 220.325C220.739 227.547 212.224 232.688 203.154 235.728C194.094 232.688 185.579 227.546 178.367 220.325L106.269 148.227H300.029V148.227Z" fill="#FFD422"/>
<path d="M504.425 158.368C504.425 158.903 504.405 159.429 504.375 159.954C503.981 166.732 501.072 172.842 496.567 177.347C491.709 182.205 485.002 185.205 477.588 185.205H34.4132C19.5952 185.205 7.57617 173.185 7.57617 158.368C7.57617 126.208 22.4852 101.996 44.9992 83.785C63.2702 68.997 86.5622 58.16 110.945 50.21C179.165 27.999 256 28.413 256 28.413C256 28.413 504.425 27.07 504.425 158.368Z" fill="#FFA733"/>
<path d="M504.425 158.368C504.425 158.903 504.405 159.429 504.375 159.954H88.9561C74.1381 159.954 62.1191 147.934 62.1191 133.117C62.1191 100.957 77.0281 76.745 99.5421 58.534C103.158 55.605 106.966 52.837 110.946 50.211C179.165 27.999 256 28.413 256 28.413C256 28.413 504.425 27.07 504.425 158.368Z" fill="#FFB655"/>
<path d="M389.528 75.363C393.836 79.922 393.632 87.11 389.073 91.418C384.514 95.726 377.326 95.522 373.018 90.963C368.71 86.405 360.781 70.609 365.341 66.301C369.901 61.994 385.22 70.803 389.528 75.363Z" fill="#FFF5CC"/>
<path d="M329.329 131.491C331.577 137.346 328.653 143.916 322.798 146.164C316.943 148.412 310.373 145.488 308.125 139.633C305.877 133.778 304.555 116.154 310.411 113.906C316.266 111.658 327.081 125.636 329.329 131.491Z" fill="#FFF5CC"/>
<path d="M267.358 84.78C267.358 91.052 262.273 96.137 256.001 96.137C249.729 96.137 244.644 91.052 244.644 84.78C244.644 78.508 249.729 61.582 256.001 61.582C262.273 61.582 267.358 78.507 267.358 84.78Z" fill="#FFF5CC"/>
<path d="M204.912 138.608C203.343 144.68 197.149 148.333 191.076 146.764C185.004 145.195 181.351 139.001 182.92 132.928C184.489 126.856 193.644 111.739 199.717 113.308C205.79 114.875 206.48 132.535 204.912 138.608Z" fill="#FFF5CC"/>
<path d="M142.432 89.138C139.698 94.782 132.905 97.142 127.26 94.407C121.616 91.673 119.256 84.88 121.991 79.235C124.725 73.591 136.68 60.574 142.326 63.309C147.97 66.044 145.167 83.494 142.432 89.138Z" fill="#FFF5CC"/>
<path d="M502.707 381.47C498.667 380.44 494.536 382.884 493.495 386.934C479.253 442.71 418.599 476.011 331.249 476.011H180.74C137.358 476.011 99.3192 467.526 70.7142 451.467C67.0682 449.427 62.4522 450.72 60.4012 454.366C58.3612 458.012 59.6542 462.628 63.3002 464.679C94.1572 482.002 134.772 491.163 180.74 491.163H331.25C407.471 491.163 489.316 464.53 508.182 390.682C509.212 386.631 506.768 382.51 502.707 381.47Z" fill="black"/>
<path d="M285.514 294.904C285.523 294.896 285.521 294.899 285.522 294.898C285.519 294.9 285.516 294.902 285.514 294.904Z" fill="black"/>
<path d="M478.195 321.247C481.693 315.524 483.801 308.863 484.031 301.746C506.275 288.899 509.215 251.053 488.748 233.698C495.919 221.081 496.013 204.636 486.92 191.498C501.374 187.417 512 174.105 512 158.368C512 71.602 412.865 37.811 326.442 26.08C322.301 25.514 318.473 28.413 317.907 32.565C317.351 36.706 320.25 40.524 324.402 41.09C400.938 51.484 496.85 80.798 496.85 158.368C496.85 168.984 488.204 177.63 477.588 177.63C70.958 177.63 441.054 177.63 34.414 177.63C23.798 177.63 15.152 168.984 15.152 158.368C15.152 108.643 53.797 73.008 130.016 52.453C170.514 41.53 220.767 36.087 256.294 35.989C257.95 35.989 273.031 36.04 294.585 37.837C298.777 38.18 302.413 35.08 302.767 30.918C303.11 26.746 300.01 23.08 295.848 22.737C282.753 21.647 268.904 20.903 255.708 20.838C189.656 20.838 92.021 36.008 40.232 77.896C13.535 99.491 0 126.571 0 158.368C0 174.044 10.545 187.306 24.908 191.447C16.515 203.815 15.619 220.242 23.322 233.577C9.197 245.576 4.591 270.025 15.343 288.726C17.313 291.928 22.141 296.918 27.949 300.483C27.966 308.08 30.105 315.184 33.802 321.24C14.483 325.149 0 340.663 0 359.158C0 394.187 12.565 423.428 37.332 446.074C38.776 447.397 40.615 448.054 42.433 448.054C49.317 448.054 52.64 439.544 47.554 434.893C26.06 415.237 15.151 389.753 15.151 359.159C15.151 346.079 27.797 335.433 43.332 335.433H86.603L86.492 372.745C86.429 393.983 103.593 411.067 124.682 411.067H125.48C147.045 411.067 164.59 393.593 164.59 372.109V346.948C164.59 345.18 166.024 343.756 167.782 343.756C174.196 343.756 179.852 340.443 183.125 335.433H230.426C234.911 338.746 247.994 359.321 276.414 359.321C304.767 359.321 317.944 338.733 322.412 335.433H468.669C484.052 335.433 496.698 345.968 496.85 358.927C496.89 363.078 500.274 366.412 504.415 366.412H504.506C508.688 366.372 512.041 362.937 512.001 358.756C511.783 340.477 497.319 325.143 478.195 321.247ZM266.202 192.78H466.78C488.836 206.379 478.236 238.364 453.801 238.364C291.009 238.364 441.115 237.944 216.203 238.364C231.391 230.289 236.114 221.837 266.202 192.78ZM28.312 280.888C21.294 268.358 24.898 252.1 33.221 245.061C40.251 250.667 49.17 254.051 58.816 254.051H98.43C105.632 254.051 111.541 259.677 111.995 266.768C108.945 265.677 105.783 265.132 102.612 265.132C91.199 265.132 86.531 270.161 53.705 291.626C42.555 292.528 33.269 287.545 28.312 280.888ZM87.885 320.28H52.997C48.505 316.873 45.194 311.989 43.817 306.351C47.861 306.986 57.035 307.544 60.473 305.301L95.239 282.575C104.165 276.73 111.342 283.717 112.026 283.979V301.877C112.026 304.705 109.733 306.998 106.905 306.998C98.198 306.998 90.744 312.533 87.885 320.28ZM170.963 296.837C170.963 311.711 170.963 299.997 170.963 325.412C170.963 327.17 169.539 328.604 167.781 328.604C157.633 328.604 149.438 336.88 149.438 346.947V372.108C149.438 393.707 122.817 403.629 108.359 389.138C100.456 381.198 101.651 371.108 101.643 372.341C101.677 361.345 101.717 348.62 101.783 327.252C101.793 324.444 104.086 322.151 106.904 322.151C117.999 322.151 127.176 313.137 127.176 301.879C127.176 286.956 127.176 282.577 127.176 267.648C127.176 256.133 120.368 246.174 110.56 241.599C101.006 237.097 95.343 239.631 58.815 238.902C33.397 238.902 23.528 206.239 44.846 192.783H99.036L131.934 225.681C144.662 238.419 161.339 245.775 179.207 246.607C167.979 255.665 171.625 268.203 170.963 296.837ZM142.651 214.971L120.46 192.78H244.788L222.607 214.971C200.451 237.107 164.701 237.041 142.651 214.971ZM186.114 320.28V304.311L193.467 298.473L215.274 320.28H186.114ZM300.746 335.431C285.744 347.891 263.473 347.053 249.425 333.007C238.499 322.08 216.323 299.905 205.407 288.989C208.101 287.649 216.652 276.091 227.709 284.282L259.324 307.715C270.096 315.723 284.093 315.589 294.878 306.816L322.594 284.271C327.624 280.18 333.523 279.796 338.775 283.231L348.037 289.281C295.797 340.418 302.189 334.243 300.746 335.431ZM459.011 320.28H337.562L360.44 297.402L369.884 303.573C371.611 304.356 380.935 313.062 394.893 309.997C408.823 306.954 415.481 294.338 415.761 294.028C420.839 285.963 429.516 282.752 437.174 288.412C449.649 296.651 455.714 305.008 468.355 305.634C467.092 311.579 463.691 316.732 459.011 320.28ZM461.618 287.635C445.5 275.732 446.137 276.172 445.225 275.545C431.301 266.036 413.111 269.863 402.934 285.959C402.673 286.262 398.882 293.62 391.672 295.191C384.999 296.661 384.263 294.89 347.058 270.556C336.25 263.486 323.221 264.233 313.039 272.516C297.206 285.394 285.471 294.936 285.764 294.701C285.543 294.881 285.62 294.818 285.602 294.832C285.666 294.779 285.628 294.811 285.564 294.863C285.55 294.874 285.534 294.887 285.519 294.9C285.512 294.906 285.506 294.911 285.499 294.916C285.504 294.912 285.509 294.908 285.514 294.904C285.503 294.913 285.491 294.923 285.479 294.933C285.423 294.978 285.337 295.049 285.323 295.059C280.061 299.342 273.707 299.523 268.344 295.544C236.77 272.141 232.025 266.357 219.73 266.272C209.326 266.198 202.769 271.307 194.63 278.211L186.115 284.968V267.645C186.115 247.593 190.419 254.05 453.801 254.05C463.063 254.05 471.831 250.939 478.931 245.222C486.332 251.616 489.837 264.875 485.567 276.766C481.481 288.156 471.003 294.557 461.618 287.635Z" fill="black"/>
<path d="M360.139 60.795C355.641 65.043 355.187 71.93 358.788 81.264C363.053 92.322 369.49 102.095 381.288 102.095C397.719 102.095 406.472 82.263 395.034 70.16C395.034 70.159 395.034 70.159 395.034 70.159C390.733 65.606 370.303 51.187 360.139 60.795ZM381.167 86.942C380.582 86.925 379.462 86.75 378.526 85.759C376.269 83.369 373.328 77.478 372.106 73.458C376.049 74.906 381.765 78.174 384.024 80.564C386.326 83.004 384.533 87.023 381.167 86.942Z" fill="black"/>
<path d="M301.053 142.35C302.866 147.071 306.408 150.803 311.028 152.86C326.3 159.655 342.467 144.565 336.4 128.775V128.776C334.155 122.929 320.757 101.82 307.694 106.834C294.634 111.85 298.807 136.503 301.053 142.35ZM313.94 123.099C317.035 125.939 321.076 131.137 322.256 134.207V134.208C323.003 136.154 322.033 138.342 320.08 139.093C318.123 139.843 315.942 138.86 315.195 136.919C314.017 133.849 313.541 127.282 313.94 123.099Z" fill="black"/>
<path d="M237.067 84.78C237.067 95.22 245.56 103.713 256 103.713C266.44 103.713 274.933 95.22 274.933 84.78C274.933 78.517 269.991 54.006 256 54.006C242.009 54.006 237.067 78.515 237.067 84.78ZM256 88.561C253.915 88.561 252.218 86.864 252.218 84.779C252.218 81.491 254.128 75.189 256 71.428C257.873 75.189 259.782 81.491 259.782 84.779C259.782 86.864 258.085 88.561 256 88.561Z" fill="black"/>
<path d="M183.56 115.717C176.669 124.942 171.735 135.42 177.606 145.381C186.159 159.893 208.053 156.734 212.246 140.5C213.813 134.435 215.158 109.471 201.611 105.97C195.621 104.426 189.548 107.703 183.56 115.717ZM197.577 136.713C197.515 136.814 197.305 138.16 195.836 139.026C192.931 140.741 189.419 138.059 190.255 134.822C191.077 131.639 194.502 126.014 197.255 122.842C198.127 126.951 198.399 133.529 197.577 136.713Z" fill="black"/>
<path d="M115.173 75.934C109.081 88.511 118.318 103.119 132.18 103.119C139.214 103.119 145.982 99.185 149.249 92.442C152.55 85.63 157.612 62.301 145.628 56.495C133.89 50.805 118.686 68.681 115.173 75.934ZM135.615 85.835C134.705 87.712 132.439 88.498 130.564 87.59C128.687 86.681 127.9 84.413 128.809 82.537C130.242 79.579 134.709 74.739 138.033 72.171C138.076 76.372 137.048 82.877 135.615 85.835Z" fill="black"/>
</g>
<defs>
<clipPath id="clip0_56_2034">
<rect width="512" height="512" fill="white"/>
</clipPath>
</defs>
</svg>
