<svg width="512" height="512" viewBox="0 0 512 512" fill="none" xmlns="http://www.w3.org/2000/svg">
<path d="M380.58 180.07L378.68 213.19H133.32L131.42 180.07H380.58Z" fill="#FF5023"/>
<path d="M380.581 180.07L378.681 213.19H354.681L356.581 180.07H380.581Z" fill="#FF3501"/>
<path d="M378.68 213.19L375.77 263.86H136.23L133.32 213.19H378.68Z" fill="#FF5023"/>
<path d="M378.681 213.19L375.771 263.86H351.771L354.681 213.19H378.681Z" fill="#FF3501"/>
<path d="M375.77 263.86L364.31 463.3C363.82 471.77 356.81 478.39 348.33 478.39H163.67C155.19 478.39 148.18 471.77 147.69 463.3L136.23 263.86H375.77Z" fill="#FF5023"/>
<path d="M375.77 263.86L364.31 463.3C363.82 471.77 356.81 478.39 348.33 478.39H324.33C332.81 478.39 339.82 471.77 340.31 463.3L351.77 263.86H375.77Z" fill="#FF3501"/>
<path d="M385.908 180.071H126.093C119.227 180.071 114.125 173.009 115.611 165.563L119.228 147.444C121.606 135.532 131.114 127.055 142.098 127.055H369.903C380.886 127.055 390.395 135.532 392.773 147.444L396.39 165.563C397.876 173.01 392.774 180.071 385.908 180.071Z" fill="#FFB655"/>
<path d="M385.91 180.07H361.91C368.77 180.07 373.88 173.01 372.39 165.56L368.77 147.44C366.39 135.53 356.89 127.06 345.9 127.06H369.9C380.89 127.06 390.39 135.53 392.77 147.44L396.39 165.56C397.88 173.01 392.77 180.07 385.91 180.07Z" fill="#FFA733"/>
<path d="M366.204 127.055H145.797C145.797 78.447 185.202 39.042 233.81 39.042H278.191C326.799 39.042 366.204 78.447 366.204 127.055V127.055Z" fill="#FFB655"/>
<path d="M366.2 127.06H342.2C342.2 78.45 302.8 39.04 254.19 39.04H278.19C326.8 39.04 366.2 78.45 366.2 127.06Z" fill="#FFA733"/>
<path d="M168.379 478.388H343.622V504.5H168.379V478.388Z" fill="#FFB655"/>
<path d="M318.29 478.39H343.62V504.5H318.29V478.39Z" fill="#FFA733"/>
<path d="M180.008 402.211C187.003 402.211 192.674 396.54 192.674 389.545C192.674 382.55 187.003 376.879 180.008 376.879C173.013 376.879 167.342 382.55 167.342 389.545C167.342 396.54 173.013 402.211 180.008 402.211Z" fill="#FFB655"/>
<path d="M230.67 402.211C237.665 402.211 243.336 396.54 243.336 389.545C243.336 382.55 237.665 376.879 230.67 376.879C223.675 376.879 218.004 382.55 218.004 389.545C218.004 396.54 223.675 402.211 230.67 402.211Z" fill="#FFB655"/>
<path d="M281.333 402.211C288.328 402.211 293.999 396.54 293.999 389.545C293.999 382.55 288.328 376.879 281.333 376.879C274.338 376.879 268.667 382.55 268.667 389.545C268.667 396.54 274.338 402.211 281.333 402.211Z" fill="#FFB655"/>
<path d="M331.995 402.211C338.99 402.211 344.661 396.54 344.661 389.545C344.661 382.55 338.99 376.879 331.995 376.879C325 376.879 319.329 382.55 319.329 389.545C319.329 396.54 325 402.211 331.995 402.211Z" fill="#FFB655"/>
<path d="M205.339 452.966C212.334 452.966 218.005 447.295 218.005 440.3C218.005 433.305 212.334 427.634 205.339 427.634C198.344 427.634 192.673 433.305 192.673 440.3C192.673 447.295 198.344 452.966 205.339 452.966Z" fill="#FFB655"/>
<path d="M256.001 452.966C262.996 452.966 268.667 447.295 268.667 440.3C268.667 433.305 262.996 427.634 256.001 427.634C249.006 427.634 243.335 433.305 243.335 440.3C243.335 447.295 249.006 452.966 256.001 452.966Z" fill="#FFB655"/>
<path d="M306.664 452.966C313.659 452.966 319.33 447.295 319.33 440.3C319.33 433.305 313.659 427.634 306.664 427.634C299.669 427.634 293.998 433.305 293.998 440.3C293.998 447.295 299.669 452.966 306.664 452.966Z" fill="#FFB655"/>
<path d="M273.731 13.948V302.655C273.731 304.716 272.711 306.645 271.007 307.806L248.015 323.478C243.877 326.298 238.271 323.335 238.271 318.327V13.948C238.271 10.387 241.158 7.5 244.719 7.5H267.282C270.844 7.5 273.731 10.387 273.731 13.948V13.948Z" fill="#7ED63E"/>
<path d="M238.271 39.042H273.731V180.071H238.271V39.042Z" fill="#7ED63E"/>
<path d="M273.731 180.07V302.655C273.731 304.716 272.711 306.645 271.007 307.806L248.015 323.478C243.877 326.298 238.271 323.335 238.271 318.327V180.07H273.731Z" fill="#7ED63E"/>
<path d="M403.744 164.095L400.127 145.977C397.323 131.927 386.384 121.419 373.429 119.784C369.777 71.501 330.068 33.132 281.232 31.596V7.5C281.232 3.357 277.874 0 273.732 0H238.268C234.126 0 230.768 3.357 230.768 7.5V31.595C181.932 33.131 142.223 71.5 138.571 119.783C125.616 121.418 114.677 131.926 111.873 145.976L108.256 164.094C106.144 174.677 113.172 186.32 124.331 187.47L140.207 463.732C140.867 475.212 149.72 484.387 160.878 485.716V504.5C160.878 508.643 164.236 512 168.378 512H343.621C347.763 512 351.121 508.643 351.121 504.5V485.717C362.28 484.388 371.132 475.213 371.792 463.733L373.551 433.121C373.788 428.985 370.629 425.44 366.493 425.203C362.36 424.965 358.813 428.125 358.575 432.26L356.816 462.872C356.558 467.368 352.828 470.89 348.326 470.89H163.673C159.171 470.89 155.441 467.369 155.183 462.872L144.178 271.365H166C170.142 271.365 173.5 268.008 173.5 263.865C173.5 259.722 170.142 256.365 166 256.365H143.316L141.266 220.695H230.769V256.365H201.25C197.108 256.365 193.75 259.722 193.75 263.865C193.75 268.008 197.108 271.365 201.25 271.365H230.768V330.125C230.768 336.037 237.577 339.67 242.493 336.322L277.957 312.147C280.006 310.75 281.232 308.43 281.232 305.95V271.365H367.823L360.667 395.893C360.43 400.029 363.589 403.574 367.725 403.811C371.85 404.061 375.405 400.889 375.643 396.754L387.67 187.471C398.79 186.325 405.858 174.687 403.744 164.095ZM336.122 485.889V497H175.879V485.889H256H336.122ZM371.597 205.694H281.232V187.571H372.638L371.597 205.694ZM266.232 205.694H245.768V187.571H266.232V205.694ZM245.769 172.571V134.554H266.233V172.571H245.769ZM245.769 119.555V46.542H266.233V119.555H245.769ZM266.232 15V31.542H245.768V15H266.232ZM230.769 46.619V119.554H153.659C157.363 79.661 190.287 48.133 230.769 46.619ZM122.967 167.03L126.584 148.912C128.244 140.593 134.769 134.555 142.099 134.555H230.769V172.572H126.093C123.526 171.885 122.484 170.038 122.967 167.03ZM140.404 205.694L139.362 187.571H230.768V205.694H140.404ZM245.769 220.694H266.233V256.364H245.769V220.694ZM266.232 301.985L245.768 315.934V271.364H266.232V301.985ZM281.232 256.364V220.694H370.735L368.685 256.364H281.232ZM388.04 171.427C387.612 171.949 386.894 172.572 385.908 172.572H281.232V134.555H298.333C302.475 134.555 305.833 131.198 305.833 127.055C305.833 122.912 302.475 119.555 298.333 119.555H281.232V46.619C321.714 48.132 354.638 79.661 358.342 119.554H333.668C329.526 119.554 326.168 122.911 326.168 127.054C326.168 131.197 329.526 134.554 333.668 134.554H369.902C377.232 134.554 383.756 140.592 385.417 148.911L389.034 167.029C389.354 168.634 388.982 170.277 388.04 171.427Z" fill="black"/>
<path d="M200.172 389.545C200.172 378.426 191.126 369.38 180.006 369.38C168.886 369.38 159.84 378.426 159.84 389.545C159.84 400.664 168.886 409.711 180.006 409.711C191.126 409.711 200.172 400.664 200.172 389.545ZM180.007 394.711C177.158 394.711 174.841 392.394 174.841 389.545C174.841 386.697 177.158 384.38 180.007 384.38C182.855 384.38 185.173 386.697 185.173 389.545C185.172 392.394 182.855 394.711 180.007 394.711Z" fill="black"/>
<path d="M250.835 389.545C250.835 378.426 241.789 369.38 230.669 369.38C219.549 369.38 210.503 378.426 210.503 389.545C210.503 400.664 219.549 409.711 230.669 409.711C241.789 409.711 250.835 400.664 250.835 389.545ZM225.503 389.545C225.503 386.697 227.82 384.38 230.669 384.38C233.517 384.38 235.835 386.697 235.835 389.545C235.835 392.394 233.518 394.711 230.669 394.711C227.821 394.711 225.503 392.394 225.503 389.545Z" fill="black"/>
<path d="M301.497 389.545C301.497 378.426 292.451 369.38 281.331 369.38C270.212 369.38 261.165 378.426 261.165 389.545C261.165 400.664 270.211 409.711 281.331 409.711C292.451 409.711 301.497 400.664 301.497 389.545ZM276.166 389.545C276.166 386.697 278.483 384.38 281.332 384.38C284.181 384.38 286.498 386.697 286.498 389.545C286.498 392.394 284.181 394.711 281.332 394.711C278.483 394.711 276.166 392.394 276.166 389.545Z" fill="black"/>
<path d="M352.16 389.545C352.16 378.426 343.114 369.38 331.994 369.38C320.875 369.38 311.828 378.426 311.828 389.545C311.828 400.664 320.874 409.711 331.994 409.711C343.114 409.711 352.16 400.664 352.16 389.545ZM326.829 389.545C326.829 386.697 329.146 384.38 331.995 384.38C334.844 384.38 337.161 386.697 337.161 389.545C337.161 392.394 334.844 394.711 331.995 394.711C329.146 394.711 326.829 392.394 326.829 389.545Z" fill="black"/>
<path d="M205.338 460.465C216.457 460.465 225.504 451.419 225.504 440.3C225.504 429.181 216.458 420.134 205.338 420.134C194.218 420.134 185.172 429.181 185.172 440.3C185.172 451.419 194.219 460.465 205.338 460.465ZM205.338 435.134C208.186 435.134 210.504 437.451 210.504 440.3C210.504 443.148 208.187 445.465 205.338 445.465C202.489 445.465 200.172 443.148 200.172 440.3C200.172 437.451 202.49 435.134 205.338 435.134Z" fill="black"/>
<path d="M256 460.465C267.119 460.465 276.166 451.419 276.166 440.3C276.166 429.181 267.12 420.134 256 420.134C244.881 420.134 235.834 429.181 235.834 440.3C235.834 451.419 244.881 460.465 256 460.465ZM256 435.134C258.848 435.134 261.166 437.451 261.166 440.3C261.166 443.148 258.849 445.465 256 445.465C253.152 445.465 250.834 443.148 250.834 440.3C250.835 437.451 253.152 435.134 256 435.134Z" fill="black"/>
<path d="M306.663 460.465C317.782 460.465 326.829 451.419 326.829 440.3C326.829 429.181 317.783 420.134 306.663 420.134C295.543 420.134 286.497 429.181 286.497 440.3C286.497 451.419 295.544 460.465 306.663 460.465ZM306.663 435.134C309.511 435.134 311.829 437.451 311.829 440.3C311.829 443.148 309.512 445.465 306.663 445.465C303.814 445.465 301.497 443.148 301.497 440.3C301.497 437.451 303.815 435.134 306.663 435.134Z" fill="black"/>
</svg>
