<svg width="512" height="512" viewBox="0 0 512 512" fill="none" xmlns="http://www.w3.org/2000/svg">
<g clip-path="url(#clip0_56_1969)">
<path d="M337.927 132.851C344.681 122.171 356.587 115.074 370.158 115.074C391.21 115.074 408.277 132.14 408.277 153.193C408.277 154.365 408.216 155.523 408.112 156.668C417.053 154.213 425.997 154.09 433.904 156.444C433.958 155.367 433.986 154.283 433.986 153.193C433.986 117.941 405.41 89.364 370.158 89.364C349.501 89.364 331.145 99.186 319.479 114.404L337.927 132.851Z" fill="#FFD422"/>
<path d="M112.583 259.449C111.381 257.227 110.354 254.967 109.494 252.695C91.5486 249.601 77.8936 233.971 77.8936 215.143C77.8936 194.091 94.9596 177.024 116.013 177.024C126.62 177.024 136.212 181.36 143.122 188.352C144.669 182.008 147.727 176.25 152.383 171.594C154.108 169.869 155.99 168.374 157.989 167.082C146.766 157.272 132.089 151.315 116.012 151.315C80.7596 151.315 52.1826 179.892 52.1826 215.144C52.1826 240.306 66.7466 262.058 87.9006 272.454C93.6716 265.919 102.424 261.279 112.583 259.449V259.449Z" fill="#FFD422"/>
<path d="M286.195 194.086C293.99 190.91 303.573 192.565 313.053 198.01C316.184 172.573 329.691 153.442 345.879 153.442C357.797 153.442 368.254 163.82 374.195 179.441C375.706 177.573 377.329 175.753 379.075 173.998L279.22 74.1431C277.167 72.0901 273.818 72.2261 271.899 74.4051C250.793 98.3681 245.785 131.533 256.833 159.884C270.08 160.885 281.317 174.712 286.195 194.086V194.086Z" fill="#FF5023"/>
<path d="M286.195 194.086C289.493 192.742 293.11 192.263 296.906 192.574C273.12 162.833 272.627 120.616 295.431 90.3551L279.219 74.1431C277.166 72.0901 273.817 72.2261 271.898 74.4051C250.792 98.3681 245.784 131.533 256.832 159.884C270.08 160.885 281.317 174.712 286.195 194.086Z" fill="#FF3501"/>
<path d="M218.122 110.612C245.928 82.8061 247.147 38.4811 221.78 9.22706C219.878 7.03306 216.509 6.91306 214.456 8.96606L116.476 106.946C114.423 108.999 114.543 112.367 116.737 114.27C145.991 139.637 190.316 138.418 218.122 110.612V110.612Z" fill="#FF5023"/>
<path d="M135.265 91.5011C134.625 90.9461 134.183 90.2591 133.898 89.5231L116.475 106.946C114.422 108.999 114.542 112.368 116.736 114.27C145.991 139.637 190.315 138.418 218.121 110.612C223.554 105.179 227.958 99.1091 231.361 92.6501C203.471 115.696 162.728 115.315 135.265 91.5011Z" fill="#FF3501"/>
<path d="M94.9951 317.482H173.356C173.354 317.27 173.34 317.06 173.34 316.847C173.34 312.878 173.721 309.001 174.414 305.233V305.234C154.498 300.113 140.542 288.25 140.542 274.426C140.542 262.511 150.915 252.056 166.53 246.114C164.645 244.584 162.805 242.945 161.035 241.175C150.336 230.476 143.993 217.436 142.352 204.954C133.425 203.253 124.674 204.769 117.808 209.987C104.402 220.176 102.637 241.058 112.583 259.449C95.7691 262.478 82.7951 273.193 80.8481 287.481C79.3111 298.75 84.9801 309.712 94.9951 317.482V317.482Z" fill="#6DC82A"/>
<path d="M275.048 312.614C272.941 293.555 256.789 278.728 237.168 278.728C216.116 278.728 199.049 295.794 199.049 316.847C199.049 317.06 199.062 317.27 199.065 317.482H271.566C272.832 315.874 273.997 314.248 275.048 312.614V312.614Z" fill="#7ED63E"/>
<path d="M140.541 274.426C140.541 288.25 154.498 300.112 174.413 305.234C179.876 275.53 205.885 253.019 237.168 253.019C255.371 253.019 271.781 260.651 283.408 272.875C283.593 269.77 283.973 266.677 284.505 263.605C283.848 262.565 283.207 261.504 282.582 260.422C267.159 233.709 267.65 204.553 283.678 195.299C284.491 194.829 285.335 194.437 286.195 194.087C281.129 173.965 269.203 159.826 255.289 159.826C243.371 159.826 232.914 170.204 226.973 185.825C225.423 183.91 223.761 182.042 221.964 180.246C200.361 158.643 169.208 154.77 152.383 171.595C135.557 188.421 139.431 219.573 161.034 241.176C162.804 242.946 164.644 244.585 166.529 246.115C150.914 252.056 140.541 262.511 140.541 274.426V274.426Z" fill="#7ED63E"/>
<path d="M140.541 274.426C140.541 288.25 154.498 300.112 174.413 305.234C175.402 299.858 177.059 294.718 179.304 289.905C175.278 285.275 173 280.011 173 274.427C173 264.272 180.535 255.177 192.428 249.034C195.368 247.515 195.889 243.567 193.547 241.229C193.529 241.211 193.512 241.194 193.494 241.176C171.891 219.573 168.018 188.42 184.843 171.595C188.161 168.277 192.042 165.777 196.291 164.046C179.964 158.526 163.209 160.77 152.384 171.595C135.558 188.421 139.432 219.573 161.035 241.176C162.805 242.946 164.645 244.585 166.53 246.115C150.914 252.056 140.541 262.511 140.541 274.426V274.426Z" fill="#6DC82A"/>
<path d="M434.639 239.732C436.524 238.202 438.364 236.563 440.134 234.793C461.737 213.19 465.61 182.037 448.785 165.212C431.959 148.386 400.807 152.259 379.204 173.863C377.407 175.66 375.745 177.527 374.195 179.442C368.254 163.821 357.797 153.443 345.879 153.443C329.691 153.443 316.184 172.574 313.053 198.011C302.527 191.965 291.867 190.571 283.678 195.299C267.65 204.553 267.16 233.709 282.582 260.422C283.204 261.499 283.843 262.555 284.496 263.59C287.017 249.045 293.413 235.041 303.704 223.25C305.74 220.917 309.326 220.782 311.516 222.972L406.028 317.484H421.449C421.089 312.175 419.192 306.511 415.95 300.884C441.441 297.778 460.627 284.257 460.627 268.046C460.627 256.128 450.254 245.673 434.639 239.732V239.732Z" fill="#7ED63E"/>
<path d="M300.997 316.847C300.997 317.06 300.983 317.269 300.981 317.482H406.029L311.517 222.97C309.327 220.78 305.742 220.915 303.705 223.248C291.235 237.536 284.479 255.072 283.418 272.884C294.303 284.332 300.997 299.803 300.997 316.847Z" fill="#FF5023"/>
<path d="M347.382 317.482H385.434C389.789 315.391 393.875 312.55 397.485 308.939L335.33 246.784C318.166 263.948 318.166 291.775 335.33 308.939C338.941 312.549 343.027 315.39 347.382 317.482Z" fill="#FFD422"/>
<path d="M347.406 317.482H363.882C359.531 315.392 355.452 312.546 351.846 308.939C337.543 294.636 335.17 272.931 344.706 256.159L335.331 246.784C318.167 263.948 318.167 291.775 335.331 308.939C338.947 312.555 343.043 315.39 347.406 317.482V317.482Z" fill="#EEBF00"/>
<path d="M199.065 317.482C199.062 317.27 199.049 317.06 199.049 316.847C199.049 295.795 216.115 278.728 237.168 278.728C258.221 278.728 275.287 295.794 275.287 316.847C275.287 317.06 275.274 317.27 275.271 317.482H300.981C300.983 317.27 300.997 317.06 300.997 316.847C300.997 281.595 272.42 253.018 237.168 253.018C201.916 253.018 173.339 281.595 173.339 316.847C173.339 317.06 173.353 317.269 173.355 317.482H199.065Z" fill="#FFD422"/>
<path d="M181.155 504.5H323.206C325.143 504.5 327.069 504.14 328.859 503.4C398.819 474.515 448.918 407.293 452.975 327.911C453.265 322.227 448.675 317.481 442.984 317.481H61.3771C55.6861 317.481 51.0961 322.227 51.3861 327.911C55.4431 407.293 105.542 474.514 175.502 503.4C177.292 504.14 179.218 504.5 181.155 504.5Z" fill="#FFB655"/>
<path d="M89.3981 327.912C89.1081 322.228 93.6981 317.482 99.3891 317.482H61.3771C55.6861 317.482 51.0961 322.228 51.3861 327.912C55.4431 407.294 105.542 474.515 175.502 503.401C177.293 504.14 179.218 504.501 181.155 504.501H219.167C217.23 504.501 215.304 504.141 213.514 503.401C143.554 474.515 93.4551 407.294 89.3981 327.912V327.912Z" fill="#FFA733"/>
<path d="M442.984 317.482H61.3771C55.6861 317.482 51.0961 322.228 51.3861 327.912C52.0271 340.45 53.8191 352.683 56.6541 364.511H447.708C450.543 352.683 452.335 340.45 452.976 327.912C453.266 322.228 448.675 317.482 442.984 317.482V317.482Z" fill="#FFB655"/>
<path d="M51.3861 327.912C52.0271 340.45 53.8191 352.683 56.6541 364.511H94.6661C91.8311 352.683 90.0391 340.45 89.3981 327.912C89.1081 322.228 93.6981 317.482 99.3891 317.482H61.3771C55.6861 317.482 51.0961 322.228 51.3861 327.912V327.912Z" fill="#FFA733"/>
<path d="M378.421 53.371C380.842 52.722 382.422 50.381 382.093 47.896C380.783 38.018 376.338 28.477 368.747 20.887C361.157 13.297 351.616 8.85201 341.738 7.54101C339.254 7.21101 336.912 8.79201 336.263 11.212L323.073 60.436C322.077 64.154 325.479 67.555 329.196 66.559L378.421 53.371Z" fill="#FFD422"/>
<path d="M344.938 60.438L357.731 12.695C352.694 9.99399 347.269 8.27599 341.738 7.54199C339.254 7.21199 336.912 8.79299 336.263 11.214L323.073 60.438C322.077 64.156 325.479 67.557 329.196 66.561L344.807 62.378C344.727 61.756 344.759 61.103 344.938 60.438V60.438Z" fill="#EEBF00"/>
<path d="M292.231 159.683C289.302 162.612 289.302 167.361 292.231 170.289C293.695 171.753 295.615 172.486 297.534 172.486C299.453 172.486 301.373 171.754 302.837 170.289L310.896 162.23C313.825 159.301 313.825 154.552 310.896 151.624C307.967 148.695 303.218 148.695 300.29 151.624L292.231 159.683Z" fill="black"/>
<path d="M283.653 136.694H295.049C299.191 136.694 302.549 133.336 302.549 129.194C302.549 125.052 299.191 121.694 295.049 121.694H283.653C279.511 121.694 276.153 125.052 276.153 129.194C276.153 133.336 279.511 136.694 283.653 136.694Z" fill="black"/>
<path d="M111.824 119.937C127.178 133.25 146.303 139.838 165.4 139.838C186.488 139.837 207.541 131.802 223.427 115.916C253.698 85.645 255.464 36.624 227.448 4.31403C225.182 1.70103 221.9 0.132026 218.442 0.00902638C214.977 -0.121974 211.599 1.21803 209.154 3.66303L186.698 26.119C183.769 29.048 183.769 33.796 186.698 36.725C189.627 39.655 194.376 39.654 197.304 36.725L217.829 16.201C238.907 42.578 236.915 81.213 212.819 105.309C188.722 129.404 150.087 131.396 123.71 110.319L172.303 61.725C175.232 58.796 175.232 54.047 172.303 51.119C169.374 48.19 164.625 48.19 161.697 51.119L111.172 101.644C108.727 104.089 107.396 107.474 107.519 110.931C107.642 114.388 109.211 117.67 111.824 119.937V119.937Z" fill="black"/>
<path d="M184.602 78.53C181.673 81.459 181.673 86.208 184.602 89.136L191.79 96.324C193.254 97.788 195.174 98.521 197.093 98.521C199.012 98.521 200.932 97.789 202.396 96.324C205.325 93.395 205.325 88.646 202.396 85.718L195.208 78.53C192.279 75.601 187.53 75.601 184.602 78.53Z" fill="black"/>
<path d="M165.168 85.7371C161.026 85.7371 157.668 89.0951 157.668 93.2371V103.402C157.668 107.544 161.026 110.902 165.168 110.902C169.31 110.902 172.668 107.544 172.668 103.402V93.2371C172.668 89.0951 169.31 85.7371 165.168 85.7371Z" fill="black"/>
<path d="M200.747 67.191H210.913C215.055 67.191 218.413 63.833 218.413 59.691C218.413 55.549 215.055 52.191 210.913 52.191H200.747C196.605 52.191 193.247 55.549 193.247 59.691C193.247 63.833 196.605 67.191 200.747 67.191Z" fill="black"/>
<path d="M442.984 309.982H427.79C427.502 308.853 427.18 307.722 426.791 306.585C451.571 300.835 468.127 285.805 468.127 268.044C468.127 256.17 460.684 245.31 447.742 237.691C470.157 213.299 473.175 178.995 454.087 159.908C450.388 156.209 446.113 153.35 441.454 151.292C441.135 139.286 437.803 127.541 431.757 117.211C429.665 113.636 425.07 112.434 421.496 114.527C417.921 116.619 416.72 121.213 418.812 124.788C422.877 131.734 425.389 139.496 426.198 147.509C422.681 147.223 419.077 147.289 415.434 147.704C412.714 125.129 393.453 107.573 370.157 107.573C357.254 107.573 345.598 112.97 337.294 121.611L329.728 114.045C339.973 103.465 354.302 96.863 370.157 96.863C379.334 96.863 388.439 99.117 396.487 103.382C400.147 105.321 404.686 103.927 406.626 100.267C408.566 96.607 407.171 92.068 403.511 90.128C393.307 84.721 381.774 81.863 370.157 81.863C350.165 81.863 332.083 90.143 319.123 103.441L284.523 68.84C282.095 66.412 278.748 65.07 275.3 65.19C271.849 65.299 268.557 66.851 266.269 69.448C245.413 93.128 239.096 124.957 246.916 153.605C238.373 156.241 230.722 162.884 224.939 172.705C213.731 162.369 200.126 155.784 186.308 154.066C176.209 152.809 166.779 154.236 158.714 158.089C146.8 149.143 132.025 143.814 116.013 143.814C76.6824 143.814 44.6844 175.812 44.6844 215.143C44.6844 240.146 57.6264 262.168 77.1544 274.905C75.2664 278.499 73.9744 282.374 73.4164 286.468C72.2934 294.707 74.2424 302.797 78.5034 309.982H61.3774C56.5924 309.982 51.9584 311.971 48.6624 315.44C45.3434 318.933 43.6504 323.499 43.8954 328.295C45.9364 368.231 59.3334 406.5 82.6374 438.966C105.465 470.769 136.587 495.447 172.639 510.333C175.319 511.439 178.183 512 181.155 512H323.206C326.177 512 329.042 511.439 331.722 510.333C367.774 495.448 398.896 470.77 421.724 438.966C445.028 406.5 458.425 368.23 460.466 328.295C460.711 323.499 459.018 318.933 455.699 315.44C452.403 311.971 447.769 309.982 442.984 309.982ZM370.158 122.574C386.383 122.574 399.693 135.261 400.707 151.234C393.264 153.966 385.983 158.12 379.32 163.639L347.896 132.215C353.482 126.287 361.391 122.574 370.158 122.574ZM367.185 182.107C368.139 184.616 370.361 186.423 373.012 186.847C375.661 187.268 378.337 186.245 380.026 184.159C381.468 182.377 382.976 180.696 384.507 179.164C403.152 160.52 429.609 156.641 443.482 170.514C457.356 184.389 453.476 210.844 434.831 229.489C433.326 230.994 431.671 232.481 429.913 233.908C427.83 235.598 426.809 238.272 427.234 240.92C427.659 243.568 429.465 245.787 431.972 246.741C445.021 251.706 453.128 259.869 453.128 268.043C453.128 279.875 436.755 290.792 415.043 293.437C412.545 293.741 410.366 295.278 409.241 297.529C408.116 299.78 408.195 302.445 409.451 304.626C410.497 306.442 411.355 308.232 412.041 309.982H409.135L361.878 262.725L404.441 220.162C407.37 217.233 407.37 212.484 404.441 209.556C401.512 206.627 396.763 206.627 393.835 209.556L351.272 252.119L316.821 217.668C314.318 215.165 310.865 213.805 307.312 213.918C303.764 214.039 300.391 215.643 298.056 218.318C291.48 225.853 286.388 234.217 282.739 243.034C280.08 235.606 278.723 228.225 278.837 221.439C278.93 215.901 280.17 205.985 287.43 201.794C289.52 200.587 291.986 199.991 294.712 199.991C299.075 199.991 304.103 201.519 309.319 204.515C311.499 205.767 314.16 205.844 316.407 204.72C318.655 203.596 320.191 201.422 320.498 198.928C323.163 177.273 334.075 160.944 345.879 160.944C354.056 160.942 362.22 169.052 367.185 182.107ZM386.33 308.391C385.454 308.963 384.558 309.493 383.645 309.982H349.185C346.111 308.336 343.223 306.225 340.634 303.636C328.239 291.241 326.655 272.068 335.879 257.94L386.33 308.391ZM237.168 271.229C214.347 271.229 195.387 288.074 192.066 309.982H181.273C184.672 282.151 208.434 260.519 237.168 260.519C265.902 260.519 289.664 282.151 293.063 309.982H282.27C278.949 288.073 259.989 271.229 237.168 271.229ZM267.002 309.982H207.335C210.461 296.395 222.646 286.229 237.168 286.229C251.69 286.229 263.876 296.395 267.002 309.982ZM291.212 270.375C292.619 255.931 298.134 241.801 307.873 229.933L325.115 247.175C311.254 265.803 311.625 291.744 326.224 309.982H308.16C306.715 294.929 300.566 281.237 291.212 270.375ZM275.828 81.358L340.863 146.393C325.358 149.187 312.576 164.834 307.36 187.187C304.29 186.141 301.248 185.46 298.256 185.153C295.908 184.913 293.606 184.926 291.371 185.162C285.519 168.302 274.982 156.526 262.444 153.256C254.579 129.215 258.928 101.925 275.828 81.358ZM157.687 176.897C164.153 170.431 173.661 167.609 184.458 168.951C195.952 170.38 207.389 176.274 216.661 185.547C218.196 187.082 219.703 188.762 221.143 190.541C222.831 192.628 225.508 193.65 228.157 193.23C230.807 192.807 233.03 190.999 233.984 188.49C238.949 175.435 247.113 167.325 255.29 167.325C264.203 167.325 272.602 176.639 277.33 190.522C268.84 196.75 264.069 207.493 263.838 221.186C263.663 231.614 266.173 242.992 270.994 254.065C260.922 248.617 249.401 245.518 237.168 245.518C237.085 245.518 237.003 245.524 236.92 245.524L207.333 215.937C204.404 213.008 199.655 213.008 196.727 215.937C193.798 218.866 193.798 223.615 196.727 226.543L218.263 248.079C194.863 254.52 176.233 272.594 169.045 295.678C156.38 290.84 148.04 282.867 148.04 274.424C148.04 266.25 156.146 258.087 169.196 253.122C171.702 252.168 173.509 249.949 173.934 247.301C174.359 244.653 173.338 241.98 171.255 240.289C169.495 238.861 167.84 237.374 166.337 235.87C157.064 226.597 151.17 215.16 149.74 203.666C148.398 192.871 151.22 183.364 157.687 176.897ZM99.0174 240.573C90.8154 235.075 85.3944 225.738 85.3944 215.143C85.3944 198.26 99.1304 184.524 116.013 184.524C123.154 184.524 129.719 186.994 134.931 191.108C134.662 192.986 134.492 194.903 134.435 196.859C126.74 197.034 119.41 199.348 113.269 204.016C102.566 212.151 97.6334 225.851 99.0174 240.573ZM113.912 266.831C116.279 266.404 118.298 264.869 119.341 262.701C120.383 260.534 120.323 257.997 119.179 255.882C110.847 240.476 112.179 223.686 122.345 215.959C126.221 213.012 130.939 211.667 135.972 211.742C138.648 223.351 144.682 234.572 153.423 244.075C140.482 251.693 133.04 262.554 133.04 274.427C133.04 289.678 145.256 302.906 164.396 309.983H97.6154C90.8904 304.035 87.2104 296.335 88.2784 288.495C89.7254 277.878 99.7874 269.375 113.912 266.831ZM59.6844 215.143C59.6844 184.083 84.9534 158.814 116.013 158.814C127.016 158.814 137.286 161.994 145.969 167.472C143.511 170.126 141.426 173.051 139.737 176.211C132.82 171.976 124.701 169.524 116.013 169.524C90.8594 169.524 70.3944 189.988 70.3944 215.143C70.3944 233.511 81.3104 249.372 96.9934 256.596C93.1584 258.415 89.6794 260.628 86.6484 263.19C70.4874 253.279 59.6844 235.45 59.6844 215.143ZM441.691 357.01H371C366.858 357.01 363.5 360.368 363.5 364.51C363.5 368.652 366.858 372.01 371 372.01H437.947C431.866 392.763 422.306 412.43 409.538 430.218C388.345 459.743 359.457 482.652 325.997 496.467C325.142 496.82 324.203 496.999 323.206 496.999H181.155C180.158 496.999 179.219 496.82 178.364 496.467C144.904 482.652 116.016 459.743 94.8234 430.217C82.0554 412.429 72.4954 392.762 66.4144 372.009H335C339.142 372.009 342.5 368.651 342.5 364.509C342.5 360.367 339.142 357.009 335 357.009H62.6704C60.6634 347.343 59.3854 337.492 58.8764 327.528C58.8344 326.695 59.2114 326.113 59.5364 325.771C59.8174 325.476 60.4294 324.981 61.3774 324.981H442.984C443.932 324.981 444.545 325.476 444.825 325.771C445.15 326.113 445.528 326.695 445.485 327.528C444.976 337.493 443.698 347.344 441.691 357.01Z" fill="black"/>
<path d="M327.846 74.242C328.937 74.242 330.042 74.098 331.138 73.805L380.363 60.616H380.364C386.41 58.995 390.349 53.103 389.528 46.911C387.943 34.957 382.59 24.124 374.05 15.584C365.51 7.04401 354.678 1.69202 342.724 0.107015C336.537 -0.707985 330.641 3.22502 329.018 9.27302L315.829 58.497C314.66 62.862 315.869 67.375 319.064 70.571C321.458 72.964 324.591 74.242 327.846 74.242V74.242ZM342.926 15.325C350.721 16.795 357.778 20.525 363.444 26.19C369.11 31.856 372.839 38.912 374.309 46.708L331.439 58.195L342.926 15.325Z" fill="black"/>
</g>
<defs>
<clipPath id="clip0_56_1969">
<rect width="512" height="512" fill="white"/>
</clipPath>
</defs>
</svg>
