<svg width="1916" height="167" viewBox="0 0 1916 167" fill="none" xmlns="http://www.w3.org/2000/svg">
<g clip-path="url(#clip0_269_1737)">
<path d="M1916.1 0H-3.90002V166.8H1916.1V0Z" fill="#FBBE36"/>
<path d="M1916 0H-4V86H1916V0Z" fill="white"/>
<path d="M932.7 104.2L928.4 104.8C930.5 104.6 931.8 104.4 932.7 104.2Z" fill="#FBBE36"/>
<path d="M963.8 104.3L964.6 103.3C963.1 103.9 962.5 104.3 963.8 104.3Z" fill="#FBBE36"/>
<path d="M1536.6 79.9001C1530.4 78.1001 1523.4 75.2001 1524.1 77.4001L1526 79.6001C1530.4 79.2001 1533.8 79.4001 1536.6 79.9001Z" fill="#FBBE36"/>
<path d="M1217.9 92.8C1218.5 93 1219.1 93.2 1219.7 93.5C1221.2 92.8 1222.6 92.1 1223.9 91.4C1222.1 91.8 1220.1 92.3 1217.9 92.8Z" fill="#FBBE36"/>
<path d="M1213.5 101.8L1205.3 100.4C1207.1 100.9 1209.8 101.3 1213.5 101.8Z" fill="#FBBE36"/>
<path d="M763.3 106.5L758.3 108.7C766.2 108.7 762.7 107.6 763.3 106.5Z" fill="#FBBE36"/>
<path d="M1807.9 80.4C1802.5 79.6 1798.2 79.2 1794.5 79.1C1800.9 80.4 1806.2 82.2 1807.9 80.4Z" fill="#FBBE36"/>
<path d="M944.9 81.2C942.3 81.6 941.2 82 941.2 82.5C944 82.1 945.5 81.7 944.9 81.2Z" fill="#FBBE36"/>
<path d="M1778.9 79.1001C1779.8 79.3001 1780.8 79.4001 1781.7 79.6001C1785.6 79.2001 1789.6 78.9001 1794.4 79.1001C1789.6 78.2001 1784.2 77.6001 1778.9 79.1001Z" fill="#FBBE36"/>
<path d="M149 104.7C148.6 104.6 148 104.6 147.6 104.4C147.5 104.7 148.1 104.7 149 104.7Z" fill="#FBBE36"/>
<path d="M1738.9 92.6C1738.8 92.6 1738.7 92.6 1738.6 92.6C1739.7 93.1 1739.5 93 1738.9 92.6Z" fill="#FBBE36"/>
<path d="M478.2 98.9C477.9 98.8 477.6 98.8 477.3 98.7C473.3 99.6 475 99.4 478.2 98.9Z" fill="#FBBE36"/>
<path d="M1432 102.4C1432.2 102.4 1432.3 102.3 1432.5 102.3C1432.3 102.3 1432.1 102.2 1431.9 102.2L1432 102.4Z" fill="#FBBE36"/>
<path d="M1417.6 104C1423.7 101.3 1427.2 101.6 1431.9 102.2L1427.1 95.9L1417.6 104Z" fill="#FBBE36"/>
<path d="M858.5 104.8L868.6 106.7C856.4 109.9 847.5 108.8 857 111.5C858.4 104.7 896.4 110.8 897.8 104L904.5 105.4C902.6 105.3 902.3 105.7 900.4 105.7C913.4 109 910.1 100.8 926.8 101.8C932.6 102.3 936.7 103.3 932.7 104.1L945.7 102.4C949.5 102.5 948.6 103.7 944.8 103.6L964.6 103.1L964.5 103.3C967.3 102.2 973.7 100.6 976.9 99.9C981.9 100.9 974.4 100.6 975.7 101.5L986.7 99.9C991.2 101.7 982.1 103.4 974.5 103.1C984.8 109.9 983.6 101.4 1005.7 105.4L995.3 106.3C1002 110.2 1010.1 108.8 1021.8 111.2C1019 109.9 998.3 105.1 1010.2 103.5C1013.6 104 1018 104.3 1024.4 102.9C1024.5 105.3 1030.7 104.7 1038.6 104.6L1038.1 107.8C1046.6 106.9 1045.9 105.2 1050.9 103.8C1060.4 104.1 1062.3 106.6 1064.6 108.7C1079.8 109.2 1054.1 104.7 1072.1 104.1C1084.7 105.3 1093.6 104 1108.6 102.1C1117.4 103.2 1107.1 104.1 1110.2 105L1118 102.4C1119.9 102.5 1119.3 103.2 1119 103.6C1125.6 102.6 1119.5 100.4 1129.9 99.5C1132.7 96 1151.2 104.6 1164 100.6C1167.2 101.5 1162.5 102.6 1163.4 103.8C1181 101.2 1178.5 101.9 1192.9 98.4L1205.2 100.5C1196.2 98.1 1207.7 95.3 1217.8 92.9C1214.6 91.7 1211.9 90.7 1210 90.2L1226.1 88.5C1228.1 89 1226.4 90.1 1223.8 91.5C1224.9 91.2 1225.9 91 1226.8 90.7C1232.6 91.9 1229.6 93.7 1225.4 95.5C1223.4 94.9 1221.5 94.2 1219.6 93.5C1215.6 95.4 1211.9 97.6 1212.7 99.5C1213.8 99.1 1215.8 98.8 1218 98.6C1217 99.1 1216.3 99.6 1216.8 99.9C1217.3 100.2 1219 99.5 1221.7 98.7L1225.4 102.3L1226.3 100.9L1247.4 103.1C1262.5 99.5 1275.7 94.2 1299.7 92.8C1293.7 95.4 1298.4 97.1 1298.1 100.2C1291.6 96.9 1279.5 101.6 1267.1 100.9C1273.6 101.2 1272.2 102.7 1270.5 103.2L1292.7 100.2C1292.2 102.7 1297.4 102.1 1303.2 103.1C1298.8 98.1 1319.7 99.8 1328.8 98.2C1329.4 99.9 1327.2 101.6 1316.2 101.2C1328.3 105 1331.9 95.3 1343.8 98.5C1341.1 98.5 1339.7 98.3 1338.6 99.1C1344.9 97.6 1360.2 98.8 1356.6 100.3H1353.9C1371.7 100.9 1408.2 100.3 1410.9 96.1C1411.1 96.6 1408.6 101.2 1407.5 102.1L1439.3 87.8C1436.5 91.5 1447.3 100.2 1432.5 102.2C1436.7 102.7 1442 103.3 1451 102C1448.1 101.5 1443.8 96.7 1447.7 96.4C1458.6 100.5 1455.2 98.6 1468.6 102C1464.3 101.2 1469.1 95.5 1475.9 95.7C1474.8 96.6 1476.5 101.4 1474 101.9L1491.1 96.3C1486.8 97.3 1490.3 101.1 1494.2 102.7C1492.4 101.6 1509 102.8 1513.5 102.2L1506.3 100.9C1525.6 101.7 1525.4 93 1544.5 93.3C1542.2 94.5 1538.8 100.4 1548.5 101.2C1553 98.3 1568.3 87.3 1585.2 85.1L1588.4 86.7L1601.4 84.8C1593.3 89.1 1570.6 98.3 1558.2 101.8C1565.4 103.1 1560.2 103.7 1571 103.6C1574.8 105.1 1565.1 105.9 1561.9 106L1587.1 107C1586 103.6 1606.4 103.6 1605.4 100.8L1578.1 104.3C1577 100.9 1593.9 94.8 1611.7 95.4C1616.2 96.7 1608.3 101.4 1608.7 102.5C1611 101.3 1625.6 100.3 1627.3 101.1L1619.7 102.9C1629.6 104.2 1635.9 98.4 1647.8 101.7C1651.9 101.9 1660.1 106 1660.8 104C1654.1 100.2 1652.8 88.3 1657.2 85.4C1658.6 85.7 1678.8 89.1 1683.5 91C1690.3 94 1673.3 98.2 1679.1 100.8C1679.3 99.9 1683.1 98.7 1684.7 98.4C1689 99.2 1682.9 101.2 1692.3 100.8C1693.9 97.4 1711.4 101.1 1696.7 97.9C1705.9 96.9 1706.5 98.6 1717.3 98.5C1713.9 96.3 1727 91 1736.2 90C1735.7 90.9 1737.7 92 1738.7 92.5C1757.5 92.8 1767.7 94.4 1785.2 94.4C1786.8 95.2 1795.3 96.2 1791.7 97.7C1794.2 97.1 1796.5 95.9 1802 95.9C1812.5 98.8 1789.9 96.4 1797.9 99.9C1798.6 97.9 1811.9 97.2 1819.6 95.9C1817.2 92.8 1801.8 95.3 1794 96.5C1794 92.3 1807.4 87.9 1825.8 85.9C1840.4 84.9 1832.1 88.6 1834.7 88C1862.1 88.7 1858.1 80.6 1880.8 83.7C1889.8 86.4 1881.2 89 1883.2 91C1871.3 92 1864.9 89.3 1856.9 89.4L1866.8 90.7C1863 91.6 1855.1 92.3 1850.8 91.5C1858.4 93.9 1897.1 92 1918.3 94.2C1922.1 93.3 1928.5 92.4 1925.5 91.3L1918.8 91.7C1912.6 89.5 1931.4 88.7 1922.9 87.7C1931.9 86.2 1941.9 83.8 1954.6 85L1957 88.1C1956.7 87.2 1948.7 86.3 1945.2 87.2C1950.5 85.8 1964.6 91.3 1970.4 87.3L1961.5 85.2C1970.5 83.7 1981.7 80.4 1992.9 81.4C1987.8 78.4 1990.3 81.7 1982.4 78.2C1989.3 82.6 1953.7 78 1964.8 82.6C1956.6 78.5 1950.7 80.9 1940 77.4C1940.3 78.4 1943.8 79.3 1934.4 78.8C1934 79.1 1933 79.5 1932.3 79.7C1932 79.7 1931.9 79.7 1931.7 79.6C1931.9 79.6 1932 79.7 1932.2 79.7C1931.8 79.9 1931.8 79.9 1932.4 79.7C1934.6 80.1 1936.5 80.7 1937.2 81.2C1932.5 83.5 1917.6 83.4 1912.5 84.6C1906.9 84.1 1914.8 83.4 1911.8 82.4L1904.2 84.2C1903.5 82 1889.4 80.5 1902.5 79.2L1890.7 79.1C1883.7 77.8 1874.2 77.3 1868.2 78.3C1862.6 77.8 1854.1 80.8 1859 79L1840.4 80.4L1840.2 79.8C1821.9 79.5 1802.5 83.5 1781.6 79.5C1775.4 80.1 1769.1 80.8 1758.8 80.1L1756.8 78.2C1748.9 78.9 1733 76.3 1729.6 78.3C1721.1 73.1 1691.2 77.2 1677.3 76.2L1676.8 78.7C1667.2 78.6 1658 79.3 1646.1 80.3L1646.8 82.5C1636.5 84.3 1620.4 80.9 1604.2 81.1C1605.3 80.2 1609.4 80.5 1612.3 81C1592.9 75.9 1571.4 84.7 1553.8 81C1549.4 81.8 1546.2 81.5 1543.2 81C1543.6 81 1544 81 1544.3 80.9C1543.9 80.9 1543.2 80.9 1542.5 80.9C1540.6 80.5 1538.6 80.1 1536.4 79.7C1538.2 80.2 1540 80.7 1541.5 80.9C1538.1 80.9 1533 81.2 1528 81.8L1525.9 79.4C1525.5 79.4 1525.2 79.4 1524.7 79.5C1519.8 78.6 1520.7 80.6 1523.4 82.5C1520.9 82.9 1518.6 83.4 1516.8 84C1512.8 80.1 1503.6 85.3 1498.2 81.2C1494.8 83.2 1473 82.7 1470.3 87C1470.1 86.4 1468.6 86.2 1471.4 86.1C1465.8 85.6 1460.2 85.1 1455.2 86.3L1452.8 83.2L1440.6 87.3C1433.2 85.4 1430.1 84.4 1437.5 82C1419.7 85.6 1423.1 83.4 1407.9 87L1408.6 85C1403.2 85.1 1394.5 87.7 1391.3 86.1C1379.2 82.3 1331.4 85.6 1300.3 82.1C1306.3 87.9 1285.9 79.5 1284.6 84C1282.8 82.6 1278.5 81.8 1283.5 80.6C1267.6 82 1259.7 78.4 1248.7 82.2C1246.9 80.8 1252.1 80.2 1250.5 79.4C1249.2 79.7 1245.5 80.6 1243.8 79.8C1242.2 79 1246.1 78.6 1248.6 78C1232.4 78.2 1230.8 82.5 1229.6 86.5C1221.4 84.6 1217.3 84.9 1211.4 87.5C1208.5 86.2 1203.8 84.8 1213.8 84.4C1208.1 84.2 1179.2 82.5 1178.6 85.7C1176.8 84.9 1170.7 85.5 1169.2 85.8C1156.5 85.6 1155.4 85.3 1142.9 85.6L1146.4 86.1C1141.5 90 1136 87 1126 87.4L1126.3 87C1103.2 84.2 1116.3 88.3 1093.6 85.2L1094.8 87.6C1092.7 92.8 1074.6 84.6 1061.4 86.5L1066.2 87.9C1059 89.7 1046 80.9 1038.8 80.2C1037.2 79.8 1041.3 79.5 1043.5 79.1C1024.5 76.1 1041 82.2 1026.9 83C1024.3 81.3 1030.3 78.7 1020.7 78.4C1016 77 993.1 83.9 980.1 80.7C983 82 985.8 83.3 979.2 84.3C969.1 84.8 952 79.4 942.9 83.5C941.6 83.1 941.1 82.8 941.1 82.5C933.4 83.6 916.1 84.3 911.5 86.5C904.4 78.2 863.7 90.5 863.9 82.9L840.2 83.3L840.8 82.5C825.7 82 820.3 83.8 815 85.7C811.5 85.2 814.1 84.5 814.3 84.1C792.2 82.6 790 82.9 771.5 86.7L769.6 84.2C764.6 85.6 737.7 80.3 716 83.2C716.2 82.9 716.7 82.4 718.4 82.1C694 85 660 75.2 651.1 84.3L635 86.5C655.8 87.2 631.9 90.4 640.5 91.9C632.3 92.4 619.3 89.2 629.4 88.7L631 89.2C634.7 84.5 605.1 87.5 605.7 84.3C564.7 84.5 524.8 81.9 486.5 81.7L490.9 85.4L477.5 85.2C474 84.3 472.8 82.3 482.3 82.5C477.3 80.4 466.3 84.2 466 85C447.3 83.5 473.3 80.7 467.6 80.6L459.8 80.9L461.6 81.3C455.3 82.8 454.7 84.4 443.3 84.2C436 83.5 439.6 81.9 436.7 81.8C436.7 81.5 435.8 81.4 432.3 81.7L415.4 81.4L422.1 84.3C414.6 85.7 406.2 84.1 414 87.4C402.6 82.4 351.1 85.6 344.1 84C333.6 86.1 323.3 86.1 310.5 85.8C313.7 86.4 315.6 89.6 304.5 89.3C308.5 82.6 284.3 86.4 275.4 81.6C283.4 84.8 244 82.4 256.5 86.9C247.3 86.4 255.9 84.4 249 82.8C227.1 85.4 200.7 81.1 173.6 82C173.2 82.9 177.7 84.2 171.9 85.5L157.6 81.1C152.2 81.5 152.7 86.2 142.9 83.1C144.3 83.8 146.3 85 142.8 85.2C89.7001 80.9 34.3001 88.7 -19.5999 80.7C-12.2999 82.4 -17.2 82.6 -22.7 82.6C-19 83 -22.7 84.8 -22 86L-44.5999 82.7C-48.6999 86 -68.8 82.9 -71.2 86.1L-64.1 85.5C-73.6 89.2 -50.8 93.8 -52.2 98.6C-41.6 94.4 -24.1 104.9 -6.69995 98.8C-2.79995 99.8 -9.99995 100.3 -7.89995 101.5C-3.49995 99.4 1.90005 99 11.8 99.9L10.7 100.4C38.5 99.9 50.5 101.9 81.7 103.3L79.4 100.9C86.1 101.2 87.5 102 90.7 102.6C98.4 99 71.8 102.4 78.9 98.4C87.8 103.2 126.3 98.5 132.3 103.9C142.6 103.9 129.3 101.2 139.6 101.2L142.3 102.7L144.9 100.8C151.7 101.1 155.1 103 155.3 104.2C153.7 104.1 150.6 104.6 148.9 104.7C157.7 106.4 173.7 104.1 176.7 104.7L166.8 103.8C195 102.4 229.4 104.4 256.7 101.3L254.6 100.2C275.4 98.1 271.3 101.4 294.1 100.5L293.3 100.8C297.9 99.7 304 99.1 310.2 99.3C304.4 100.6 321.1 101.8 313.5 103.3C336.1 101.1 324.7 101.6 339.6 97.4L343 99.3C348.1 97.6 348.5 96.7 359.9 96.3C350.5 97.9 367.2 99.1 356.7 101.2C380.6 105.3 392.3 97.1 403.2 103C414.2 97.9 382.5 100.2 388.6 99.1C383.4 97.4 397.7 95.3 405.2 95.8C412.8 95.9 418.2 102.4 437.4 102.3C435.5 102.3 435.4 102.7 433.4 102.6C440.6 103.9 447.5 100.8 456.3 103C461.3 99.9 467.8 103.2 469.2 99.2L451.5 100.1C461.5 99.1 470.9 94.4 487.4 96.7C486.1 97.5 481.2 98.5 477.8 99.1C482.6 100.3 487.1 98.3 492.1 99.5C490.7 103.5 470.7 100.4 459.9 103.4C465.1 105.1 480.2 100.5 474.8 104.8C482.5 99.3 493.8 105.5 506.8 101.3L505.9 103.7C508 103.3 512.2 102.2 516 102.3L509.1 105.4C519.6 102.8 529.4 107.7 539.6 106.3C518.4 106.4 534.8 103.4 525.9 101.7C552 98.5 540.9 107.9 570.2 106.8C566.2 107.1 555.3 105.4 561.5 104.3C567.1 104.8 574.4 105.7 577.8 106.9C597.2 106.4 574.8 104.5 583.1 103C589.7 105.9 592.6 101.8 601.1 100.9L601.2 103.3C623.3 104.8 607.1 98.3 626.9 100.1L618.5 103.4L628.9 102.5L626.8 105.2C638.1 103.2 641.6 103.7 652.6 104.5C650 102.8 654 100.1 663.8 100C670.5 101.4 660.1 102.3 673.9 101.9C670.8 103.4 667.3 105.3 661.3 103.1C660.7 103.9 658.2 104.6 657.6 105.4C664.8 107 675.7 105.8 680.7 105.8C678.8 105.7 676.5 105.6 675.3 105.2L695.4 101.9C698.6 102.8 696.1 103.5 693.6 104.2C697.7 103.9 700.5 102.8 706.5 102.6C705 104.6 705.3 106.6 696.8 107.5L716 105.3C717.3 106.2 725.8 107.6 723.3 108.4C733.9 109.6 749.3 104.6 763.4 106.1C764.1 105.7 765.6 105.4 768.6 105.1C781.8 105.5 793.6 107.9 809.2 105.3L818.1 108.8C830.4 108 806.1 104.4 826.5 103C841 101.9 831.9 106 837 107C844.2 105.2 856.7 101.6 870 104.5C866 105.1 862.6 104.6 858.5 104.8ZM1009.9 103.3C1007 103.8 1001.1 105.4 999 103.9C1002.4 101.1 1004.9 102.5 1009.9 103.3ZM1240.2 97.5C1238 98.3 1234.6 97.9 1230.8 97C1233.6 96.7 1236.7 96.8 1240.2 97.5ZM1881.6 80.7C1881.5 80.7 1881.4 80.8 1881.3 80.8C1874.8 79.8 1877.1 80.2 1881.6 80.7ZM1895.2 81.7C1896.6 81.4 1896.5 81 1895.9 80.7C1895 81.3 1891.9 81.4 1888.4 81.2C1889.4 81.8 1891.2 82.2 1895.2 81.7ZM435.3 82.7L437.9 83.3C431.9 84 433.6 83.4 435.3 82.7Z" fill="#FBBE36"/>
<path d="M1214.1 100.8C1213.3 100.4 1213 99.9 1212.8 99.5C1211.7 99.8 1211.7 100.3 1214.1 100.8Z" fill="#FBBE36"/>
<path d="M764.3 106.1C764.1 106.1 764 106.1 763.8 106.1C763.5 106.2 763.4 106.4 763.3 106.5L764.3 106.1Z" fill="#FBBE36"/>
<path d="M1684.6 102.2C1681.8 101.9 1680.2 101.4 1679.2 101C1679.1 101.5 1680.4 102 1684.6 102.2Z" fill="#FBBE36"/>
<path d="M1912.5 80.4C1915.4 80.9 1914.3 77.8 1916 78.6C1919.2 76 1896.6 81.7 1912.5 80.4Z" fill="#FBBE36"/>
<path d="M1827.3 90L1816.7 90.7C1815.6 91.6 1818.5 92.1 1822.5 91.7C1825 91.1 1829 90.8 1827.3 90Z" fill="#FBBE36"/>
<path d="M1859.5 96.8C1856.6 96.3 1856.4 95.7 1854.8 94.9L1854.5 98L1859.5 96.8Z" fill="#FBBE36"/>
<path d="M1828.5 97.6C1827.4 98.5 1813.1 100.1 1826.5 99.9C1827.6 99 1838.3 98.3 1828.5 97.6Z" fill="#FBBE36"/>
<path d="M1668.2 93.6H1670.9L1670.5 88.5L1668.2 93.6Z" fill="#FBBE36"/>
<path d="M1526.9 105.8C1539.5 107 1529.9 102.7 1541.3 104.2C1544.3 103 1532 103 1535 101.9C1527.4 103.2 1523.4 102.5 1526.9 105.8Z" fill="#FBBE36"/>
<path d="M1535 101.9C1536.2 101.7 1537.5 101.5 1538.9 101.1C1536.7 101.5 1535.7 101.7 1535 101.9Z" fill="#FBBE36"/>
<path d="M1032.5 109.8L1033.1 109C1031.8 108.2 1029.9 108.1 1026.1 108L1032.5 109.8Z" fill="#FBBE36"/>
<path d="M922.5 107.4H924.4L920.9 104.5L922.5 107.4Z" fill="#FBBE36"/>
<path d="M830.3 111.1C834.1 111.2 838.5 110.6 842.3 110.7C834 111.2 829.2 107.5 830.3 111.1Z" fill="#FBBE36"/>
</g>
<defs>
<clipPath id="clip0_269_1737">
<rect width="1916" height="167" fill="white"/>
</clipPath>
</defs>
</svg>
