<svg width="1916" height="167" viewBox="0 0 1916 167" fill="none" xmlns="http://www.w3.org/2000/svg">
<g clip-path="url(#clip0_269_1381)">
<path d="M1916 0H0V167H1916V0Z" fill="white"/>
<path d="M1916.1 0H-3.90002V75.3H1916.1V0Z" fill="#FBBE36"/>
<path d="M935.7 87.2L931.4 87.8C933.5 87.6 934.8 87.4 935.7 87.2Z" fill="#FBBE36"/>
<path d="M966.8 87.3L967.6 86.3C966.1 86.9 965.5 87.3 966.8 87.3Z" fill="#FBBE36"/>
<path d="M1539.6 62.9C1533.4 61.1 1526.4 58.2 1527.1 60.4L1529 62.6C1533.4 62.2 1536.8 62.4 1539.6 62.9Z" fill="#FBBE36"/>
<path d="M1220.9 75.8C1221.5 76 1222.1 76.2 1222.7 76.5C1224.2 75.8 1225.6 75.1 1226.9 74.4C1225.1 74.8 1223.1 75.3 1220.9 75.8Z" fill="#FBBE36"/>
<path d="M1216.5 84.8L1208.3 83.4C1210.1 83.9 1212.8 84.3 1216.5 84.8Z" fill="#FBBE36"/>
<path d="M766.3 89.5L761.3 91.7C769.2 91.7 765.7 90.6 766.3 89.5Z" fill="#FBBE36"/>
<path d="M1810.9 63.4C1805.5 62.6 1801.2 62.2 1797.5 62.1C1803.9 63.4 1809.2 65.2 1810.9 63.4Z" fill="#FBBE36"/>
<path d="M947.9 64.2C945.3 64.6 944.2 65 944.2 65.5C947 65.1 948.5 64.7 947.9 64.2Z" fill="#FBBE36"/>
<path d="M1781.9 62.1C1782.8 62.3 1783.8 62.4 1784.7 62.6C1788.6 62.2 1792.6 61.9 1797.4 62.1C1792.6 61.2 1787.2 60.6 1781.9 62.1Z" fill="#FBBE36"/>
<path d="M152 87.7C151.6 87.6 151 87.6 150.6 87.4C150.5 87.7 151.1 87.7 152 87.7Z" fill="#FBBE36"/>
<path d="M1741.9 75.6C1741.8 75.6 1741.7 75.6 1741.6 75.6C1742.7 76.1 1742.5 76 1741.9 75.6Z" fill="#FBBE36"/>
<path d="M481.2 81.9C480.9 81.8 480.6 81.8 480.3 81.7C476.3 82.6 478 82.4 481.2 81.9Z" fill="#FBBE36"/>
<path d="M1435 85.4C1435.2 85.4 1435.3 85.3 1435.5 85.3C1435.3 85.3 1435.1 85.2 1434.9 85.2L1435 85.4Z" fill="#FBBE36"/>
<path d="M1420.6 87C1426.7 84.3 1430.2 84.6 1434.9 85.2L1430.1 78.9L1420.6 87Z" fill="#FBBE36"/>
<path d="M861.5 87.8L871.6 89.7C859.4 92.9 850.5 91.8 860 94.5C861.4 87.7 899.4 93.8 900.8 87L907.5 88.4C905.6 88.3 905.3 88.7 903.4 88.7C916.4 92 913.1 83.8 929.8 84.8C935.6 85.3 939.7 86.3 935.7 87.1L948.7 85.4C952.5 85.5 951.6 86.7 947.8 86.6L967.6 86.1L967.5 86.3C970.3 85.2 976.7 83.6 979.9 82.9C984.9 83.9 977.4 83.6 978.7 84.5L989.7 82.9C994.2 84.7 985.1 86.4 977.5 86.1C987.8 92.9 986.6 84.4 1008.7 88.4L998.3 89.3C1005 93.2 1013.1 91.8 1024.8 94.2C1022 92.9 1001.3 88.1 1013.2 86.5C1016.6 87 1021 87.3 1027.4 85.9C1027.5 88.3 1033.7 87.7 1041.6 87.6L1041.1 90.8C1049.6 89.9 1048.9 88.2 1053.9 86.8C1063.4 87.1 1065.3 89.6 1067.6 91.7C1082.8 92.2 1057.1 87.7 1075.1 87.1C1087.7 88.3 1096.6 87 1111.6 85.1C1120.4 86.2 1110.1 87.1 1113.2 88L1121 85.4C1122.9 85.5 1122.3 86.2 1122 86.6C1128.6 85.6 1122.5 83.4 1132.9 82.5C1135.7 79 1154.2 87.6 1167 83.6C1170.2 84.5 1165.5 85.6 1166.4 86.8C1184 84.2 1181.5 84.9 1195.9 81.4L1208.2 83.5C1199.2 81.1 1210.7 78.3 1220.8 75.9C1217.6 74.7 1214.9 73.7 1213 73.2L1229.1 71.5C1231.1 72 1229.4 73.1 1226.8 74.5C1227.9 74.2 1228.9 74 1229.8 73.7C1235.6 74.9 1232.6 76.7 1228.4 78.5C1226.4 77.9 1224.5 77.2 1222.6 76.5C1218.6 78.4 1214.9 80.6 1215.7 82.5C1216.8 82.1 1218.8 81.8 1221 81.6C1220 82.1 1219.3 82.6 1219.8 82.9C1220.3 83.2 1222 82.5 1224.7 81.7L1228.4 85.3L1229.3 83.9L1250.4 86.1C1265.5 82.5 1278.7 77.2 1302.7 75.8C1296.7 78.4 1301.4 80.1 1301.1 83.2C1294.6 79.9 1282.5 84.6 1270.1 83.9C1276.6 84.2 1275.2 85.7 1273.5 86.2L1295.7 83.2C1295.2 85.7 1300.4 85.1 1306.2 86.1C1301.8 81.1 1322.7 82.8 1331.8 81.2C1332.4 82.9 1330.2 84.6 1319.2 84.2C1331.3 88 1334.9 78.3 1346.8 81.5C1344.1 81.5 1342.7 81.3 1341.6 82.1C1347.9 80.6 1363.2 81.8 1359.6 83.3H1356.9C1374.7 83.9 1411.2 83.3 1413.9 79.1C1414.1 79.6 1411.6 84.2 1410.5 85.1L1442.3 70.8C1439.5 74.5 1450.3 83.2 1435.5 85.2C1439.7 85.7 1445 86.3 1454 85C1451.1 84.5 1446.8 79.7 1450.7 79.4C1461.6 83.5 1458.2 81.6 1471.6 85C1467.3 84.2 1472.1 78.5 1478.9 78.7C1477.8 79.6 1479.5 84.4 1477 84.9L1494.1 79.3C1489.8 80.3 1493.3 84.1 1497.2 85.7C1495.4 84.6 1512 85.8 1516.5 85.2L1509.3 83.9C1528.6 84.7 1528.4 76 1547.5 76.3C1545.2 77.5 1541.8 83.4 1551.5 84.2C1556 81.3 1571.3 70.3 1588.2 68.1L1591.4 69.7L1604.4 67.8C1596.3 72.1 1573.6 81.3 1561.2 84.8C1568.4 86.1 1563.2 86.7 1574 86.6C1577.8 88.1 1568.1 88.9 1564.9 89L1590.1 90C1589 86.6 1609.4 86.6 1608.4 83.8L1581.1 87.3C1580 83.9 1596.9 77.8 1614.7 78.4C1619.2 79.7 1611.3 84.4 1611.7 85.5C1614 84.3 1628.6 83.3 1630.3 84.1L1622.7 85.9C1632.6 87.2 1638.9 81.4 1650.8 84.7C1654.9 84.9 1663.1 89 1663.8 87C1657.1 83.2 1655.8 71.3 1660.2 68.4C1661.6 68.7 1681.8 72.1 1686.5 74C1693.3 77 1676.3 81.2 1682.1 83.8C1682.3 82.9 1686.1 81.7 1687.7 81.4C1692 82.2 1685.9 84.2 1695.3 83.8C1696.9 80.4 1714.4 84.1 1699.7 80.9C1708.9 79.9 1709.5 81.6 1720.3 81.5C1716.9 79.3 1730 74 1739.2 73C1738.7 73.9 1740.7 75 1741.7 75.5C1760.5 75.8 1770.7 77.4 1788.2 77.4C1789.8 78.2 1798.3 79.2 1794.7 80.7C1797.2 80.1 1799.5 78.9 1805 78.9C1815.5 81.8 1792.9 79.4 1800.9 82.9C1801.6 80.9 1814.9 80.2 1822.6 78.9C1820.2 75.8 1804.8 78.3 1797 79.5C1797 75.3 1810.4 70.9 1828.8 68.9C1843.4 67.9 1835.1 71.6 1837.7 71C1865.1 71.7 1861.1 63.6 1883.8 66.7C1892.8 69.4 1884.2 72 1886.2 74C1874.3 75 1867.9 72.3 1859.9 72.4L1869.8 73.7C1866 74.6 1858.1 75.3 1853.8 74.5C1861.4 76.9 1900.1 75 1921.3 77.2C1925.1 76.3 1931.5 75.4 1928.5 74.3L1921.8 74.7C1915.6 72.5 1934.4 71.7 1925.9 70.7C1934.9 69.2 1944.9 66.8 1957.6 68L1960 71.1C1959.7 70.2 1951.7 69.3 1948.2 70.2C1953.5 68.8 1967.6 74.3 1973.4 70.3L1964.5 68.2C1973.5 66.7 1984.7 63.4 1995.9 64.4C1990.8 61.4 1993.3 64.7 1985.4 61.2C1992.3 65.6 1956.7 61 1967.8 65.6C1959.6 61.5 1953.7 63.9 1943 60.4C1943.3 61.4 1946.8 62.3 1937.4 61.8C1937 62.1 1936 62.5 1935.3 62.7C1935 62.7 1934.9 62.7 1934.7 62.6C1934.9 62.6 1935 62.7 1935.2 62.7C1934.8 62.9 1934.8 62.9 1935.4 62.7C1937.6 63.1 1939.5 63.7 1940.2 64.2C1935.5 66.5 1920.6 66.4 1915.5 67.6C1909.9 67.1 1917.8 66.4 1914.8 65.4L1907.2 67.2C1906.5 65 1892.4 63.5 1905.5 62.2L1893.7 62.1C1886.7 60.8 1877.2 60.3 1871.2 61.3C1865.6 60.8 1857.1 63.8 1862 62L1843.4 63.4L1843.2 62.8C1824.9 62.5 1805.5 66.5 1784.6 62.5C1778.4 63.1 1772.1 63.8 1761.8 63.1L1759.8 61.2C1751.9 61.9 1736 59.3 1732.6 61.3C1724.1 56.1 1694.2 60.2 1680.3 59.2L1679.8 61.7C1670.2 61.6 1661 62.3 1649.1 63.3L1649.8 65.5C1639.5 67.3 1623.4 63.9 1607.2 64.1C1608.3 63.2 1612.4 63.5 1615.3 64C1595.9 58.9 1574.4 67.7 1556.8 64C1552.4 64.8 1549.2 64.5 1546.2 64C1546.6 64 1547 64 1547.3 63.9C1546.9 63.9 1546.2 63.9 1545.5 63.9C1543.6 63.5 1541.6 63.1 1539.4 62.7C1541.2 63.2 1543 63.7 1544.5 63.9C1541.1 63.9 1536 64.2 1531 64.8L1528.9 62.4C1528.5 62.4 1528.2 62.4 1527.7 62.5C1522.8 61.6 1523.7 63.6 1526.4 65.5C1523.9 65.9 1521.6 66.4 1519.8 67C1515.8 63.1 1506.6 68.3 1501.2 64.2C1497.8 66.2 1476 65.7 1473.3 70C1473.1 69.4 1471.6 69.2 1474.4 69.1C1468.8 68.6 1463.2 68.1 1458.2 69.3L1455.8 66.2L1443.6 70.3C1436.2 68.4 1433.1 67.4 1440.5 65C1422.7 68.6 1426.1 66.4 1410.9 70L1411.6 68C1406.2 68.1 1397.5 70.7 1394.3 69.1C1382.2 65.3 1334.4 68.6 1303.3 65.1C1309.3 70.9 1288.9 62.5 1287.6 67C1285.8 65.6 1281.5 64.8 1286.5 63.6C1270.6 65 1262.7 61.4 1251.7 65.2C1249.9 63.8 1255.1 63.2 1253.5 62.4C1252.2 62.7 1248.5 63.6 1246.8 62.8C1245.2 62 1249.1 61.6 1251.6 61C1235.4 61.2 1233.8 65.5 1232.6 69.5C1224.4 67.6 1220.3 67.9 1214.4 70.5C1211.5 69.2 1206.8 67.8 1216.8 67.4C1211.1 67.2 1182.2 65.5 1181.6 68.7C1179.8 67.9 1173.7 68.5 1172.2 68.8C1159.5 68.6 1158.4 68.3 1145.9 68.6L1149.4 69.1C1144.5 73 1139 70 1129 70.4L1129.3 70C1106.2 67.2 1119.3 71.3 1096.6 68.2L1097.8 70.6C1095.7 75.8 1077.6 67.6 1064.4 69.5L1069.2 70.9C1062 72.7 1049 63.9 1041.8 63.2C1040.2 62.8 1044.3 62.5 1046.5 62.1C1027.5 59.1 1044 65.2 1029.9 66C1027.3 64.3 1033.3 61.7 1023.7 61.4C1019 60 996.1 66.9 983.1 63.7C986 65 988.8 66.3 982.2 67.3C972.1 67.8 955 62.4 945.9 66.5C944.6 66.1 944.1 65.8 944.1 65.5C936.4 66.6 919.1 67.3 914.5 69.5C907.4 61.2 866.7 73.5 866.9 65.9L843.2 66.3L843.8 65.5C828.7 65 823.3 66.8 818 68.7C814.5 68.2 817.1 67.5 817.3 67.1C795.2 65.6 793 65.9 774.5 69.7L772.6 67.2C767.6 68.6 740.7 63.3 719 66.2C719.2 65.9 719.7 65.4 721.4 65.1C697 68 663 58.2 654.1 67.3L638 69.5C658.8 70.2 634.9 73.4 643.5 74.9C635.3 75.4 622.3 72.2 632.4 71.7L634 72.2C637.7 67.5 608.1 70.5 608.7 67.3C567.7 67.5 527.8 64.9 489.5 64.7L493.9 68.4L480.5 68.2C477 67.3 475.8 65.3 485.3 65.5C480.3 63.4 469.3 67.2 469 68C450.3 66.5 476.3 63.7 470.6 63.6L462.8 63.9L464.6 64.3C458.3 65.8 457.7 67.4 446.3 67.2C439 66.5 442.6 64.9 439.7 64.8C439.7 64.5 438.8 64.4 435.3 64.7L418.4 64.4L425.1 67.3C417.6 68.7 409.2 67.1 417 70.4C405.6 65.4 354.1 68.6 347.1 67C336.6 69.1 326.3 69.1 313.5 68.8C316.7 69.4 318.6 72.6 307.5 72.3C311.5 65.6 287.3 69.4 278.4 64.6C286.4 67.8 247 65.4 259.5 69.9C250.3 69.4 258.9 67.4 252 65.8C230.1 68.4 203.7 64.1 176.6 65C176.2 65.9 180.7 67.2 174.9 68.5L160.6 64.1C155.2 64.5 155.7 69.2 145.9 66.1C147.3 66.8 149.3 68 145.8 68.2C92.7001 63.9 37.3001 71.7 -16.5999 63.7C-9.29995 65.4 -14.2 65.6 -19.7 65.6C-16 66 -19.7 67.8 -19 69L-41.5999 65.7C-45.6999 69 -65.8 65.9 -68.2 69.1L-61.1 68.5C-70.6 72.2 -47.8 76.8 -49.2 81.6C-38.6 77.4 -21.1 87.9 -3.69995 81.8C0.200049 82.8 -6.99995 83.3 -4.89995 84.5C-0.499952 82.4 4.90005 82 14.8 82.9L13.7 83.4C41.5 82.9 53.5 84.9 84.7 86.3L82.4 83.9C89.1 84.2 90.5 85 93.7 85.6C101.4 82 74.8 85.4 81.9 81.4C90.8 86.2 129.3 81.5 135.3 86.9C145.6 86.9 132.3 84.2 142.6 84.2L145.3 85.7L147.9 83.8C154.7 84.1 158.1 86 158.3 87.2C156.7 87.1 153.6 87.6 151.9 87.7C160.7 89.4 176.7 87.1 179.7 87.7L169.8 86.8C198 85.4 232.4 87.4 259.7 84.3L257.6 83.2C278.4 81.1 274.3 84.4 297.1 83.5L296.3 83.8C300.9 82.7 307 82.1 313.2 82.3C307.4 83.6 324.1 84.8 316.5 86.3C339.1 84.1 327.7 84.6 342.6 80.4L346 82.3C351.1 80.6 351.5 79.7 362.9 79.3C353.5 80.9 370.2 82.1 359.7 84.2C383.6 88.3 395.3 80.1 406.2 86C417.2 80.9 385.5 83.2 391.6 82.1C386.4 80.4 400.7 78.3 408.2 78.8C415.8 78.9 421.2 85.4 440.4 85.3C438.5 85.3 438.4 85.7 436.4 85.6C443.6 86.9 450.5 83.8 459.3 86C464.3 82.9 470.8 86.2 472.2 82.2L454.5 83.1C464.5 82.1 473.9 77.4 490.4 79.7C489.1 80.5 484.2 81.5 480.8 82.1C485.6 83.3 490.1 81.3 495.1 82.5C493.7 86.5 473.7 83.4 462.9 86.4C468.1 88.1 483.2 83.5 477.8 87.8C485.5 82.3 496.8 88.5 509.8 84.3L508.9 86.7C511 86.3 515.2 85.2 519 85.3L512.1 88.4C522.6 85.8 532.4 90.7 542.6 89.3C521.4 89.4 537.8 86.4 528.9 84.7C555 81.5 543.9 90.9 573.2 89.8C569.2 90.1 558.3 88.4 564.5 87.3C570.1 87.8 577.4 88.7 580.8 89.9C600.2 89.4 577.8 87.5 586.1 86C592.7 88.9 595.6 84.8 604.1 83.9L604.2 86.3C626.3 87.8 610.1 81.3 629.9 83.1L621.5 86.4L631.9 85.5L629.8 88.2C641.1 86.2 644.6 86.7 655.6 87.5C653 85.8 657 83.1 666.8 83C673.5 84.4 663.1 85.3 676.9 84.9C673.8 86.4 670.3 88.3 664.3 86.1C663.7 86.9 661.2 87.6 660.6 88.4C667.8 90 678.7 88.8 683.7 88.8C681.8 88.7 679.5 88.6 678.3 88.2L698.4 84.9C701.6 85.8 699.1 86.5 696.6 87.2C700.7 86.9 703.5 85.8 709.5 85.6C708 87.6 708.3 89.6 699.8 90.5L719 88.3C720.3 89.2 728.8 90.6 726.3 91.4C736.9 92.6 752.3 87.6 766.4 89.1C767.1 88.7 768.6 88.4 771.6 88.1C784.8 88.5 796.6 90.9 812.2 88.3L821.1 91.8C833.4 91 809.1 87.4 829.5 86C844 84.9 834.9 89 840 90C847.2 88.2 859.7 84.6 873 87.5C869 88.1 865.6 87.6 861.5 87.8ZM1012.9 86.3C1010 86.8 1004.1 88.4 1002 86.9C1005.4 84.1 1007.9 85.5 1012.9 86.3ZM1243.2 80.5C1241 81.3 1237.6 80.9 1233.8 80C1236.6 79.7 1239.7 79.8 1243.2 80.5ZM1884.6 63.7C1884.5 63.7 1884.4 63.8 1884.3 63.8C1877.8 62.8 1880.1 63.2 1884.6 63.7ZM1898.2 64.7C1899.6 64.4 1899.5 64 1898.9 63.7C1898 64.3 1894.9 64.4 1891.4 64.2C1892.4 64.8 1894.2 65.2 1898.2 64.7ZM438.3 65.7L440.9 66.3C434.9 67 436.6 66.4 438.3 65.7Z" fill="#FBBE36"/>
<path d="M1217.1 83.8C1216.3 83.4 1216 82.9 1215.8 82.5C1214.7 82.8 1214.7 83.3 1217.1 83.8Z" fill="#FBBE36"/>
<path d="M767.3 89.1C767.1 89.1 767 89.1 766.8 89.1C766.5 89.2 766.4 89.4 766.3 89.5L767.3 89.1Z" fill="#FBBE36"/>
<path d="M1687.6 85.2C1684.8 84.9 1683.2 84.4 1682.2 84C1682.1 84.5 1683.4 85 1687.6 85.2Z" fill="#FBBE36"/>
<path d="M1915.5 63.4C1918.4 63.9 1917.3 60.8 1919 61.6C1922.2 59 1899.6 64.7 1915.5 63.4Z" fill="#FBBE36"/>
<path d="M1830.3 73L1819.7 73.7C1818.6 74.6 1821.5 75.1 1825.5 74.7C1828 74.1 1832 73.8 1830.3 73Z" fill="#FBBE36"/>
<path d="M1862.5 79.8C1859.6 79.3 1859.4 78.7 1857.8 77.9L1857.5 81L1862.5 79.8Z" fill="#FBBE36"/>
<path d="M1831.5 80.6C1830.4 81.5 1816.1 83.1 1829.5 82.9C1830.6 82 1841.3 81.3 1831.5 80.6Z" fill="#FBBE36"/>
<path d="M1671.2 76.6H1673.9L1673.5 71.5L1671.2 76.6Z" fill="#FBBE36"/>
<path d="M1529.9 88.8C1542.5 90 1532.9 85.7 1544.3 87.2C1547.3 86 1535 86 1538 84.9C1530.4 86.2 1526.4 85.5 1529.9 88.8Z" fill="#FBBE36"/>
<path d="M1538 84.9C1539.2 84.7 1540.5 84.5 1541.9 84.1C1539.7 84.5 1538.7 84.7 1538 84.9Z" fill="#FBBE36"/>
<path d="M1035.5 92.8L1036.1 92C1034.8 91.2 1032.9 91.1 1029.1 91L1035.5 92.8Z" fill="#FBBE36"/>
<path d="M925.5 90.4H927.4L923.9 87.5L925.5 90.4Z" fill="#FBBE36"/>
<path d="M833.3 94.1C837.1 94.2 841.5 93.6 845.3 93.7C837 94.2 832.2 90.5 833.3 94.1Z" fill="#FBBE36"/>
</g>
<defs>
<clipPath id="clip0_269_1381">
<rect width="1916" height="167" fill="white"/>
</clipPath>
</defs>
</svg>
