<svg width="512" height="512" viewBox="0 0 512 512" fill="none" xmlns="http://www.w3.org/2000/svg">
<path d="M424.802 221.411V445.996H10V143.206H424.802" fill="#FFB655"/>
<path d="M176.015 300.727L10 445.996H424.802L258.862 300.794" fill="#FFD422"/>
<path d="M133.667 252.34L182.075 300.85C201.781 320.598 233.588 321.185 254.009 302.177L424.802 143.206H10L59.979 187.311" fill="#FF5023"/>
<path d="M424.802 220.404C467.437 220.404 502 185.841 502 143.206C502 100.571 467.437 66.0081 424.802 66.0081C382.166 66.0081 347.604 100.571 347.604 143.206C347.604 185.841 382.166 220.404 424.802 220.404Z" fill="#7ED63E"/>
<path d="M512 143.206C512 95.122 472.883 56.0031 424.802 56.0031C380.102 56.0031 343.149 89.814 338.174 133.206H10C9.923 133.206 0 132.375 0 143.24V445.926C0 455.687 9.922 455.996 10 455.996H424.802C424.88 455.996 434.802 455.996 434.802 445.926V229.839C478.191 224.862 512 187.908 512 143.206ZM368.235 209.519C381.084 220.497 397.15 227.814 414.802 229.839V423.959L272.051 299.046L368.235 209.519ZM424.802 76.0031C461.856 76.0031 492 106.15 492 143.206C492 180.262 461.855 210.409 424.802 210.409C387.748 210.409 357.604 180.262 357.604 143.206C357.603 106.15 387.748 76.0031 424.802 76.0031ZM338.173 153.206C339.948 168.684 345.791 182.942 354.604 194.883L247.195 294.858C230.634 310.274 205.137 309.804 189.152 293.787L140.745 245.277C136.845 241.367 130.514 241.361 126.603 245.262C122.694 249.163 122.687 255.495 126.588 259.404L164.563 297.46L20 423.959V165.369L53.361 194.81C55.262 196.488 57.624 197.312 59.974 197.312C62.743 197.312 65.499 196.169 67.476 193.929C71.13 189.788 70.736 183.469 66.595 179.814L36.444 153.207H338.173V153.206ZM36.613 435.997L178.886 311.502C190.387 321.25 204.544 326.148 218.722 326.148C232.301 326.148 245.898 321.654 257.197 312.626L398.188 435.998H36.613V435.997Z" fill="black"/>
<path d="M419.033 126.8L416.421 128.422C415.61 128.962 414.799 129.142 414.169 129.142C411.557 129.142 409.754 126.349 409.754 123.556C409.754 121.664 410.565 119.862 412.366 118.781L424.259 111.573C424.979 111.123 425.88 110.942 426.871 110.942C429.754 110.942 433.086 112.654 433.086 115.357V172.658C433.086 175.541 429.573 176.983 426.059 176.983C422.545 176.983 419.032 175.542 419.032 172.658V126.8H419.033Z" fill="black"/>
<path d="M95.4297 228.7C94.7807 228.7 94.1297 228.63 93.4797 228.5C92.8397 228.38 92.2097 228.18 91.6097 227.93C91.0097 227.68 90.4297 227.37 89.8807 227.01C89.3407 226.65 88.8197 226.23 88.3597 225.77C86.5007 223.91 85.4297 221.33 85.4297 218.7C85.4297 218.05 85.4997 217.39 85.6297 216.75C85.7597 216.11 85.9497 215.48 86.1997 214.87C86.4497 214.27 86.7597 213.69 87.1197 213.15C87.4787 212.6 87.8987 212.09 88.3587 211.63C88.8187 211.17 89.3387 210.75 89.8797 210.39C90.4297 210.02 91.0097 209.72 91.6087 209.47C92.2097 209.22 92.8387 209.02 93.4787 208.9C94.7687 208.64 96.0987 208.64 97.3887 208.9C98.0297 209.02 98.6597 209.22 99.2587 209.47C99.8587 209.72 100.439 210.02 100.979 210.39C101.53 210.75 102.04 211.17 102.5 211.63C102.96 212.09 103.38 212.6 103.75 213.15C104.109 213.69 104.42 214.27 104.67 214.87C104.92 215.48 105.109 216.11 105.24 216.75C105.37 217.39 105.43 218.05 105.43 218.7C105.43 221.33 104.36 223.91 102.5 225.77C102.04 226.23 101.53 226.65 100.979 227.01C100.439 227.37 99.8587 227.68 99.2587 227.93C98.6587 228.18 98.0287 228.38 97.3887 228.5C96.7397 228.63 96.0897 228.7 95.4297 228.7Z" fill="black"/>
</svg>
