<svg width="512" height="512" viewBox="0 0 512 512" fill="none" xmlns="http://www.w3.org/2000/svg">
<path fill-rule="evenodd" clip-rule="evenodd" d="M222.001 41.5C340.456 41.5 436.502 137.517 436.502 256C436.502 374.455 340.456 470.5 222.001 470.5C103.517 470.5 7.5 374.455 7.5 256C7.5 137.517 103.517 41.5 222.001 41.5Z" fill="#FFB655"/>
<path fill-rule="evenodd" clip-rule="evenodd" d="M186.294 44.461C285.187 63.539 359.905 150.586 359.905 255.06C359.905 361.356 282.567 449.599 181.083 466.599C194.324 469.162 208.02 470.5 222.001 470.5C340.456 470.5 436.502 374.455 436.502 256C436.502 137.517 340.456 41.5 222.001 41.5C209.842 41.5 197.911 42.497 186.294 44.461V44.461Z" fill="#FFA733"/>
<path fill-rule="evenodd" clip-rule="evenodd" d="M133.814 275.021C143.723 309.76 161.691 341.481 181.623 361.242C194.835 374.34 216.163 386.983 237.775 389.29C249.45 390.543 263.374 388.891 273.796 384.193C301.701 371.607 287.863 353.241 275.077 334.732C260.384 312.066 252.069 306.77 233.988 310.585C225.673 314.999 207.763 299.138 198.053 275.817C196.031 270.976 194.237 265.851 192.7 260.64C191.162 255.401 189.909 250.133 189.027 245.036C184.699 220.377 191.533 198.48 201.129 198.508C218.869 193.553 223.197 185.182 223.539 158.843C224.45 137.715 225.703 114.793 195.349 116.587C183.76 117.27 170.775 122.197 161.35 128.603C143.895 140.448 132.334 161.15 128.063 178.519C121.599 204.746 123.393 240.424 133.814 275.021Z" fill="#FF5023"/>
<path fill-rule="evenodd" clip-rule="evenodd" d="M206.226 160.268C206.027 175.331 195.804 174.534 188.685 179.403C175.644 188.316 163.143 207.735 171.999 258.193C175.017 275.306 200.189 334.648 231.141 330.348C250.447 325.536 253.351 338.093 258.078 345.24C270.408 363.122 274.48 373.686 259.587 388.436C264.656 387.525 269.525 386.13 273.796 384.193C301.701 371.607 287.863 353.241 275.077 334.732C260.384 312.066 252.069 306.77 233.988 310.585C225.673 314.999 207.763 299.138 198.053 275.817C196.031 270.976 194.237 265.851 192.7 260.64C191.162 255.401 189.909 250.133 189.027 245.036C184.699 220.377 191.533 198.48 201.129 198.508C218.869 193.553 223.197 185.182 223.539 158.843C224.45 137.715 225.703 114.793 195.349 116.587C187.348 117.043 178.72 119.548 171.031 123.136C173.48 122.652 175.929 122.339 178.321 122.196C208.675 120.403 207.137 139.14 206.226 160.268V160.268Z" fill="#FF3501"/>
<path fill-rule="evenodd" clip-rule="evenodd" d="M271.576 138.94C271.576 170.205 289.287 198.025 316.794 215.793H316.766L312.068 255.117V256.882C312.068 258.961 313.52 261.153 316.709 258.391C317.905 257.337 318.104 257.11 320.382 255.088L351.277 231.141C358.538 233.163 366.141 234.615 373.971 235.384C378.584 235.868 383.282 236.096 388.038 236.096C452.363 236.096 504.5 192.615 504.5 138.94C504.5 85.294 452.363 41.784 388.038 41.784C383.283 41.784 378.584 42.04 373.971 42.496C316.281 48.277 271.576 89.252 271.576 138.94V138.94Z" fill="#FFD422"/>
<path fill-rule="evenodd" clip-rule="evenodd" d="M363.692 43.92C425.226 46.511 474.174 88.967 474.174 140.933C474.174 170.803 458.029 197.484 432.658 215.309C418.335 225.389 401.051 232.593 382.058 235.982C384.023 236.067 386.016 236.096 388.038 236.096C404.639 236.096 420.414 233.192 434.68 227.981C475.769 212.975 504.5 178.748 504.5 138.941C504.5 85.295 452.363 41.785 388.038 41.785C383.283 41.785 378.584 42.041 373.971 42.497C370.497 42.838 367.08 43.322 363.692 43.92V43.92Z" fill="#EEBF00"/>
<path d="M442.881 123.945H341.624C337.481 123.945 334.124 120.587 334.124 116.445C334.124 112.303 337.481 108.945 341.624 108.945H442.881C447.024 108.945 450.381 112.303 450.381 116.445C450.381 120.587 447.023 123.945 442.881 123.945Z" fill="#FFB655"/>
<path d="M442.881 163.554H341.624C337.481 163.554 334.124 160.196 334.124 156.054C334.124 151.912 337.481 148.554 341.624 148.554H442.881C447.024 148.554 450.381 151.912 450.381 156.054C450.381 160.196 447.023 163.554 442.881 163.554Z" fill="#FFB655"/>
<path d="M201.379 206.005C201.976 205.985 202.57 205.894 203.146 205.733C226.398 199.239 230.681 185.501 231.036 159.056L231.055 158.624C231.689 143.949 232.409 127.317 222.077 117.148C215.938 111.106 206.795 108.395 194.907 109.101C182.61 109.826 168.136 114.922 157.138 122.398C136.785 136.211 125.012 159.521 120.78 176.726C113.905 204.618 116.087 242.146 126.616 277.13C136.625 312.187 155.212 345.619 176.343 366.569C189.299 379.413 212.032 394.086 236.975 396.747C239.749 397.045 242.595 397.19 245.462 397.19C256.614 397.19 268.088 394.993 276.88 391.03C287.967 386.03 294.452 379.649 296.707 371.523C300.418 358.148 291.248 344.91 282.381 332.106L281.31 330.557C266.761 308.137 255.718 298.335 232.44 303.246C231.849 303.371 231.275 303.566 230.732 303.829C230.721 303.829 230.71 303.829 230.699 303.829C226.816 303.829 213.5 293.404 204.974 272.927C203.102 268.446 201.393 263.597 199.897 258.529C198.405 253.444 197.234 248.474 196.415 243.74C192.738 222.793 198.216 207.822 201.379 206.005V206.005ZM189.152 197.091C181.155 206.584 178.136 226.373 181.637 246.316C182.551 251.593 183.851 257.123 185.507 262.765C187.16 268.364 189.053 273.728 191.13 278.701C199.033 297.683 212.414 313.329 224.427 317.634C229.666 319.511 233.662 318.865 236.343 317.758C248.627 315.268 254.485 316.753 268.786 338.812C268.825 338.874 268.866 338.935 268.908 338.995L270.052 340.647C276.952 350.609 284.087 360.911 282.255 367.513C281.278 371.031 277.396 374.343 270.716 377.356C261.956 381.305 249.639 383.02 238.573 381.833C217.46 379.58 197.544 366.464 186.905 355.917C167.509 336.687 150.359 305.677 141.028 272.964C141.018 272.928 141.007 272.893 140.997 272.858C131.196 240.32 129.083 205.725 135.347 180.312C138.75 166.471 148.706 146.249 165.567 134.807C174.325 128.854 186.189 124.641 195.792 124.075C196.76 124.018 197.691 123.99 198.586 123.99C204.601 123.99 208.957 125.281 211.556 127.839C217.136 133.331 216.594 145.86 216.07 157.977L216.047 158.522C216.044 158.597 216.042 158.672 216.041 158.748C215.714 183.947 211.805 187.64 199.903 191.063C196.863 191.328 192.865 192.684 189.152 197.091V197.091Z" fill="black"/>
<path d="M442.881 108.945H341.624C337.481 108.945 334.124 112.303 334.124 116.445C334.124 120.587 337.481 123.945 341.624 123.945H442.881C447.024 123.945 450.381 120.587 450.381 116.445C450.381 112.303 447.023 108.945 442.881 108.945Z" fill="black"/>
<path d="M442.881 148.554H341.624C337.481 148.554 334.124 151.912 334.124 156.054C334.124 160.196 337.481 163.554 341.624 163.554H442.881C447.024 163.554 450.381 160.196 450.381 156.054C450.381 151.912 447.023 148.554 442.881 148.554Z" fill="black"/>
<path d="M512 138.94C512 117.437 504.348 96.793 489.87 79.24C487.234 76.044 482.507 75.591 479.311 78.226C476.116 80.861 475.662 85.588 478.297 88.784C490.533 103.619 497 120.962 497 138.94C497 188.377 448.12 228.596 388.038 228.596C376.137 228.596 364.445 227.021 353.288 223.916C351.008 223.281 348.558 223.761 346.683 225.213L320.796 245.277L324.136 217.326C324.767 214.311 323.486 211.186 320.864 209.493C294.307 192.338 279.077 166.622 279.077 138.939C279.077 89.502 327.957 49.283 388.039 49.283C412.703 49.283 435.978 55.916 455.348 68.466C458.822 70.718 463.468 69.726 465.72 66.25C467.973 62.773 466.981 58.13 463.504 55.877C441.7 41.75 415.605 34.283 388.039 34.283C360.774 34.283 335.543 41.759 315.053 54.402C285.822 40.875 254.543 34 222.001 34C162.027 34 105.844 57.528 63.802 100.25C60.897 103.203 60.935 107.951 63.887 110.856C65.348 112.294 67.248 113.01 69.147 113.01C71.086 113.01 73.025 112.262 74.493 110.771C113.693 70.938 166.079 49 222.001 49C249.455 49 275.941 54.238 300.913 64.57C278.183 83.552 264.076 109.88 264.076 138.94C264.076 170.387 280.305 199.489 308.777 219.438L304.62 254.228C304.585 254.523 304.567 254.82 304.567 255.118V256.884C304.567 261.133 306.742 264.765 310.243 266.365C311.014 266.717 312.356 267.182 314.069 267.182C316.168 267.182 318.823 266.483 321.665 264.021C322.242 263.513 322.603 263.184 323.048 262.778C323.514 262.353 324.08 261.836 325.174 260.864L352.946 239.338C364.29 242.165 376.076 243.597 388.038 243.597C402.087 243.597 415.595 241.61 428.195 237.958C428.715 243.968 429.002 250.005 429.002 256.001C429.002 370.141 336.142 463.001 222.001 463.001C107.86 463.001 15 370.14 15 256C15 212.662 28.235 171.177 53.274 136.031C55.677 132.657 54.891 127.974 51.517 125.571C48.144 123.167 43.461 123.954 41.057 127.328C14.197 165.029 0 209.523 0 256C0 315.296 23.09 371.044 65.016 412.974C106.945 454.907 162.697 478 222.001 478C344.413 478 444.002 378.411 444.002 256C444.002 248.293 443.59 240.52 442.789 232.816C483.756 215.717 512 180.064 512 138.94V138.94Z" fill="black"/>
</svg>
