<svg width="512" height="512" viewBox="0 0 512 512" fill="none" xmlns="http://www.w3.org/2000/svg">
<path d="M429.708 337.156H309.088C292.927 362.724 275.197 387.266 256 410.64C236.802 387.266 219.072 362.724 202.912 337.156H82.2916L25.2236 486.776H486.776L429.708 337.156Z" fill="#FFB655"/>
<path d="M255.999 25.24C223.421 25.2411 192.176 38.1834 169.14 61.2202C146.103 84.2569 133.16 115.501 133.159 148.08C132.439 265.28 255.999 410.64 255.999 410.64C255.999 410.64 379.559 265.28 378.839 148.08C378.838 115.501 365.896 84.2569 342.859 61.2202C319.822 38.1834 288.578 25.2411 255.999 25.24ZM255.999 200.2C245.691 200.2 235.614 197.143 227.043 191.416C218.472 185.689 211.792 177.549 207.847 168.025C203.902 158.502 202.87 148.022 204.881 137.912C206.892 127.802 211.856 118.515 219.145 111.226C226.434 103.936 235.721 98.9725 245.831 96.9615C255.942 94.9504 266.421 95.9826 275.945 99.9274C285.469 103.872 293.609 110.553 299.336 119.124C305.063 127.695 308.119 137.772 308.119 148.08C308.122 154.925 306.776 161.704 304.157 168.029C301.539 174.353 297.7 180.1 292.86 184.94C288.019 189.781 282.273 193.62 275.948 196.238C269.623 198.856 262.845 200.203 255.999 200.2Z" fill="#FF5023"/>
<path d="M442.96 371.84L212.64 453.76L122.88 337.16H202.92C219.076 362.728 236.804 387.268 256 410.64C275.196 387.268 292.924 362.728 309.08 337.16H429.72L442.96 371.84Z" fill="#FFD422"/>
<path d="M119.84 486.776L347.824 405.68L410.24 486.776H119.84Z" fill="#7ED63E"/>
<path d="M354.948 87.784C355.923 89.3517 357.478 90.4706 359.275 90.8969C361.071 91.3232 362.963 91.0225 364.539 90.0603C366.115 89.098 367.247 87.5521 367.688 85.7593C368.13 83.9664 367.845 82.0718 366.896 80.488C363.227 74.4888 359.08 68.7957 354.496 63.464C353.276 62.0911 351.565 61.2525 349.733 61.1292C347.9 61.0059 346.093 61.6076 344.7 62.8047C343.307 64.0018 342.441 65.6983 342.287 67.5284C342.134 69.3585 342.706 71.1756 343.88 72.588C347.97 77.3484 351.672 82.4301 354.948 87.784V87.784Z" fill="black"/>
<path d="M196.892 148.084C196.893 159.774 200.361 171.201 206.857 180.92C213.353 190.64 222.585 198.214 233.385 202.687C244.186 207.159 256.071 208.329 267.536 206.047C279.001 203.766 289.532 198.136 297.798 189.869C306.064 181.602 311.692 171.07 313.972 159.604C316.252 148.139 315.081 136.255 310.608 125.455C306.134 114.654 298.557 105.423 288.837 98.929C279.117 92.4344 267.69 88.968 256 88.968C240.327 88.986 225.302 95.2203 214.221 106.303C203.14 117.386 196.907 132.412 196.892 148.084V148.084ZM301.108 148.084C301.106 157.005 298.459 165.726 293.502 173.143C288.544 180.559 281.499 186.34 273.256 189.753C265.014 193.166 255.944 194.058 247.195 192.316C238.445 190.575 230.408 186.278 224.101 179.969C217.793 173.661 213.498 165.623 211.758 156.873C210.018 148.123 210.912 139.054 214.326 130.812C217.74 122.57 223.522 115.526 230.94 110.57C238.358 105.613 247.078 102.968 256 102.968C267.96 102.981 279.428 107.738 287.885 116.197C296.341 124.655 301.097 136.123 301.108 148.084V148.084Z" fill="black"/>
<path d="M44.5476 436.108C45.406 436.438 46.321 436.594 47.2402 436.57C48.1594 436.545 49.0647 436.339 49.9041 435.964C50.7436 435.588 51.5007 435.051 52.1321 434.383C52.7635 433.714 53.2567 432.928 53.5836 432.068L59.9836 415.268C60.5976 413.545 60.5127 411.65 59.7469 409.988C58.9811 408.327 57.5954 407.031 55.8863 406.379C54.1772 405.726 52.2806 405.769 50.6025 406.497C48.9244 407.226 47.5981 408.582 46.9076 410.276L40.5076 427.076C40.1792 427.934 40.0232 428.849 40.0486 429.768C40.0739 430.686 40.2801 431.591 40.6553 432.43C41.0305 433.268 41.5674 434.025 42.2353 434.656C42.9031 435.287 43.6889 435.781 44.5476 436.108V436.108Z" fill="black"/>
<path d="M493.312 484.276L436.248 334.676C435.742 333.352 434.846 332.212 433.678 331.408C432.51 330.603 431.126 330.173 429.708 330.172H321.708C322.368 329.096 323.024 328.052 323.684 326.972C365.24 258.172 386.152 197.988 385.852 148.116C385.862 135.433 384.015 122.816 380.368 110.668C379.833 108.89 378.614 107.397 376.979 106.518C375.343 105.639 373.426 105.445 371.648 105.98C369.87 106.515 368.377 107.734 367.498 109.369C366.619 111.004 366.425 112.922 366.96 114.7C370.217 125.553 371.865 136.825 371.852 148.156C372.456 247.556 279.496 370.192 256 399.6C232.504 370.204 139.54 247.6 140.144 148.084C140.147 126.878 145.969 106.08 156.977 87.9553C167.984 69.8303 183.754 55.0734 202.569 45.2921C221.384 35.5109 242.522 31.0803 263.681 32.4832C284.84 33.886 305.209 41.0684 322.568 53.248C324.087 54.3158 325.968 54.7363 327.797 54.4172C329.627 54.098 331.254 53.0652 332.322 51.546C333.39 50.0269 333.81 48.1458 333.491 46.3165C333.172 44.4873 332.139 42.8598 330.62 41.792C311.166 28.1416 288.34 20.0904 264.628 18.5153C240.915 16.9403 217.224 21.9017 196.136 32.8593C175.048 43.8169 157.371 60.3505 145.03 80.6597C132.688 100.969 126.156 124.275 126.144 148.04C125.844 197.956 146.756 258.148 188.312 326.94C188.972 328.032 189.628 329.076 190.288 330.14H82.2878C80.8699 330.141 79.4856 330.571 78.3178 331.376C77.1501 332.18 76.2539 333.32 75.7478 334.644L59.3478 377.692C59.02 378.551 58.8646 379.466 58.8905 380.385C58.9163 381.304 59.1229 382.209 59.4984 383.048C60.2568 384.742 61.6573 386.066 63.3918 386.728C65.1263 387.39 67.0528 387.336 68.7474 386.577C70.4419 385.819 71.7658 384.419 72.4278 382.684L87.1238 344.14H119.444L201.2 450.4L118.628 479.768H35.3878L41.8598 462.788C42.4792 461.063 42.3972 459.163 41.6314 457.498C40.8655 455.833 39.477 454.534 37.7641 453.881C36.0511 453.229 34.1505 453.274 32.4706 454.007C30.7907 454.741 29.4655 456.104 28.7798 457.804L18.6878 484.28C18.2821 485.34 18.1404 486.482 18.2749 487.609C18.4094 488.736 18.8161 489.813 19.4599 490.747C20.1037 491.681 20.9653 492.445 21.9701 492.972C22.975 493.499 24.0931 493.774 25.2278 493.772H486.772C487.907 493.774 489.026 493.499 490.031 492.972C491.036 492.445 491.898 491.681 492.542 490.746C493.186 489.811 493.592 488.733 493.727 487.606C493.861 486.479 493.718 485.336 493.312 484.276V484.276ZM137.1 344.152H199.06C214.844 368.827 232.074 392.547 250.66 415.188C251.317 415.961 252.134 416.581 253.055 417.007C253.975 417.432 254.978 417.653 255.992 417.653C257.006 417.653 258.008 417.432 258.929 417.007C259.849 416.581 260.667 415.961 261.324 415.188C279.909 392.547 297.139 368.827 312.924 344.152H424.872L433.832 367.652L215.076 445.468L137.1 344.152ZM214.832 460.4H214.872L345.38 414L396 479.772H160.4L214.832 460.4ZM413.684 479.76L359.248 409.044L438.848 380.736L476.62 479.772L413.684 479.76Z" fill="black"/>
</svg>
