<svg width="1916" height="167" viewBox="0 0 1916 167" fill="none" xmlns="http://www.w3.org/2000/svg">
<g clip-path="url(#clip0_269_1470)">
<path d="M1916 0H0V167H1916V0Z" fill="#FBF7ED"/>
<path d="M1916 0H-4V85H1916V0Z" fill="white"/>
<path d="M935.7 102.2L931.4 102.8C933.5 102.6 934.8 102.4 935.7 102.2Z" fill="#FBF7ED"/>
<path d="M966.8 102.3L967.6 101.3C966.1 101.9 965.5 102.3 966.8 102.3Z" fill="#FBF7ED"/>
<path d="M1539.6 77.9C1533.4 76.1 1526.4 73.2 1527.1 75.4L1529 77.6C1533.4 77.2 1536.8 77.4 1539.6 77.9Z" fill="#FBF7ED"/>
<path d="M1220.9 90.8C1221.5 91 1222.1 91.2 1222.7 91.5C1224.2 90.8 1225.6 90.1 1226.9 89.4C1225.1 89.8 1223.1 90.3 1220.9 90.8Z" fill="#FBF7ED"/>
<path d="M1216.5 99.8L1208.3 98.4C1210.1 98.9 1212.8 99.3 1216.5 99.8Z" fill="#FBF7ED"/>
<path d="M766.3 104.5L761.3 106.7C769.2 106.7 765.7 105.6 766.3 104.5Z" fill="#FBF7ED"/>
<path d="M1810.9 78.4C1805.5 77.6 1801.2 77.2 1797.5 77.1C1803.9 78.4 1809.2 80.2 1810.9 78.4Z" fill="#FBF7ED"/>
<path d="M947.9 79.2C945.3 79.6 944.2 80 944.2 80.5C947 80.1 948.5 79.7 947.9 79.2Z" fill="#FBF7ED"/>
<path d="M1781.9 77.1C1782.8 77.3 1783.8 77.4 1784.7 77.6C1788.6 77.2 1792.6 76.9 1797.4 77.1C1792.6 76.2 1787.2 75.6 1781.9 77.1Z" fill="#FBF7ED"/>
<path d="M152 102.7C151.6 102.6 151 102.6 150.6 102.4C150.5 102.7 151.1 102.7 152 102.7Z" fill="#FBF7ED"/>
<path d="M1741.9 90.6C1741.8 90.6 1741.7 90.6 1741.6 90.6C1742.7 91.1 1742.5 91 1741.9 90.6Z" fill="#FBF7ED"/>
<path d="M481.2 96.9C480.9 96.8 480.6 96.8 480.3 96.7C476.3 97.6 478 97.4 481.2 96.9Z" fill="#FBF7ED"/>
<path d="M1435 100.4C1435.2 100.4 1435.3 100.3 1435.5 100.3C1435.3 100.3 1435.1 100.2 1434.9 100.2L1435 100.4Z" fill="#FBF7ED"/>
<path d="M1420.6 102C1426.7 99.3 1430.2 99.6 1434.9 100.2L1430.1 93.9L1420.6 102Z" fill="#FBF7ED"/>
<path d="M861.5 102.8L871.6 104.7C859.4 107.9 850.5 106.8 860 109.5C861.4 102.7 899.4 108.8 900.8 102L907.5 103.4C905.6 103.3 905.3 103.7 903.4 103.7C916.4 107 913.1 98.8 929.8 99.8C935.6 100.3 939.7 101.3 935.7 102.1L948.7 100.4C952.5 100.5 951.6 101.7 947.8 101.6L967.6 101.1L967.5 101.3C970.3 100.2 976.7 98.6 979.9 97.9C984.9 98.9 977.4 98.6 978.7 99.5L989.7 97.9C994.2 99.7 985.1 101.4 977.5 101.1C987.8 107.9 986.6 99.4 1008.7 103.4L998.3 104.3C1005 108.2 1013.1 106.8 1024.8 109.2C1022 107.9 1001.3 103.1 1013.2 101.5C1016.6 102 1021 102.3 1027.4 100.9C1027.5 103.3 1033.7 102.7 1041.6 102.6L1041.1 105.8C1049.6 104.9 1048.9 103.2 1053.9 101.8C1063.4 102.1 1065.3 104.6 1067.6 106.7C1082.8 107.2 1057.1 102.7 1075.1 102.1C1087.7 103.3 1096.6 102 1111.6 100.1C1120.4 101.2 1110.1 102.1 1113.2 103L1121 100.4C1122.9 100.5 1122.3 101.2 1122 101.6C1128.6 100.6 1122.5 98.4 1132.9 97.5C1135.7 94 1154.2 102.6 1167 98.6C1170.2 99.5 1165.5 100.6 1166.4 101.8C1184 99.2 1181.5 99.9 1195.9 96.4L1208.2 98.5C1199.2 96.1 1210.7 93.3 1220.8 90.9C1217.6 89.7 1214.9 88.7 1213 88.2L1229.1 86.5C1231.1 87 1229.4 88.1 1226.8 89.5C1227.9 89.2 1228.9 89 1229.8 88.7C1235.6 89.9 1232.6 91.7 1228.4 93.5C1226.4 92.9 1224.5 92.2 1222.6 91.5C1218.6 93.4 1214.9 95.6 1215.7 97.5C1216.8 97.1 1218.8 96.8 1221 96.6C1220 97.1 1219.3 97.6 1219.8 97.9C1220.3 98.2 1222 97.5 1224.7 96.7L1228.4 100.3L1229.3 98.9L1250.4 101.1C1265.5 97.5 1278.7 92.2 1302.7 90.8C1296.7 93.4 1301.4 95.1 1301.1 98.2C1294.6 94.9 1282.5 99.6 1270.1 98.9C1276.6 99.2 1275.2 100.7 1273.5 101.2L1295.7 98.2C1295.2 100.7 1300.4 100.1 1306.2 101.1C1301.8 96.1 1322.7 97.8 1331.8 96.2C1332.4 97.9 1330.2 99.6 1319.2 99.2C1331.3 103 1334.9 93.3 1346.8 96.5C1344.1 96.5 1342.7 96.3 1341.6 97.1C1347.9 95.6 1363.2 96.8 1359.6 98.3H1356.9C1374.7 98.9 1411.2 98.3 1413.9 94.1C1414.1 94.6 1411.6 99.2 1410.5 100.1L1442.3 85.8C1439.5 89.5 1450.3 98.2 1435.5 100.2C1439.7 100.7 1445 101.3 1454 100C1451.1 99.5 1446.8 94.7 1450.7 94.4C1461.6 98.5 1458.2 96.6 1471.6 100C1467.3 99.2 1472.1 93.5 1478.9 93.7C1477.8 94.6 1479.5 99.4 1477 99.9L1494.1 94.3C1489.8 95.3 1493.3 99.1 1497.2 100.7C1495.4 99.6 1512 100.8 1516.5 100.2L1509.3 98.9C1528.6 99.7 1528.4 91 1547.5 91.3C1545.2 92.5 1541.8 98.4 1551.5 99.2C1556 96.3 1571.3 85.3 1588.2 83.1L1591.4 84.7L1604.4 82.8C1596.3 87.1 1573.6 96.3 1561.2 99.8C1568.4 101.1 1563.2 101.7 1574 101.6C1577.8 103.1 1568.1 103.9 1564.9 104L1590.1 105C1589 101.6 1609.4 101.6 1608.4 98.8L1581.1 102.3C1580 98.9 1596.9 92.8 1614.7 93.4C1619.2 94.7 1611.3 99.4 1611.7 100.5C1614 99.3 1628.6 98.3 1630.3 99.1L1622.7 100.9C1632.6 102.2 1638.9 96.4 1650.8 99.7C1654.9 99.9 1663.1 104 1663.8 102C1657.1 98.2 1655.8 86.3 1660.2 83.4C1661.6 83.7 1681.8 87.1 1686.5 89C1693.3 92 1676.3 96.2 1682.1 98.8C1682.3 97.9 1686.1 96.7 1687.7 96.4C1692 97.2 1685.9 99.2 1695.3 98.8C1696.9 95.4 1714.4 99.1 1699.7 95.9C1708.9 94.9 1709.5 96.6 1720.3 96.5C1716.9 94.3 1730 89 1739.2 88C1738.7 88.9 1740.7 90 1741.7 90.5C1760.5 90.8 1770.7 92.4 1788.2 92.4C1789.8 93.2 1798.3 94.2 1794.7 95.7C1797.2 95.1 1799.5 93.9 1805 93.9C1815.5 96.8 1792.9 94.4 1800.9 97.9C1801.6 95.9 1814.9 95.2 1822.6 93.9C1820.2 90.8 1804.8 93.3 1797 94.5C1797 90.3 1810.4 85.9 1828.8 83.9C1843.4 82.9 1835.1 86.6 1837.7 86C1865.1 86.7 1861.1 78.6 1883.8 81.7C1892.8 84.4 1884.2 87 1886.2 89C1874.3 90 1867.9 87.3 1859.9 87.4L1869.8 88.7C1866 89.6 1858.1 90.3 1853.8 89.5C1861.4 91.9 1900.1 90 1921.3 92.2C1925.1 91.3 1931.5 90.4 1928.5 89.3L1921.8 89.7C1915.6 87.5 1934.4 86.7 1925.9 85.7C1934.9 84.2 1944.9 81.8 1957.6 83L1960 86.1C1959.7 85.2 1951.7 84.3 1948.2 85.2C1953.5 83.8 1967.6 89.3 1973.4 85.3L1964.5 83.2C1973.5 81.7 1984.7 78.4 1995.9 79.4C1990.8 76.4 1993.3 79.7 1985.4 76.2C1992.3 80.6 1956.7 76 1967.8 80.6C1959.6 76.5 1953.7 78.9 1943 75.4C1943.3 76.4 1946.8 77.3 1937.4 76.8C1937 77.1 1936 77.5 1935.3 77.7C1935 77.7 1934.9 77.7 1934.7 77.6C1934.9 77.6 1935 77.7 1935.2 77.7C1934.8 77.9 1934.8 77.9 1935.4 77.7C1937.6 78.1 1939.5 78.7 1940.2 79.2C1935.5 81.5 1920.6 81.4 1915.5 82.6C1909.9 82.1 1917.8 81.4 1914.8 80.4L1907.2 82.2C1906.5 80 1892.4 78.5 1905.5 77.2L1893.7 77.1C1886.7 75.8 1877.2 75.3 1871.2 76.3C1865.6 75.8 1857.1 78.8 1862 77L1843.4 78.4L1843.2 77.8C1824.9 77.5 1805.5 81.5 1784.6 77.5C1778.4 78.1 1772.1 78.8 1761.8 78.1L1759.8 76.2C1751.9 76.9 1736 74.3 1732.6 76.3C1724.1 71.1 1694.2 75.2 1680.3 74.2L1679.8 76.7C1670.2 76.6 1661 77.3 1649.1 78.3L1649.8 80.5C1639.5 82.3 1623.4 78.9 1607.2 79.1C1608.3 78.2 1612.4 78.5 1615.3 79C1595.9 73.9 1574.4 82.7 1556.8 79C1552.4 79.8 1549.2 79.5 1546.2 79C1546.6 79 1547 79 1547.3 78.9C1546.9 78.9 1546.2 78.9 1545.5 78.9C1543.6 78.5 1541.6 78.1 1539.4 77.7C1541.2 78.2 1543 78.7 1544.5 78.9C1541.1 78.9 1536 79.2 1531 79.8L1528.9 77.4C1528.5 77.4 1528.2 77.4 1527.7 77.5C1522.8 76.6 1523.7 78.6 1526.4 80.5C1523.9 80.9 1521.6 81.4 1519.8 82C1515.8 78.1 1506.6 83.3 1501.2 79.2C1497.8 81.2 1476 80.7 1473.3 85C1473.1 84.4 1471.6 84.2 1474.4 84.1C1468.8 83.6 1463.2 83.1 1458.2 84.3L1455.8 81.2L1443.6 85.3C1436.2 83.4 1433.1 82.4 1440.5 80C1422.7 83.6 1426.1 81.4 1410.9 85L1411.6 83C1406.2 83.1 1397.5 85.7 1394.3 84.1C1382.2 80.3 1334.4 83.6 1303.3 80.1C1309.3 85.9 1288.9 77.5 1287.6 82C1285.8 80.6 1281.5 79.8 1286.5 78.6C1270.6 80 1262.7 76.4 1251.7 80.2C1249.9 78.8 1255.1 78.2 1253.5 77.4C1252.2 77.7 1248.5 78.6 1246.8 77.8C1245.2 77 1249.1 76.6 1251.6 76C1235.4 76.2 1233.8 80.5 1232.6 84.5C1224.4 82.6 1220.3 82.9 1214.4 85.5C1211.5 84.2 1206.8 82.8 1216.8 82.4C1211.1 82.2 1182.2 80.5 1181.6 83.7C1179.8 82.9 1173.7 83.5 1172.2 83.8C1159.5 83.6 1158.4 83.3 1145.9 83.6L1149.4 84.1C1144.5 88 1139 85 1129 85.4L1129.3 85C1106.2 82.2 1119.3 86.3 1096.6 83.2L1097.8 85.6C1095.7 90.8 1077.6 82.6 1064.4 84.5L1069.2 85.9C1062 87.7 1049 78.9 1041.8 78.2C1040.2 77.8 1044.3 77.5 1046.5 77.1C1027.5 74.1 1044 80.2 1029.9 81C1027.3 79.3 1033.3 76.7 1023.7 76.4C1019 75 996.1 81.9 983.1 78.7C986 80 988.8 81.3 982.2 82.3C972.1 82.8 955 77.4 945.9 81.5C944.6 81.1 944.1 80.8 944.1 80.5C936.4 81.6 919.1 82.3 914.5 84.5C907.4 76.2 866.7 88.5 866.9 80.9L843.2 81.3L843.8 80.5C828.7 80 823.3 81.8 818 83.7C814.5 83.2 817.1 82.5 817.3 82.1C795.2 80.6 793 80.9 774.5 84.7L772.6 82.2C767.6 83.6 740.7 78.3 719 81.2C719.2 80.9 719.7 80.4 721.4 80.1C697 83 663 73.2 654.1 82.3L638 84.5C658.8 85.2 634.9 88.4 643.5 89.9C635.3 90.4 622.3 87.2 632.4 86.7L634 87.2C637.7 82.5 608.1 85.5 608.7 82.3C567.7 82.5 527.8 79.9 489.5 79.7L493.9 83.4L480.5 83.2C477 82.3 475.8 80.3 485.3 80.5C480.3 78.4 469.3 82.2 469 83C450.3 81.5 476.3 78.7 470.6 78.6L462.8 78.9L464.6 79.3C458.3 80.8 457.7 82.4 446.3 82.2C439 81.5 442.6 79.9 439.7 79.8C439.7 79.5 438.8 79.4 435.3 79.7L418.4 79.4L425.1 82.3C417.6 83.7 409.2 82.1 417 85.4C405.6 80.4 354.1 83.6 347.1 82C336.6 84.1 326.3 84.1 313.5 83.8C316.7 84.4 318.6 87.6 307.5 87.3C311.5 80.6 287.3 84.4 278.4 79.6C286.4 82.8 247 80.4 259.5 84.9C250.3 84.4 258.9 82.4 252 80.8C230.1 83.4 203.7 79.1 176.6 80C176.2 80.9 180.7 82.2 174.9 83.5L160.6 79.1C155.2 79.5 155.7 84.2 145.9 81.1C147.3 81.8 149.3 83 145.8 83.2C92.7001 78.9 37.3001 86.7 -16.5999 78.7C-9.29995 80.4 -14.2 80.6 -19.7 80.6C-16 81 -19.7 82.8 -19 84L-41.5999 80.7C-45.6999 84 -65.8 80.9 -68.2 84.1L-61.1 83.5C-70.6 87.2 -47.8 91.8 -49.2 96.6C-38.6 92.4 -21.1 102.9 -3.69995 96.8C0.200049 97.8 -6.99995 98.3 -4.89995 99.5C-0.499952 97.4 4.90005 97 14.8 97.9L13.7 98.4C41.5 97.9 53.5 99.9 84.7 101.3L82.4 98.9C89.1 99.2 90.5 100 93.7 100.6C101.4 97 74.8 100.4 81.9 96.4C90.8 101.2 129.3 96.5 135.3 101.9C145.6 101.9 132.3 99.2 142.6 99.2L145.3 100.7L147.9 98.8C154.7 99.1 158.1 101 158.3 102.2C156.7 102.1 153.6 102.6 151.9 102.7C160.7 104.4 176.7 102.1 179.7 102.7L169.8 101.8C198 100.4 232.4 102.4 259.7 99.3L257.6 98.2C278.4 96.1 274.3 99.4 297.1 98.5L296.3 98.8C300.9 97.7 307 97.1 313.2 97.3C307.4 98.6 324.1 99.8 316.5 101.3C339.1 99.1 327.7 99.6 342.6 95.4L346 97.3C351.1 95.6 351.5 94.7 362.9 94.3C353.5 95.9 370.2 97.1 359.7 99.2C383.6 103.3 395.3 95.1 406.2 101C417.2 95.9 385.5 98.2 391.6 97.1C386.4 95.4 400.7 93.3 408.2 93.8C415.8 93.9 421.2 100.4 440.4 100.3C438.5 100.3 438.4 100.7 436.4 100.6C443.6 101.9 450.5 98.8 459.3 101C464.3 97.9 470.8 101.2 472.2 97.2L454.5 98.1C464.5 97.1 473.9 92.4 490.4 94.7C489.1 95.5 484.2 96.5 480.8 97.1C485.6 98.3 490.1 96.3 495.1 97.5C493.7 101.5 473.7 98.4 462.9 101.4C468.1 103.1 483.2 98.5 477.8 102.8C485.5 97.3 496.8 103.5 509.8 99.3L508.9 101.7C511 101.3 515.2 100.2 519 100.3L512.1 103.4C522.6 100.8 532.4 105.7 542.6 104.3C521.4 104.4 537.8 101.4 528.9 99.7C555 96.5 543.9 105.9 573.2 104.8C569.2 105.1 558.3 103.4 564.5 102.3C570.1 102.8 577.4 103.7 580.8 104.9C600.2 104.4 577.8 102.5 586.1 101C592.7 103.9 595.6 99.8 604.1 98.9L604.2 101.3C626.3 102.8 610.1 96.3 629.9 98.1L621.5 101.4L631.9 100.5L629.8 103.2C641.1 101.2 644.6 101.7 655.6 102.5C653 100.8 657 98.1 666.8 98C673.5 99.4 663.1 100.3 676.9 99.9C673.8 101.4 670.3 103.3 664.3 101.1C663.7 101.9 661.2 102.6 660.6 103.4C667.8 105 678.7 103.8 683.7 103.8C681.8 103.7 679.5 103.6 678.3 103.2L698.4 99.9C701.6 100.8 699.1 101.5 696.6 102.2C700.7 101.9 703.5 100.8 709.5 100.6C708 102.6 708.3 104.6 699.8 105.5L719 103.3C720.3 104.2 728.8 105.6 726.3 106.4C736.9 107.6 752.3 102.6 766.4 104.1C767.1 103.7 768.6 103.4 771.6 103.1C784.8 103.5 796.6 105.9 812.2 103.3L821.1 106.8C833.4 106 809.1 102.4 829.5 101C844 99.9 834.9 104 840 105C847.2 103.2 859.7 99.6 873 102.5C869 103.1 865.6 102.6 861.5 102.8ZM1012.9 101.3C1010 101.8 1004.1 103.4 1002 101.9C1005.4 99.1 1007.9 100.5 1012.9 101.3ZM1243.2 95.5C1241 96.3 1237.6 95.9 1233.8 95C1236.6 94.7 1239.7 94.8 1243.2 95.5ZM1884.6 78.7C1884.5 78.7 1884.4 78.8 1884.3 78.8C1877.8 77.8 1880.1 78.2 1884.6 78.7ZM1898.2 79.7C1899.6 79.4 1899.5 79 1898.9 78.7C1898 79.3 1894.9 79.4 1891.4 79.2C1892.4 79.8 1894.2 80.2 1898.2 79.7ZM438.3 80.7L440.9 81.3C434.9 82 436.6 81.4 438.3 80.7Z" fill="#FBF7ED"/>
<path d="M1217.1 98.8C1216.3 98.4 1216 97.9 1215.8 97.5C1214.7 97.8 1214.7 98.3 1217.1 98.8Z" fill="#FBF7ED"/>
<path d="M767.3 104.1C767.1 104.1 767 104.1 766.8 104.1C766.5 104.2 766.4 104.4 766.3 104.5L767.3 104.1Z" fill="#FBF7ED"/>
<path d="M1687.6 100.2C1684.8 99.9 1683.2 99.4 1682.2 99C1682.1 99.5 1683.4 100 1687.6 100.2Z" fill="#FBF7ED"/>
<path d="M1915.5 78.4C1918.4 78.9 1917.3 75.8 1919 76.6C1922.2 74 1899.6 79.7 1915.5 78.4Z" fill="#FBF7ED"/>
<path d="M1830.3 88L1819.7 88.7C1818.6 89.6 1821.5 90.1 1825.5 89.7C1828 89.1 1832 88.8 1830.3 88Z" fill="#FBF7ED"/>
<path d="M1862.5 94.8C1859.6 94.3 1859.4 93.7 1857.8 92.9L1857.5 96L1862.5 94.8Z" fill="#FBF7ED"/>
<path d="M1831.5 95.6C1830.4 96.5 1816.1 98.1 1829.5 97.9C1830.6 97 1841.3 96.3 1831.5 95.6Z" fill="#FBF7ED"/>
<path d="M1671.2 91.6H1673.9L1673.5 86.5L1671.2 91.6Z" fill="#FBF7ED"/>
<path d="M1529.9 103.8C1542.5 105 1532.9 100.7 1544.3 102.2C1547.3 101 1535 101 1538 99.9C1530.4 101.2 1526.4 100.5 1529.9 103.8Z" fill="#FBF7ED"/>
<path d="M1538 99.9C1539.2 99.7 1540.5 99.5 1541.9 99.1C1539.7 99.5 1538.7 99.7 1538 99.9Z" fill="#FBF7ED"/>
<path d="M1035.5 107.8L1036.1 107C1034.8 106.2 1032.9 106.1 1029.1 106L1035.5 107.8Z" fill="#FBF7ED"/>
<path d="M925.5 105.4H927.4L923.9 102.5L925.5 105.4Z" fill="#FBF7ED"/>
<path d="M833.3 109.1C837.1 109.2 841.5 108.6 845.3 108.7C837 109.2 832.2 105.5 833.3 109.1Z" fill="#FBF7ED"/>
</g>
<defs>
<clipPath id="clip0_269_1470">
<rect width="1916" height="167" fill="white"/>
</clipPath>
</defs>
</svg>
