<svg width="512" height="512" viewBox="0 0 512 512" fill="none" xmlns="http://www.w3.org/2000/svg">
<g clip-path="url(#clip0_56_2245)">
<path fill-rule="evenodd" clip-rule="evenodd" d="M378.33 229.078H504.5V272.908C504.5 283.745 495.656 292.596 484.828 292.596H439.445L412.374 306.27L378.33 292.596V229.078Z" fill="#FFB655"/>
<path fill-rule="evenodd" clip-rule="evenodd" d="M378.33 292.596H439.445V320.71C439.445 327.462 433.917 332.965 427.199 332.965H228.217C228.217 315.291 228.217 306.298 241.738 306.298L268.667 306.27C285.618 306.242 296.73 301.901 302.938 292.596H378.33Z" fill="#7ED63E"/>
<path fill-rule="evenodd" clip-rule="evenodd" d="M252.217 332.965H427.2C437.461 350.838 445.71 372.313 438.595 413.391C426.689 372.88 305.764 389.05 293.348 435.803H159.921C154.875 424.37 150.113 413.079 145.946 401.675H183.562C259.643 372.966 235.18 385.76 252.217 332.965Z" fill="#FFB655"/>
<path fill-rule="evenodd" clip-rule="evenodd" d="M241.417 223.149C244.025 236.88 247.568 250.412 251.537 261.93L290.001 277L332.891 261.929C331.389 180.765 301.058 141.842 275.263 129.247C265.965 122.167 256.441 119.501 256.441 119.501C256.441 119.501 243.912 139.545 243.26 139.545C238.441 151.006 236.627 165.957 236.939 182.099L241.417 223.149Z" fill="#FFD422"/>
<path fill-rule="evenodd" clip-rule="evenodd" d="M332.891 261.929H251.537C232.8 263.972 209.754 278.241 209.754 322.44V368.767H252.217V332.965C252.217 315.291 252.217 306.298 265.738 306.298L292.667 306.27C309.618 306.242 320.73 301.901 326.938 292.596C331.728 285.419 333.571 275.291 332.891 261.929V261.929Z" fill="#FF5023"/>
<path fill-rule="evenodd" clip-rule="evenodd" d="M332.891 261.929C331.389 180.765 301.058 141.842 275.263 129.247C271.436 131.942 267.184 134.155 262.507 135.8C285.354 153.077 308.258 191.687 309.562 261.929H332.891Z" fill="#EEBF00"/>
<path fill-rule="evenodd" clip-rule="evenodd" d="M332.891 261.929H309.562C310.242 275.291 308.4 285.419 303.609 292.596C299.697 298.468 293.801 303.433 285.722 306.27H292.667C309.618 306.242 320.73 301.901 326.938 292.596C331.728 285.419 333.571 275.291 332.891 261.929Z" fill="#FF3501"/>
<path fill-rule="evenodd" clip-rule="evenodd" d="M398.002 165.474H484.827C495.655 165.474 504.499 174.325 504.499 185.162V217.73H378.33V185.162C378.33 174.325 387.174 165.474 398.002 165.474V165.474Z" fill="#FFB655"/>
<path fill-rule="evenodd" clip-rule="evenodd" d="M378.33 207.914H504.5V238.865H378.33V207.914Z" fill="#FF5023"/>
<path fill-rule="evenodd" clip-rule="evenodd" d="M478.166 207.914H494.323H504.5V185.162C504.5 177.758 500.361 171.29 494.324 167.942C491.489 166.382 488.258 165.474 484.828 165.474H458.494C469.322 165.474 478.166 174.325 478.166 185.162V207.914Z" fill="#FFA733"/>
<path fill-rule="evenodd" clip-rule="evenodd" d="M478.166 238.865H494.324H504.5V229.078V217.73V207.914H494.324H478.166V217.73V229.078V238.865Z" fill="#FF3501"/>
<path fill-rule="evenodd" clip-rule="evenodd" d="M478.166 238.865V272.908C478.166 283.745 469.322 292.596 458.494 292.596H484.828C488.258 292.596 491.489 291.717 494.324 290.156C500.362 286.78 504.5 280.312 504.5 272.908V238.865H494.324H478.166Z" fill="#FFA733"/>
<path fill-rule="evenodd" clip-rule="evenodd" d="M293.347 435.804C293.347 393.846 326.597 360.427 367.615 360.427C400.979 360.427 429.212 382.555 438.595 413.392C440.523 419.718 441.656 426.442 441.855 433.421C441.94 436.144 440.069 435.804 437.518 435.804C389.47 435.804 341.395 435.775 293.347 435.804V435.804Z" fill="#FF5023"/>
<path fill-rule="evenodd" clip-rule="evenodd" d="M312.028 435.804H425.074C423.458 466.272 398.768 490.5 368.551 490.5C338.333 490.499 313.643 466.272 312.028 435.804V435.804Z" fill="#7ED63E"/>
<path fill-rule="evenodd" clip-rule="evenodd" d="M24.9627 423.747L122.22 446.13C116.04 472.996 89.2527 489.79 62.4087 483.606C35.5357 477.421 18.7837 450.612 24.9627 423.747Z" fill="#7ED63E"/>
<path fill-rule="evenodd" clip-rule="evenodd" d="M17.6779 396.484C31.4259 376.484 55.2939 364.881 80.2389 367.377C124.233 376.682 138.548 402.98 141.411 435.775C141.354 440.229 140.872 444.711 139.909 449.194C139.626 450.442 138.803 449.932 137.443 449.62L122.221 446.131L24.9639 423.748L17.6789 422.074L7.50293 419.719C9.45793 411.151 12.9729 403.321 17.6779 396.484V396.484Z" fill="#FFD422"/>
<path fill-rule="evenodd" clip-rule="evenodd" d="M80.1543 367.264L119.442 231.319L137.13 223.404L156.916 231.319C130.922 303.377 138.179 353.675 155.725 401.676C159.92 413.08 164.682 424.371 169.7 435.804H141.439L80.1543 367.264Z" fill="#FF5023"/>
<path fill-rule="evenodd" clip-rule="evenodd" d="M201.818 78.8921L247.909 69.076C252.586 69.502 265.965 80.7361 265.965 87.7711L256.158 137.644C252.076 138.864 247.739 139.545 243.26 139.545C218.712 139.545 198.812 119.602 198.812 95.034C198.812 89.331 199.862 83.8841 201.818 78.8921V78.8921Z" fill="#FFB655"/>
<path fill-rule="evenodd" clip-rule="evenodd" d="M186.935 78.892C186.935 47.175 212.05 21.501 243.061 21.501C274.072 21.501 299.187 47.175 299.187 78.892C299.187 99.828 290.683 118.439 275.263 129.247C269.764 133.134 263.357 135.999 256.158 137.644V87.771C256.158 80.735 252.586 79.317 247.909 78.891H201.818H186.935V78.892Z" fill="#FF5023"/>
<path fill-rule="evenodd" clip-rule="evenodd" d="M213.694 29.983C222.226 24.593 232.289 21.501 243.061 21.501C274.072 21.501 299.187 47.175 299.187 78.892C299.187 99.828 290.683 118.439 275.263 129.247C271.351 131.999 267.014 134.24 262.252 135.885C273.647 124.339 279.827 107.771 279.827 89.501C279.827 56.366 253.55 29.5 221.15 29.5C218.626 29.501 216.132 29.643 213.694 29.983V29.983Z" fill="#FF3501"/>
<path fill-rule="evenodd" clip-rule="evenodd" d="M209.754 368.767H252.217V395.519C252.217 401.25 249.099 401.675 244.507 401.675H183.562C182.343 374.838 198.585 368.767 209.754 368.767Z" fill="#6DC82A"/>
<path fill-rule="evenodd" clip-rule="evenodd" d="M155.725 401.676C138.179 353.675 130.922 303.377 156.916 231.319H142.346C142.289 231.319 142.233 231.319 142.176 231.319H136.932C110.938 303.377 118.167 353.675 135.741 401.676C139.908 413.08 144.67 424.371 149.716 435.804H159.921H169.701C164.683 424.371 159.921 413.08 155.725 401.676V401.676Z" fill="#FF3501"/>
<path fill-rule="evenodd" clip-rule="evenodd" d="M141.41 435.775L80.2383 367.377C73.9173 366.753 67.6523 367.008 61.6143 368.115L120.405 433.846C120.348 437.676 119.98 441.562 119.243 445.449L122.219 446.13L137.441 449.619C138.802 449.931 139.624 450.442 139.907 449.193C140.872 444.711 141.354 440.229 141.41 435.775V435.775Z" fill="#EEBF00"/>
<path fill-rule="evenodd" clip-rule="evenodd" d="M427.199 332.965H252.217V348.369H395.99C407.697 348.369 413.253 353.419 417.817 363.66C421.757 372.54 421.842 375.433 423.628 386.157C430.346 393.958 435.505 403.207 438.595 413.391C445.709 372.313 437.461 350.838 427.199 332.965V332.965Z" fill="#FFA733"/>
<path fill-rule="evenodd" clip-rule="evenodd" d="M423.628 386.158C410.022 370.356 389.981 360.427 367.615 360.427C362.002 360.427 356.56 361.051 351.316 362.214C384.793 369.789 408.207 399.349 409.228 433.421C409.285 435.293 408.434 435.719 407.074 435.804H425.074H437.518C440.069 435.804 441.94 436.144 441.855 433.421C441.657 426.442 440.523 419.719 438.595 413.392C438.538 413.193 438.482 413.023 438.425 412.853C438.425 412.853 438.425 412.853 438.425 412.825C435.306 402.867 430.232 393.817 423.628 386.158Z" fill="#FF3501"/>
<path fill-rule="evenodd" clip-rule="evenodd" d="M119.243 445.449L24.9625 423.747C23.9135 428.201 23.5455 432.683 23.7155 437.052L98.5505 454.272L101.499 454.953C98.7205 467.152 91.6625 477.279 82.2795 484.116C101.414 480.74 117.6 466.272 122.22 446.13L119.243 445.449Z" fill="#6DC82A"/>
<path fill-rule="evenodd" clip-rule="evenodd" d="M407.073 435.804H312.027C312.339 441.761 313.558 447.492 315.514 452.854H381.731H399.731C399.022 466.187 393.92 478.301 385.87 487.748C407.725 480.571 423.798 460.173 425.073 435.804H407.073Z" fill="#6DC82A"/>
<path fill-rule="evenodd" clip-rule="evenodd" d="M439.445 320.71V292.596H401.036V320.71C401.036 327.462 395.508 332.965 388.79 332.965H427.199C433.917 332.965 439.445 327.462 439.445 320.71Z" fill="#6DC82A"/>
<path fill-rule="evenodd" clip-rule="evenodd" d="M199.039 90.268H236.91C241.587 90.694 245.159 92.14 245.159 99.176V139.489C248.957 139.319 252.642 138.695 256.157 137.645V87.771C256.157 80.735 252.585 79.317 247.908 78.891H201.817C200.428 82.466 199.464 86.296 199.039 90.268V90.268Z" fill="#FFA733"/>
<path fill-rule="evenodd" clip-rule="evenodd" d="M111.25 188.51L164.286 206.042C166.894 208.368 163.946 232.085 162.188 231.319H119.442H100.535V192.283C100.535 184.595 104.532 186.297 111.25 188.51V188.51Z" fill="#FFD422"/>
<path fill-rule="evenodd" clip-rule="evenodd" d="M189.004 231.319H184.554H162.189C147.789 231.319 147.364 207.432 164.287 206.042L189.005 204.056L195.638 218.099L189.004 231.319Z" fill="#FFB655"/>
<path fill-rule="evenodd" clip-rule="evenodd" d="M236.938 182.098L245.81 174.467C268.034 155.318 296.125 187.63 266.418 206.921L241.416 223.148L228.83 231.318H189.003V204.055L213.749 202.041L236.938 182.098Z" fill="#FF5023"/>
<path fill-rule="evenodd" clip-rule="evenodd" d="M189.004 231.319V218.099H183.703H180.84H176.361H153.996C153.146 218.099 152.352 218.042 151.587 217.872C150.765 224.454 154.478 231.319 162.189 231.319H184.554H189.004Z" fill="#FFA733"/>
<path fill-rule="evenodd" clip-rule="evenodd" d="M266.418 206.921C284.39 195.233 281.215 178.807 270.982 171.885C271.804 178.977 268.431 187.119 258.226 193.729L238.752 206.353L233.253 209.956L220.667 218.098H189.004V231.318H228.831L241.417 223.148L266.418 206.921Z" fill="#FF3501"/>
<path fill-rule="evenodd" clip-rule="evenodd" d="M164.286 206.042L142.941 199.006C135.798 206.666 132.339 221.588 136.932 231.318H156.916H162.188C154.478 231.318 150.764 224.453 151.586 217.871C152.324 212.17 156.434 206.694 164.286 206.042V206.042Z" fill="#EEBF00"/>
<path d="M484.827 157.974H398.002C383.019 157.974 370.829 170.17 370.829 185.162V285.096H338.353C340.158 278.535 340.827 270.796 340.388 261.79V261.789C339.683 223.73 332.777 191.654 319.86 166.452C309.83 146.885 298.125 135.154 288.081 128.141C299.87 116.02 306.686 98.777 306.686 78.89C306.686 43.109 278.143 14 243.06 14C207.977 14 179.434 43.109 179.434 78.89C179.434 83.033 182.792 86.39 186.934 86.39H192.03C191.561 89.22 191.311 92.104 191.311 95.033C191.311 120.249 209.329 141.324 233.151 146.047C230.654 155.319 229.413 166.252 229.418 178.672L210.712 194.761L165.197 198.442L112.694 181.086C107.882 179.486 102.428 177.678 97.696 181.09C93.033 184.455 93.033 190.346 93.033 192.281V231.316C93.033 235.459 96.391 238.816 100.533 238.816H109.462L95.767 286.14C94.616 290.118 96.908 294.278 100.887 295.429C104.868 296.586 109.025 294.288 110.177 290.31L125.079 238.816H146.401C119.881 319.688 135.013 373.67 158.272 428.301H144.79L88.637 365.515L100.511 324.495C101.663 320.516 99.371 316.357 95.392 315.206C91.413 314.055 87.254 316.347 86.102 320.325L74.745 359.562C39.619 358.976 8.19901 383.194 0.192011 418.037C-0.734989 422.073 1.78401 426.097 5.81901 427.025L16.466 429.475C13.746 457.727 32.351 484.382 60.725 490.913C65.034 491.906 69.38 492.396 73.696 492.396C84.34 492.396 94.797 489.412 104.046 483.615C114.901 476.813 122.989 466.813 127.366 454.995L135.767 456.928C138.27 457.507 140.644 457.8 143.016 456.523C145.223 455.335 146.69 453.19 147.24 450.769C147.768 448.314 148.17 445.819 148.449 443.301H305.307C310.323 474.488 336.858 497.997 368.549 497.997C400.24 497.997 426.776 474.488 431.792 443.301H437.516L438.178 443.308C438.407 443.311 438.652 443.314 438.91 443.314C441.055 443.314 444.153 443.076 446.697 440.488C447.97 439.193 449.464 436.876 449.349 433.195C449.138 426.152 448.081 419.347 446.277 412.879C452.251 376.611 446.503 354.522 437.982 337.235C443.369 333.704 446.941 327.62 446.941 320.708V300.095H484.824C499.807 300.095 511.997 287.899 511.997 272.907V185.161C512 170.17 499.811 157.974 484.827 157.974ZM96.081 470.907C86.48 476.924 75.12 478.837 64.092 476.298C43.794 471.626 30.251 453.013 31.238 432.887L112.591 451.611C109.225 459.536 103.53 466.239 96.081 470.907ZM133.609 441.041L16.944 414.195C25.947 389.541 50.175 373.221 76.658 374.625L133.809 438.526C133.759 439.369 133.693 440.207 133.609 441.041ZM246.894 310.346C244.717 316.088 244.717 323.167 244.717 332.966V361.268H217.254V322.44C217.254 278.542 241.212 270.719 251.964 269.428H325.493C325.197 279.391 322.949 286.473 318.681 290.968C313.707 296.206 305.196 298.758 292.66 298.77L265.739 298.798C256.139 298.799 249.799 302.683 246.894 310.346ZM244.717 376.267V394.175C244.649 394.175 244.579 394.175 244.507 394.175H191.234C191.833 388.621 193.563 384.323 196.404 381.349C200.63 376.927 206.582 376.267 209.754 376.267H244.717ZM325.162 254.429H256.955C254.216 245.81 251.774 236.372 249.766 226.672L270.503 213.212C281.823 205.861 287.712 195.474 286.66 184.713C285.728 175.174 279.243 166.653 270.139 163.006C261.825 159.676 252.876 160.722 244.967 165.779C245.619 158.605 246.833 152.201 248.589 146.765C251.786 146.435 254.961 145.81 258.079 144.893C264.426 143.419 270.291 141.07 275.586 137.955C290.031 146.585 321.801 174.577 325.162 254.429ZM194.983 71.391C198.52 47.427 218.732 29.001 243.06 29.001C269.872 29.001 291.686 51.382 291.686 78.891C291.686 101.265 280.957 119.298 263.657 127.234V87.771C263.657 80.938 261.042 72.556 248.588 71.422C248.362 71.401 248.135 71.391 247.908 71.391H194.983ZM206.312 95.034C206.312 92.074 206.649 89.183 207.312 86.391H247.54C248.003 86.441 248.341 86.495 248.583 86.544C248.622 86.822 248.656 87.222 248.656 87.771V131.647C246.869 131.91 245.071 132.043 243.274 132.044C243.257 132.044 243.24 132.044 243.224 132.044C222.868 132.025 206.312 115.43 206.312 95.034ZM196.589 210.954L214.353 209.517C215.936 209.39 217.437 208.763 218.642 207.728L250.702 180.153L250.707 180.148C253.807 177.477 257.116 176.107 260.338 176.107C261.772 176.107 263.189 176.379 264.562 176.929C268.525 178.516 271.339 182.144 271.733 186.17C272.228 191.237 268.89 196.373 262.337 200.629L226.612 223.817H196.591V210.954H196.589ZM164.893 213.518L181.589 212.168V223.819H162.188C159.673 223.819 159.06 221.729 158.988 219.976C158.947 218.982 159.041 213.998 164.893 213.518ZM147.142 208.34C144.883 212.044 143.828 216.377 144.001 220.59C144.046 221.681 144.185 222.732 144.379 223.756C144.379 223.777 144.367 223.798 144.371 223.818H108.035V195.345L147.171 208.282C147.159 208.302 147.153 208.321 147.142 208.34ZM162.23 238.818H228.831C230.28 238.818 231.699 238.398 232.914 237.609L236.309 235.405C237.942 242.623 239.802 249.647 241.828 256.281C226.532 260.796 202.253 275.387 202.253 322.439V362.02C196.991 363.082 190.766 365.536 185.559 370.985C180.07 376.729 176.935 384.512 176.183 394.174H161.053C145.807 350.236 140.009 303.48 162.23 238.818ZM174.592 428.276C171.82 421.901 169.148 415.55 166.632 409.175H244.506C254.599 409.175 259.716 404.58 259.716 395.519V368.767V340.465H318.915C323.058 340.465 326.415 337.108 326.415 332.965C326.415 328.822 323.058 325.465 318.915 325.465H259.77C259.866 321.205 260.139 317.721 260.92 315.663C261.299 314.662 261.627 313.798 265.746 313.798L292.674 313.77C309.539 313.754 321.604 309.674 329.559 301.296C329.927 300.908 330.275 300.501 330.624 300.096H378.33H431.945V320.709C431.945 323.287 429.772 325.465 427.2 325.465H352.535C348.392 325.465 345.035 328.822 345.035 332.965C345.035 337.108 348.392 340.465 352.535 340.465H422.793C428.721 351.468 434.053 365.159 433.736 386.79C418.898 366.179 394.877 352.926 367.615 352.926C345.721 352.926 325.177 361.514 309.766 377.109C296.091 390.946 287.878 408.905 286.188 428.301L174.592 428.276ZM368.55 482.999C345.104 482.999 325.33 466.106 320.546 443.303H416.554C411.769 466.104 391.995 482.999 368.55 482.999ZM425.074 428.303H312.028H301.253C304.935 394.39 333.291 367.926 367.615 367.926C397.75 367.926 423.057 387.797 431.438 415.614C431.465 415.702 431.492 415.79 431.522 415.877C432.707 419.868 433.544 424.022 433.997 428.303H425.074ZM497 272.908C497 279.629 491.539 285.096 484.827 285.096H385.829V246.365H497V272.908ZM497 231.365H385.829V215.414H497V231.365ZM497 200.414H385.829V185.162C385.829 178.441 391.29 172.974 398.002 172.974H484.827C491.539 172.974 497 178.442 497 185.162V200.414Z" fill="black"/>
</g>
<defs>
<clipPath id="clip0_56_2245">
<rect width="512" height="512" fill="white"/>
</clipPath>
</defs>
</svg>
