<svg width="512" height="512" viewBox="0 0 512 512" fill="none" xmlns="http://www.w3.org/2000/svg">
<g clip-path="url(#clip0_56_1918)">
<path d="M493.791 264.893L456.403 239.968L428.701 122.234C426.145 111.371 416.452 103.694 405.293 103.694H23.532C14.678 103.694 7.5 110.872 7.5 119.726V360.21C7.5 369.064 14.678 376.242 23.532 376.242H488.467C497.321 376.242 504.499 369.064 504.499 360.21V284.903C504.5 276.862 500.482 269.353 493.791 264.893V264.893Z" fill="#FFB655"/>
<path d="M288.065 264.016H47.5814C43.1544 264.016 39.5654 260.427 39.5654 256V135.758H296.081V256C296.081 260.427 292.492 264.016 288.065 264.016Z" fill="#EEBF00"/>
<path d="M271.366 265.349H65V177.172C65 168.318 72.178 161.14 81.032 161.14H255.333C264.187 161.14 271.365 168.318 271.365 177.172V265.349H271.366Z" fill="#FFD422"/>
<path d="M151.79 167.823H79.6449C75.2179 167.823 71.6289 171.412 71.6289 175.839V264.016H159.806V175.839C159.806 171.412 156.218 167.823 151.79 167.823Z" fill="#FF5023"/>
<path d="M23.532 103.694C14.678 103.694 7.5 110.872 7.5 119.726V360.21C7.5 369.064 14.678 376.242 23.532 376.242H488.467C497.321 376.242 504.499 369.064 504.499 360.21V352.194H40.44C36.013 352.194 32.424 348.605 32.424 344.178V103.694H23.532Z" fill="#FFA733"/>
<path d="M231.952 223.935V264.016H264.017V223.935C264.017 219.508 260.428 215.919 256.001 215.919H239.969C235.541 215.919 231.952 219.508 231.952 223.935V223.935Z" fill="#FF5023"/>
<path d="M199.887 239.968V264.016H231.952V239.968C231.952 235.541 228.363 231.952 223.936 231.952H207.904C203.476 231.952 199.887 235.541 199.887 239.968V239.968Z" fill="#FF3501"/>
<path d="M312.113 87.661H23.5322L39.5652 135.758H296.081L312.113 87.661Z" fill="#FF5023"/>
<path d="M119.726 424.339C146.289 424.339 167.823 402.805 167.823 376.242C167.823 349.679 146.289 328.145 119.726 328.145C93.1627 328.145 71.6289 349.679 71.6289 376.242C71.6289 402.805 93.1627 424.339 119.726 424.339Z" fill="#7ED63E"/>
<path d="M119.726 392.274C128.581 392.274 135.758 385.096 135.758 376.242C135.758 367.388 128.581 360.21 119.726 360.21C110.872 360.21 103.694 367.388 103.694 376.242C103.694 385.096 110.872 392.274 119.726 392.274Z" fill="#6DC82A"/>
<path d="M424.339 424.339C450.902 424.339 472.436 402.805 472.436 376.242C472.436 349.679 450.902 328.145 424.339 328.145C397.776 328.145 376.242 349.679 376.242 376.242C376.242 402.805 397.776 424.339 424.339 424.339Z" fill="#7ED63E"/>
<path d="M424.339 392.274C433.193 392.274 440.371 385.096 440.371 376.242C440.371 367.388 433.193 360.21 424.339 360.21C415.484 360.21 408.307 367.388 408.307 376.242C408.307 385.096 415.484 392.274 424.339 392.274Z" fill="#6DC82A"/>
<path d="M288.065 320.129H47.5814C43.1544 320.129 39.5654 316.54 39.5654 312.113V296.081H296.081V312.113C296.081 316.54 292.492 320.129 288.065 320.129Z" fill="#FFA733"/>
<path d="M488.468 288.065C479.614 288.065 472.436 295.243 472.436 304.097C472.436 312.951 479.614 320.129 488.468 320.129H504.5V288.064H488.468V288.065Z" fill="#FFD422"/>
<path d="M39.5652 135.758H296.081L304.097 111.71H301.426H70.8582C63.9732 111.71 57.8692 107.327 55.6672 100.804L51.2312 87.661H23.5322L39.5652 135.758Z" fill="#FF3501"/>
<path d="M328.145 167.823V223.936C328.145 232.79 335.323 239.968 344.177 239.968H456.403L435.655 151.791H344.177C335.324 151.79 328.145 158.968 328.145 167.823Z" fill="#FFD422"/>
<path d="M352.194 191.871V151.79H344.178C335.324 151.79 328.146 158.968 328.146 167.822V223.935C328.146 232.789 335.324 239.967 344.178 239.967H456.404L450.746 215.919H376.243C362.96 215.919 352.194 205.153 352.194 191.871V191.871Z" fill="#EEBF00"/>
<path d="M119.726 352.71C106.75 352.71 96.1943 363.267 96.1943 376.242C96.1943 389.217 106.751 399.774 119.726 399.774C132.702 399.774 143.259 389.217 143.259 376.242C143.259 363.267 132.702 352.71 119.726 352.71V352.71ZM119.726 384.774C115.021 384.774 111.194 380.946 111.194 376.242C111.194 371.537 115.022 367.71 119.726 367.71C124.431 367.71 128.259 371.537 128.259 376.242C128.258 380.946 124.431 384.774 119.726 384.774V384.774Z" fill="black"/>
<path d="M424.339 352.71C411.363 352.71 400.807 363.267 400.807 376.242C400.807 389.217 411.364 399.774 424.339 399.774C437.314 399.774 447.871 389.217 447.871 376.242C447.871 363.267 437.314 352.71 424.339 352.71ZM424.339 384.774C419.634 384.774 415.807 380.946 415.807 376.242C415.807 371.537 419.635 367.71 424.339 367.71C429.043 367.71 432.871 371.537 432.871 376.242C432.871 380.946 429.043 384.774 424.339 384.774Z" fill="black"/>
<path d="M497.951 258.653L463.026 235.369L436.002 120.515C432.632 106.195 420.004 96.193 405.292 96.193H317.175L319.228 90.033C319.99 87.746 319.607 85.232 318.197 83.276C316.787 81.32 314.523 80.161 312.113 80.161H23.532C21.121 80.161 18.857 81.32 17.448 83.276C16.038 85.232 15.655 87.746 16.417 90.033L18.642 96.708C8.006 98.965 0 108.427 0 119.726V360.21C0 373.186 10.557 383.742 23.532 383.742H64.649C68.324 410.862 91.614 431.839 119.726 431.839C147.838 431.839 171.128 410.862 174.803 383.742H369.262C372.937 410.862 396.228 431.839 424.339 431.839C452.45 431.839 475.74 410.862 479.416 383.742H488.468C501.444 383.742 512 373.185 512 360.21V284.902C512 274.33 506.748 264.517 497.951 258.653ZM497 312.629H488.468C483.763 312.629 479.936 308.802 479.936 304.097C479.936 299.392 483.764 295.565 488.468 295.565H497V312.629ZM429.715 159.29L446.933 232.468H423.822V159.29H429.715ZM239.452 256.516V231.952V223.42H256.516V256.517H239.452V256.516ZM207.387 256.516V239.452H224.451V256.516H207.387ZM264.016 208.419H231.952C227.81 208.419 224.452 211.777 224.452 215.919V224.451H199.888C195.746 224.451 192.388 227.809 192.388 231.951V256.515H167.307V167.821C167.307 163.679 163.949 160.321 159.807 160.321H71.629C67.487 160.321 64.129 163.679 64.129 167.821V256.515H47.581C47.296 256.515 47.065 256.284 47.065 255.999V143.258H288.581V256C288.581 256.285 288.35 256.516 288.065 256.516H271.517V215.919C271.516 211.777 268.158 208.419 264.016 208.419ZM79.129 256.516V239.452H152.307V256.516H79.129ZM79.129 207.387H152.307V224.451H79.129V207.387ZM152.307 192.387H79.129V175.322H152.307V192.387ZM301.707 95.161L290.675 128.258H44.97L33.938 95.161H301.707ZM424.339 416.839C401.954 416.839 383.742 398.627 383.742 376.242C383.742 353.857 401.954 335.645 424.339 335.645C446.724 335.645 464.936 353.856 464.936 376.242C464.936 398.627 446.724 416.839 424.339 416.839ZM488.468 368.742H479.416C475.741 341.622 452.451 320.645 424.339 320.645C396.227 320.645 372.937 341.622 369.262 368.742H174.814C174.306 364.976 173.42 361.278 172.149 357.687C170.767 353.782 166.481 351.737 162.576 353.119C158.671 354.501 156.626 358.786 158.008 362.691C159.544 367.03 160.322 371.589 160.322 376.242C160.322 398.627 142.11 416.839 119.725 416.839C97.34 416.839 79.128 398.627 79.128 376.242C79.128 353.857 97.339 335.645 119.725 335.645C126.855 335.645 133.865 337.517 139.996 341.059C143.583 343.13 148.17 341.903 150.242 338.316C152.314 334.729 151.086 330.142 147.499 328.07C139.09 323.213 129.486 320.645 119.725 320.645C91.613 320.645 68.324 341.622 64.648 368.742H23.532C18.827 368.742 15 364.914 15 360.21V119.726C15 115.042 18.795 111.23 23.471 111.197L32.064 136.976V256C32.064 264.556 39.024 271.516 47.58 271.516H288.064C296.62 271.516 303.58 264.556 303.58 256V136.976L312.174 111.194H405.291C413.008 111.194 419.632 116.441 421.399 123.952L426.185 144.29H400.287C396.145 144.29 392.787 147.648 392.787 151.79C392.787 155.933 396.145 159.29 400.287 159.29H408.822V232.468H344.176C339.471 232.468 335.644 228.64 335.644 223.936V167.823C335.644 163.119 339.472 159.291 344.176 159.291H368.226C372.368 159.291 375.726 155.934 375.726 151.791C375.726 147.649 372.368 144.291 368.226 144.291H344.176C331.2 144.291 320.644 154.848 320.644 167.823V223.936C320.644 236.912 331.201 247.468 344.176 247.468H454.131L489.629 271.134C493.007 273.385 495.382 276.749 496.416 280.565H488.466C475.49 280.565 464.934 291.122 464.934 304.097C464.934 317.072 475.491 327.629 488.466 327.629H497V360.21C497 364.914 493.172 368.742 488.468 368.742Z" fill="black"/>
<path d="M296.081 288.581H39.5645C35.4225 288.581 32.0645 291.939 32.0645 296.081C32.0645 300.223 35.4225 303.581 39.5645 303.581H296.08C300.222 303.581 303.58 300.223 303.58 296.081C303.58 291.939 300.223 288.581 296.081 288.581Z" fill="black"/>
</g>
<defs>
<clipPath id="clip0_56_1918">
<rect width="512" height="512" fill="white"/>
</clipPath>
</defs>
</svg>
