<svg width="512" height="512" viewBox="0 0 512 512" fill="none" xmlns="http://www.w3.org/2000/svg">
<path d="M344 128L383.35 261.789C383.781 263.254 383.999 264.773 384 266.3V496H256V128H344Z" fill="#EEBF00"/>
<path d="M304 496H24V267.939C24.0002 265.323 24.3209 262.716 24.955 260.178L64 128H344L304.955 260.178C304.321 262.716 304 265.323 304 267.939V496Z" fill="#FFD422"/>
<path d="M126.816 440H113.184C110.987 440 108.813 439.548 106.799 438.671C104.784 437.794 102.971 436.512 101.474 434.903C99.9766 433.295 98.8266 431.396 98.0954 429.324C97.3642 427.252 97.0677 425.052 97.2243 422.86L104 328H136L142.776 422.86C142.933 425.052 142.636 427.252 141.905 429.324C141.174 431.396 140.024 433.295 138.527 434.903C137.029 436.512 135.217 437.794 133.202 438.671C131.187 439.548 129.014 440 126.816 440V440Z" fill="#FF5023"/>
<path d="M214.32 440H201.68C199.445 440 197.234 439.532 195.191 438.625C193.147 437.718 191.317 436.394 189.817 434.736C188.317 433.079 187.181 431.125 186.482 429.002C185.783 426.879 185.537 424.632 185.759 422.408L192 360H224L230.241 422.408C230.464 424.632 230.217 426.879 229.519 429.002C228.82 431.125 227.684 433.079 226.184 434.736C224.684 436.394 222.853 437.718 220.81 438.625C218.766 439.532 216.556 440 214.32 440V440Z" fill="#FF5023"/>
<path d="M56 80C47.163 80 40 90.745 40 104C40 117.255 47.163 128 56 128H344V80H56Z" fill="#FFD422"/>
<path d="M392 100.773C392 105.399 391.089 109.98 389.319 114.254C387.549 118.528 384.954 122.411 381.683 125.682C378.412 128.953 374.529 131.548 370.255 133.318C365.981 135.089 361.4 136 356.774 136H337.107C336.389 136 335.692 136.239 335.126 136.68L285.2 175.512C279.551 179.905 272.4 181.898 265.293 181.059C258.186 180.22 251.695 176.617 247.224 171.029C243.039 165.797 240.93 159.205 241.3 152.515C241.67 145.825 244.495 139.507 249.232 134.769L298.493 85.508C298.945 85.0568 299.252 84.4819 299.377 83.8558C299.501 83.2298 299.437 82.5809 299.193 81.9912C298.949 81.4015 298.535 80.8976 298.004 80.5431C297.473 80.1887 296.849 79.9997 296.211 80H152L232.114 36.3C237.289 33.4782 243.089 31.9997 248.983 32H452.774C453.629 32.0003 454.45 32.3402 455.055 32.9452C455.66 33.5501 456 34.3705 456 35.226V92.774C456 93.6295 455.66 94.4499 455.055 95.0548C454.45 95.6598 453.629 95.9997 452.774 96H396.774C396.147 95.9999 395.526 96.1232 394.947 96.363C394.368 96.6028 393.842 96.9544 393.398 97.3976C392.955 97.8409 392.603 98.3671 392.363 98.9462C392.124 99.5254 392 100.146 392 100.773V100.773Z" fill="#FFB655"/>
<path d="M424 16H488V120H424V16Z" fill="#7ED63E"/>
<path d="M304 496L344 456L384 496H304Z" fill="#EEBF00"/>
<path d="M192 360V352L176 344C176 344 182 264 224 264V360H192Z" fill="#FF3501"/>
<path d="M152 296L136 328H104L88 296H152Z" fill="#FF3501"/>
<path d="M232 359.6V264C232 261.878 231.158 259.843 229.657 258.343C228.157 256.843 226.122 256 224 256C175.14 256 168.29 339.833 168.022 343.4C167.904 344.983 168.259 346.566 169.042 347.947C169.826 349.328 171.002 350.444 172.422 351.154L184 356.944V359.604L177.8 421.612C177.467 424.948 177.836 428.318 178.884 431.503C179.932 434.688 181.636 437.618 183.886 440.104C186.136 442.59 188.882 444.577 191.947 445.937C195.012 447.297 198.327 448 201.68 448H214.32C217.673 448 220.989 447.297 224.054 445.937C227.119 444.577 229.865 442.59 232.115 440.104C234.365 437.618 236.068 434.688 237.117 431.503C238.165 428.318 238.534 424.948 238.2 421.612L232 359.6ZM184.549 339.33C185.936 328.112 188.402 317.055 191.914 306.311C198.062 288.22 206.14 277.211 216 273.458V352H200C200 350.514 199.587 349.058 198.806 347.794C198.025 346.531 196.907 345.509 195.578 344.845L184.549 339.33ZM220.249 429.368C219.503 430.201 218.589 430.866 217.567 431.32C216.545 431.773 215.439 432.005 214.32 432H201.68C200.562 432 199.457 431.766 198.435 431.312C197.412 430.859 196.497 430.196 195.747 429.367C194.997 428.538 194.429 427.561 194.079 426.498C193.73 425.436 193.608 424.313 193.719 423.2L199.24 368H216.76L222.281 423.2C222.399 424.313 222.279 425.439 221.929 426.502C221.579 427.565 221.008 428.542 220.252 429.368H220.249Z" fill="black"/>
<path d="M488 8H424C421.878 8 419.843 8.84285 418.343 10.3431C416.843 11.8434 416 13.8783 416 16V24H248.982C241.75 24.0051 234.634 25.8195 228.282 29.278L149.959 72H56C42.542 72 32 86.056 32 104C32 120.748 41.185 134.1 53.351 135.811L17.283 257.911C17.251 258.02 17.221 258.13 17.193 258.239C16.4011 261.412 16.0004 264.669 16 267.939V496C16 498.122 16.8429 500.157 18.3431 501.657C19.8434 503.157 21.8783 504 24 504H384C386.122 504 388.157 503.157 389.657 501.657C391.157 500.157 392 498.122 392 496V268.608C392.001 264.787 391.453 260.986 390.374 257.321L357.042 143.993C367.897 143.913 378.326 139.758 386.26 132.35C394.195 124.943 399.057 114.824 399.881 104H416V120C416 122.122 416.843 124.157 418.343 125.657C419.843 127.157 421.878 128 424 128H488C490.122 128 492.157 127.157 493.657 125.657C495.157 124.157 496 122.122 496 120V16C496 13.8783 495.157 11.8434 493.657 10.3431C492.157 8.84285 490.122 8 488 8V8ZM48 104C48 94.233 52.738 88 56 88H284.687L252.687 120H56C52.738 120 48 113.767 48 104ZM297.193 258.24C296.401 261.413 296 264.67 296 267.94V488H32V267.939C32.0008 266.029 32.2287 264.127 32.679 262.271L69.978 136H238.213C234.037 143.056 232.451 151.347 233.729 159.446C235.008 167.545 239.069 174.945 245.216 180.372C251.362 185.799 259.208 188.913 267.403 189.178C275.597 189.444 283.629 186.844 290.113 181.826L328.6 151.889L297.283 257.912C297.251 258.021 297.221 258.131 297.193 258.24V258.24ZM344 467.314L364.686 488H323.314L344 467.314ZM375.025 261.839C375.672 264.037 376.001 266.317 376 268.608V476.686L352 452.686V280C352 277.878 351.157 275.843 349.657 274.343C348.157 272.843 346.122 272 344 272C341.878 272 339.843 272.843 338.343 274.343C336.843 275.843 336 277.878 336 280V452.687L312 476.687V267.939C312.001 266.029 312.229 264.127 312.679 262.271L343.979 156.295L375.025 261.839ZM416 88H396.773C393.387 88.004 390.14 89.351 387.746 91.7455C385.351 94.14 384.004 97.3866 384 100.773C383.992 107.992 381.121 114.912 376.016 120.016C370.912 125.121 363.992 127.992 356.773 128H337.107C334.611 128.004 332.188 128.836 330.215 130.365L280.288 169.2C276.427 172.206 271.564 173.627 266.691 173.173C261.819 172.718 257.303 170.422 254.064 166.754C250.825 163.085 249.107 158.32 249.26 153.428C249.414 148.537 251.426 143.888 254.888 140.429L309.656 85.66C310.776 84.5414 311.539 83.1157 311.848 81.5634C312.157 80.0111 311.999 78.402 311.394 76.9395C310.788 75.4771 309.762 74.2272 308.446 73.3479C307.13 72.4686 305.583 71.9995 304 72H183.374L235.945 43.324C239.945 41.1458 244.427 40.0031 248.982 40H416V88ZM480 112H432V24H480V112Z" fill="black"/>
<path d="M160 264C160 261.878 159.157 259.843 157.657 258.343C156.157 256.843 154.122 256 152 256C149.878 256 147.843 256.843 146.343 258.343C144.843 259.843 144 261.878 144 264V288H128V264C128 261.878 127.157 259.843 125.657 258.343C124.157 256.843 122.122 256 120 256C117.878 256 115.843 256.843 114.343 258.343C112.843 259.843 112 261.878 112 264V288H96V264C96 261.878 95.1571 259.843 93.6569 258.343C92.1566 256.843 90.1217 256 88 256C85.8783 256 83.8434 256.843 82.3431 258.343C80.8429 259.843 80 261.878 80 264V296H80.015C80.0095 297.241 80.2937 298.466 80.845 299.578L95.864 329.617L89.245 422.29C89.0102 425.577 89.455 428.878 90.5516 431.986C91.6483 435.094 93.3733 437.943 95.6193 440.355C97.8652 442.767 100.584 444.691 103.606 446.006C106.628 447.321 109.888 448 113.184 448H126.816C130.112 448 133.372 447.321 136.394 446.006C139.416 444.691 142.135 442.767 144.381 440.355C146.627 437.943 148.352 435.094 149.448 431.986C150.545 428.878 150.99 425.577 150.755 422.29L144.136 329.617L159.155 299.578C159.706 298.466 159.991 297.241 159.985 296H160V264ZM139.056 304L131.056 320H108.944L100.944 304H139.056ZM132.672 429.451C131.926 430.259 131.021 430.903 130.012 431.342C129.004 431.781 127.916 432.005 126.816 432H113.184C112.085 432 110.999 431.774 109.991 431.335C108.984 430.897 108.078 430.256 107.329 429.452C106.581 428.648 106.006 427.699 105.64 426.663C105.274 425.627 105.126 424.527 105.204 423.431L111.449 336H128.549L134.794 423.431C134.877 424.527 134.732 425.628 134.366 426.664C134.001 427.701 133.424 428.65 132.672 429.451V429.451Z" fill="black"/>
</svg>
