<svg width="512" height="512" viewBox="0 0 512 512" fill="none" xmlns="http://www.w3.org/2000/svg">
<g clip-path="url(#clip0_56_1940)">
<path d="M474.697 464.856H37.303C20.843 464.856 7.5 451.513 7.5 435.053V76.947C7.5 60.487 20.843 47.144 37.303 47.144H474.697C491.157 47.144 504.5 60.487 504.5 76.947V435.053C504.5 451.513 491.157 464.856 474.697 464.856Z" fill="#FFB655"/>
<path d="M474.697 47.144H409.364C425.824 47.144 439.167 60.487 439.167 76.947V435.053C439.167 451.513 425.824 464.856 409.364 464.856H474.697C491.157 464.856 504.5 451.513 504.5 435.053V76.947C504.5 60.487 491.157 47.144 474.697 47.144V47.144Z" fill="#FFA733"/>
<path d="M474.697 47.144H37.303C20.843 47.144 7.5 60.487 7.5 76.947V130.5H504.5V76.947C504.5 60.487 491.157 47.144 474.697 47.144V47.144Z" fill="#4FC123"/>
<path d="M439.167 76.947V130.5H504.5V76.947C504.5 60.487 491.157 47.144 474.697 47.144H409.364C425.823 47.144 439.167 60.487 439.167 76.947V76.947Z" fill="#47A920"/>
<path d="M158.175 316.02C153.798 315.179 150.418 311.312 150.418 306.628V280.358H113.852V306.628C113.852 311.313 110.472 315.18 106.095 316.02C79.5016 321.138 50.1436 340.04 50.1436 373.441V392.07C50.1436 396.296 53.5696 399.721 57.7946 399.721H206.475C210.701 399.721 214.126 396.295 214.126 392.07V373.441C214.126 340.039 184.768 321.137 158.175 316.02V316.02Z" fill="#FFD422"/>
<path d="M158.174 316.02C153.797 315.18 150.417 311.312 150.417 306.628V280.358H113.851V306.628C113.851 306.774 113.839 306.922 113.816 307.07C112.564 315.101 115.34 323.209 122.177 327.604C137.297 337.323 148.792 352.542 148.792 373.442V392.071C148.792 396.297 145.366 399.722 141.141 399.722H206.474C210.7 399.722 214.125 396.296 214.125 392.071V373.442C214.125 340.039 184.767 321.137 158.174 316.02Z" fill="#EEBF00"/>
<path d="M176.917 219.459C176.917 213.367 171.978 208.428 165.886 208.428H165.514C163.473 208.428 161.78 206.786 161.788 204.745C161.811 198.633 156.863 193.671 150.757 193.671H115.646C100.02 193.671 87.3525 206.338 87.3525 221.964L87.3825 261.837C87.3975 265.463 90.3135 268.39 93.8955 268.375C95.2495 268.369 96.3645 269.406 96.4885 270.754C97.2835 279.408 101.187 287.566 107.757 293.244C113.531 298.234 121.637 302.576 132.32 302.651C143.003 302.485 151.072 298.073 156.804 293.035C163.327 287.301 167.162 279.109 167.884 270.449C167.997 269.1 169.103 268.054 170.456 268.049C174.038 268.034 176.93 265.082 176.915 261.456L176.917 219.459Z" fill="#FFD422"/>
<path d="M452.968 232.825H257.412C252.503 232.825 248.524 228.846 248.524 223.937V202.558C248.524 197.649 252.503 193.67 257.412 193.67H452.969C457.878 193.67 461.857 197.649 461.857 202.558V223.937C461.857 228.846 457.877 232.825 452.968 232.825Z" fill="#FF5023"/>
<path d="M452.969 193.67H439.167V232.826H452.969C457.878 232.826 461.857 228.847 461.857 223.938V202.559C461.857 197.649 457.877 193.67 452.969 193.67Z" fill="#FF5023"/>
<path d="M65.0649 96.2991C69.1943 96.2991 72.5419 92.9515 72.5419 88.8221C72.5419 84.6927 69.1943 81.3451 65.0649 81.3451C60.9355 81.3451 57.5879 84.6927 57.5879 88.8221C57.5879 92.9515 60.9355 96.2991 65.0649 96.2991Z" fill="black"/>
<path d="M100.305 96.2991C104.435 96.2991 107.782 92.9515 107.782 88.8221C107.782 84.6927 104.435 81.3451 100.305 81.3451C96.1757 81.3451 92.8281 84.6927 92.8281 88.8221C92.8281 92.9515 96.1757 96.2991 100.305 96.2991Z" fill="black"/>
<path d="M135.545 96.2991C139.675 96.2991 143.022 92.9515 143.022 88.8221C143.022 84.6927 139.675 81.3451 135.545 81.3451C131.416 81.3451 128.068 84.6927 128.068 88.8221C128.068 92.9515 131.416 96.2991 135.545 96.2991Z" fill="black"/>
<path d="M461.856 273.481H248.523C244.38 273.481 241.023 276.839 241.023 280.981C241.023 285.123 244.38 288.481 248.523 288.481H461.856C465.999 288.481 469.356 285.123 469.356 280.981C469.356 276.839 465.999 273.481 461.856 273.481Z" fill="black"/>
<path d="M469.356 320.136C469.356 315.994 465.999 312.636 461.856 312.636H248.523C244.38 312.636 241.023 315.994 241.023 320.136C241.023 324.278 244.38 327.636 248.523 327.636H461.856C465.999 327.636 469.356 324.278 469.356 320.136Z" fill="black"/>
<path d="M248.523 351.792C244.38 351.792 241.023 355.15 241.023 359.292C241.023 363.434 244.38 366.792 248.523 366.792H355.19C359.333 366.792 362.69 363.434 362.69 359.292C362.69 355.15 359.333 351.792 355.19 351.792H248.523Z" fill="black"/>
<path d="M454.412 96.322C458.555 96.322 461.912 92.964 461.912 88.822C461.912 84.68 458.555 81.322 454.412 81.322H410.5C406.357 81.322 403 84.68 403 88.822C403 92.964 406.357 96.322 410.5 96.322H454.412Z" fill="black"/>
<path d="M474.697 39.644H37.303C16.734 39.644 0 56.378 0 76.947V435.053C0 455.622 16.734 472.356 37.303 472.356H474.698C495.266 472.356 512.001 455.622 512.001 435.053V337.667C512.001 333.525 508.644 330.167 504.501 330.167C500.358 330.167 497.001 333.525 497.001 337.667V435.053C497.001 447.351 486.996 457.356 474.698 457.356H37.303C25.005 457.356 15 447.351 15 435.053V138H47.534C51.677 138 55.034 134.642 55.034 130.5C55.034 126.358 51.677 123 47.534 123H15V76.947C15 64.649 25.005 54.644 37.303 54.644H474.698C486.996 54.644 497.001 64.649 497.001 76.947V123H82.597C78.454 123 75.097 126.358 75.097 130.5C75.097 134.642 78.454 138 82.597 138H497V302.605C497 306.747 500.357 310.105 504.5 310.105C508.643 310.105 512 306.747 512 302.605V76.947C512 56.378 495.266 39.644 474.697 39.644V39.644Z" fill="black"/>
<path d="M469.356 202.558C469.356 193.521 462.004 186.17 452.968 186.17H257.411C248.375 186.17 241.023 193.522 241.023 202.558V223.937C241.023 232.974 248.375 240.325 257.411 240.325H452.969C462.005 240.325 469.357 232.973 469.357 223.937V202.558H469.356ZM454.356 223.937C454.356 224.703 453.734 225.325 452.968 225.325H257.411C256.645 225.325 256.023 224.702 256.023 223.937V202.558C256.023 201.792 256.645 201.17 257.411 201.17H452.969C453.735 201.17 454.357 201.793 454.357 202.558V223.937H454.356Z" fill="black"/>
<path d="M104.678 308.655C73.7996 314.597 42.6436 336.934 42.6436 373.441V392.07C42.6436 400.424 49.4406 407.221 57.7946 407.221H206.475C214.829 407.221 221.626 400.424 221.626 392.07V373.441C221.626 336.934 190.47 314.597 159.589 308.654C158.779 308.498 157.918 307.735 157.918 306.627V301.701C159.233 300.761 160.516 299.755 161.756 298.665C168.706 292.555 173.287 284.19 174.885 274.815C180.441 272.934 184.443 267.638 184.417 261.453V219.458C184.417 210.286 177.719 202.648 168.956 201.181C167.356 192.808 159.965 186.169 150.757 186.169H115.646C95.9096 186.169 79.8526 202.226 79.8526 221.967L79.8826 261.865C79.8986 265.605 81.3566 269.12 83.9886 271.763C85.5706 273.35 87.4626 274.51 89.5266 275.185C91.2036 284.544 95.8536 292.867 102.853 298.915C103.987 299.895 105.156 300.809 106.351 301.665V306.626C106.352 307.735 105.49 308.499 104.678 308.655V308.655ZM94.8816 260.919L94.8526 221.962C94.8526 210.497 104.181 201.17 115.646 201.17H150.757C152.698 201.17 154.296 202.747 154.288 204.715C154.276 207.693 155.432 210.499 157.541 212.616C161.197 216.285 165.732 215.898 165.886 215.927C167.833 215.927 169.417 217.511 169.417 219.458V260.6C164.614 261.089 160.821 264.897 160.411 269.824C159.123 285.255 145.934 294.901 132.288 295.149C118.755 295.018 105.387 285.638 103.958 270.066C103.505 265.145 99.6836 261.371 94.8816 260.919V260.919ZM143.06 308.7C143.949 315.963 149.428 321.977 156.758 323.384C193.566 330.467 206.626 354.777 206.626 373.441V392.07C206.626 392.153 206.558 392.221 206.475 392.221H57.7946C57.7116 392.221 57.6436 392.153 57.6436 392.07V373.441C57.6436 354.776 70.7046 330.468 107.509 323.385C114.847 321.976 120.33 315.953 121.212 308.683C128.966 310.717 135.968 310.55 143.06 308.7V308.7Z" fill="black"/>
</g>
<defs>
<clipPath id="clip0_56_1940">
<rect width="512" height="512" fill="white"/>
</clipPath>
</defs>
</svg>
