<svg width="512" height="512" viewBox="0 0 512 512" fill="none" xmlns="http://www.w3.org/2000/svg">
<g clip-path="url(#clip0_56_2318)">
<path d="M284.217 292.483C258.615 242.761 294.714 183.571 350.64 183.571C351.904 183.571 353.154 183.612 354.397 183.671V53.871H63.7285V356.345C63.7285 361.963 68.2825 366.517 73.9005 366.517H131.474C131.556 350.885 144.25 338.237 159.901 338.237C175.552 338.237 188.247 350.885 188.328 366.517H322.337L284.217 292.483Z" fill="#FFB655"/>
<path d="M106 356.345V53.871H63.7285V356.345C63.7285 361.963 68.2825 366.517 73.9005 366.517H116.172C110.554 366.518 106 361.963 106 356.345Z" fill="#FFA733"/>
<path d="M344.225 7.5H73.9005C68.2825 7.5 63.7285 12.054 63.7285 17.672V53.871H354.397V17.672C354.397 12.054 349.843 7.5 344.225 7.5V7.5Z" fill="#4FC123"/>
<path d="M116.172 7.5H73.9005C68.2825 7.5 63.7285 12.054 63.7285 17.672V53.871H106V17.672C106 12.054 110.554 7.5 116.172 7.5V7.5Z" fill="#47A920"/>
<path d="M201.069 181.531C201.069 158.843 214.351 139.201 233.546 129.967V91.449C233.546 88.455 231.119 86.028 228.125 86.028H111.034C108.04 86.028 105.613 88.455 105.613 91.449V186.416C105.613 189.41 108.04 191.837 111.034 191.837H202.017C201.405 188.492 201.069 185.051 201.069 181.531V181.531Z" fill="#FFD422"/>
<path d="M139.066 186.417V91.449C139.066 88.455 141.493 86.028 144.487 86.028H111.034C108.04 86.028 105.613 88.455 105.613 91.449V186.416C105.613 189.41 108.04 191.837 111.034 191.837H144.487C141.493 191.838 139.066 189.411 139.066 186.417Z" fill="#FFD422"/>
<path d="M184.324 127.017H154.835C153.039 127.017 151.582 125.561 151.582 123.764V86.0289H187.576V123.765C187.577 125.561 186.121 127.017 184.324 127.017V127.017Z" fill="#EEBF00"/>
<path d="M314.295 192.906C315.04 189.228 315.435 185.425 315.435 181.531C315.435 150 289.783 124.348 258.252 124.348C226.721 124.348 201.069 150 201.069 181.531C201.069 213.062 226.721 238.714 258.252 238.714C265.87 238.714 273.139 237.204 279.792 234.488C285.706 217.073 297.927 202.034 314.295 192.906Z" fill="#4FC123"/>
<path d="M234.999 181.531C234.999 155.905 251.944 134.162 275.217 126.917C269.855 125.248 264.157 124.348 258.252 124.348C226.721 124.348 201.069 150 201.069 181.531C201.069 213.062 226.721 238.714 258.252 238.714C264.156 238.714 269.855 237.814 275.217 236.145C251.943 228.9 234.999 207.157 234.999 181.531Z" fill="#47A920"/>
<path d="M471.507 504.5C487.209 504.5 499.938 491.771 499.938 476.069C499.938 460.367 487.209 447.638 471.507 447.638C455.805 447.638 443.076 460.367 443.076 476.069C443.076 491.771 455.805 504.5 471.507 504.5Z" fill="#FFD422"/>
<path d="M468.154 476.069C468.154 464.868 474.634 455.184 484.047 450.55C480.264 448.688 476.01 447.637 471.508 447.637C455.806 447.637 443.077 460.366 443.077 476.068C443.077 491.77 455.806 504.499 471.508 504.499C476.009 504.499 480.264 503.449 484.047 501.586C474.633 496.953 468.154 487.27 468.154 476.069V476.069Z" fill="#EEBF00"/>
<path d="M40.4906 504.5C56.1926 504.5 68.9216 491.771 68.9216 476.069C68.9216 460.367 56.1926 447.638 40.4906 447.638C24.7886 447.638 12.0596 460.367 12.0596 476.069C12.0596 491.771 24.7886 504.5 40.4906 504.5Z" fill="#FFD422"/>
<path d="M37.1366 476.069C37.1366 464.868 43.6166 455.184 53.0296 450.55C49.2466 448.688 44.9926 447.637 40.4906 447.637C24.7886 447.637 12.0596 460.366 12.0596 476.068C12.0596 491.77 24.7886 504.5 40.4906 504.5C44.9916 504.5 49.2466 503.45 53.0296 501.587C43.6166 496.953 37.1366 487.27 37.1366 476.069V476.069Z" fill="#EEBF00"/>
<path d="M255.999 474.707C271.701 474.707 284.43 461.978 284.43 446.276C284.43 430.574 271.701 417.845 255.999 417.845C240.297 417.845 227.568 430.574 227.568 446.276C227.568 461.978 240.297 474.707 255.999 474.707Z" fill="#FFD422"/>
<path d="M252.645 446.276C252.645 435.075 259.125 425.391 268.538 420.757C264.755 418.895 260.501 417.844 255.999 417.844C240.297 417.844 227.568 430.573 227.568 446.275C227.568 461.977 240.297 474.706 255.999 474.706C260.5 474.706 264.755 473.656 268.538 471.793C259.125 467.161 252.645 457.477 252.645 446.276V446.276Z" fill="#EEBF00"/>
<path d="M159.902 395.1C175.604 395.1 188.333 382.371 188.333 366.669C188.333 350.967 175.604 338.238 159.902 338.238C144.2 338.238 131.471 350.967 131.471 366.669C131.471 382.371 144.2 395.1 159.902 395.1Z" fill="#FF5023"/>
<path d="M157 366.668C157 355.558 163.377 345.942 172.667 341.265C168.828 339.332 164.494 338.237 159.903 338.237C144.201 338.237 131.472 350.966 131.472 366.668C131.472 382.37 144.2 395.1 159.902 395.1C164.494 395.1 168.827 394.005 172.666 392.072C163.377 387.394 157 377.779 157 366.668V366.668Z" fill="#FF3501"/>
<path d="M355.459 412.121L417.062 292.483C442.664 242.761 406.566 183.571 350.64 183.571C294.714 183.571 258.616 242.761 284.218 292.483L345.821 412.121C347.838 416.04 353.441 416.04 355.459 412.121V412.121Z" fill="#FF5023"/>
<path d="M326.387 292.483C304.177 249.35 328.405 199.1 371.724 186.538C365.107 184.619 358.049 183.571 350.639 183.571C294.713 183.571 258.615 242.761 284.217 292.483L345.82 412.12C347.838 416.039 353.441 416.039 355.459 412.12L371.725 380.531L326.387 292.483Z" fill="#FF3501"/>
<path d="M350.64 306.263C375.338 306.263 395.359 286.242 395.359 261.544C395.359 236.846 375.338 216.825 350.64 216.825C325.942 216.825 305.921 236.846 305.921 261.544C305.921 286.242 325.942 306.263 350.64 306.263Z" fill="#EEBF00"/>
<path d="M350.64 283.169C362.583 283.169 372.265 273.487 372.265 261.544C372.265 249.601 362.583 239.919 350.64 239.919C338.696 239.919 329.015 249.601 329.015 261.544C329.015 273.487 338.696 283.169 350.64 283.169Z" fill="#FFD422"/>
<path d="M105.613 244.522H183.576C187.718 244.522 191.076 241.165 191.076 237.022C191.076 232.879 187.718 229.522 183.576 229.522H105.613C101.471 229.522 98.1133 232.879 98.1133 237.022C98.1133 241.165 101.471 244.522 105.613 244.522Z" fill="black"/>
<path d="M294.197 181.531C294.197 177.388 290.84 174.031 286.697 174.031H265.753V145.521C265.753 141.378 262.396 138.021 258.253 138.021C254.111 138.021 250.753 141.378 250.753 145.521V181.531C250.753 185.674 254.111 189.031 258.253 189.031H286.697C290.84 189.031 294.197 185.674 294.197 181.531Z" fill="black"/>
<path d="M471.509 440.138C463.606 440.138 456.296 442.708 450.357 447.049L379.655 381.516L396.749 348.317C398.645 344.634 397.197 340.112 393.515 338.215C389.833 336.319 385.31 337.767 383.413 341.449L350.64 405.098L290.885 289.05C280.069 268.044 280.955 243.459 293.258 223.287C305.561 203.114 327.012 191.071 350.64 191.071C374.268 191.071 395.718 203.114 408.021 223.287C420.324 243.459 421.21 268.044 410.394 289.05L399.439 310.326C397.543 314.009 398.991 318.531 402.673 320.428C406.356 322.324 410.879 320.876 412.775 317.194L423.73 295.918C436.96 270.224 435.876 240.152 420.828 215.478C407.761 194.053 386.255 180.132 361.897 176.835V110C361.897 105.857 358.54 102.5 354.397 102.5C350.254 102.5 346.897 105.857 346.897 110V176.164C338.578 176.532 330.517 178.123 322.918 180.822C322.535 145.482 293.682 116.847 258.252 116.847C252.294 116.847 246.529 117.673 241.046 119.188V91.448C241.046 84.323 235.25 78.527 228.125 78.527H111.035C103.91 78.527 98.1136 84.323 98.1136 91.448V186.416C98.1136 193.541 103.91 199.337 111.035 199.337H143C147.142 199.337 150.5 195.98 150.5 191.837C150.5 187.694 147.142 184.337 143 184.337H113.114V93.527H144.084V123.763C144.084 129.692 148.908 134.516 154.836 134.516H184.325C190.254 134.516 195.077 129.692 195.077 123.763V93.528H226.046V125.471C206.658 136.653 193.569 157.585 193.569 181.531C193.569 182.472 193.6 183.406 193.64 184.338H178C173.858 184.338 170.5 187.695 170.5 191.838C170.5 195.981 173.858 199.338 178 199.338H196.083C203.838 226.369 228.763 246.214 258.253 246.214C262.053 246.214 265.774 245.873 269.396 245.241C268.493 250.801 268.179 256.43 268.443 262.048H105.614C101.472 262.048 98.1136 265.405 98.1136 269.548C98.1136 273.691 101.472 277.048 105.614 277.048H270.562C271.982 283.024 274.088 288.899 276.884 294.573H105.614C101.472 294.573 98.1136 297.93 98.1136 302.073C98.1136 306.216 101.472 309.573 105.614 309.573H284.581L310.04 359.017H195.005C191.488 342.869 177.089 330.737 159.902 330.737C142.715 330.737 128.316 342.869 124.799 359.017H73.9006C72.4276 359.017 71.2286 357.819 71.2286 356.345V61.371H346.897V75C346.897 79.143 350.254 82.5 354.397 82.5C358.54 82.5 361.897 79.143 361.897 75V17.672C361.897 7.928 353.969 0 344.225 0H73.9006C64.1566 0 56.2286 7.928 56.2286 17.672V356.346C56.2286 366.09 64.1566 374.018 73.9006 374.018H124.729C125.529 377.851 126.947 381.459 128.865 384.74L61.6416 447.048C55.7026 442.708 48.3926 440.138 40.4906 440.138C20.6786 440.138 4.55957 456.256 4.55957 476.069C4.55957 495.882 20.6776 512 40.4906 512C60.3036 512 76.4216 495.881 76.4216 476.068C76.4216 469.574 74.6816 463.483 71.6556 458.22L138.96 395.837C144.861 400.086 152.092 402.599 159.903 402.599C168.557 402.599 176.506 399.523 182.716 394.408L223.106 431.845C221.159 436.265 220.07 441.145 220.07 446.276C220.07 466.088 236.189 482.207 256.001 482.207C275.813 482.207 291.933 466.089 291.933 446.276C291.933 441.144 290.844 436.265 288.897 431.844L328.595 395.048L339.154 415.555C341.38 419.875 345.782 422.56 350.641 422.56C355.501 422.56 359.904 419.875 362.129 415.554L372.527 395.36L440.345 458.22C437.319 463.483 435.579 469.574 435.579 476.068C435.579 495.88 451.698 512 471.511 512C491.324 512 507.443 495.881 507.443 476.068C507.443 456.255 491.321 440.138 471.509 440.138ZM180.078 119.518H159.084V93.528H180.078V119.518ZM273.926 228.672C268.997 230.318 263.728 231.214 258.252 231.214C230.857 231.214 208.569 208.927 208.569 181.531C208.569 154.135 230.857 131.847 258.252 131.847C285.648 131.847 307.936 154.135 307.936 181.531C307.936 183.801 307.776 186.033 307.478 188.222C296.658 194.897 287.37 204.132 280.451 215.476C277.858 219.73 275.689 224.147 273.926 228.672ZM71.2286 17.672C71.2286 16.198 72.4276 15 73.9006 15H344.225C345.699 15 346.897 16.198 346.897 17.672V46.371H71.2286V17.672ZM40.4906 497C28.9486 497 19.5596 487.61 19.5596 476.068C19.5596 464.527 28.9496 455.137 40.4906 455.137C52.0316 455.137 61.4216 464.527 61.4216 476.068C61.4216 487.61 52.0316 497 40.4906 497ZM159.902 387.6C148.36 387.6 138.971 378.21 138.971 366.669C138.971 355.127 148.361 345.737 159.902 345.737C171.443 345.737 180.833 355.127 180.833 366.669C180.833 378.21 171.444 387.6 159.902 387.6ZM256 467.207C244.458 467.207 235.069 457.817 235.069 446.276C235.069 434.734 244.459 425.344 256 425.344C267.542 425.344 276.932 434.734 276.932 446.276C276.931 457.817 267.542 467.207 256 467.207ZM280.041 419.598C273.669 413.85 265.237 410.344 256 410.344C246.763 410.344 238.331 413.85 231.959 419.598L192.079 382.634C193.424 379.935 194.443 377.047 195.075 374.017H317.764L321.464 381.203L280.041 419.598ZM471.509 497C459.967 497 450.577 487.61 450.577 476.068C450.577 464.527 459.967 455.137 471.509 455.137C483.051 455.137 492.441 464.527 492.441 476.068C492.44 487.61 483.051 497 471.509 497Z" fill="black"/>
<path d="M351.219 210C322.425 210 299 233.425 299 262.219C299 291.013 322.425 314.439 351.219 314.439C380.013 314.439 403.439 291.013 403.439 262.219C403.439 233.425 380.013 210 351.219 210ZM351.219 299.439C330.697 299.439 314 282.743 314 262.219C314 241.697 330.696 225 351.219 225C371.742 225 388.439 241.696 388.439 262.219C388.439 282.742 371.743 299.439 351.219 299.439Z" fill="black"/>
<path d="M351.124 233C335.065 233 322 246.065 322 262.124C322 278.184 335.065 291.249 351.124 291.249C367.184 291.249 380.249 278.184 380.249 262.124C380.249 246.065 367.184 233 351.124 233ZM351.124 276.249C343.336 276.249 337 269.912 337 262.124C337 254.336 343.336 248 351.124 248C358.912 248 365.249 254.336 365.249 262.124C365.249 269.912 358.912 276.249 351.124 276.249Z" fill="black"/>
</g>
<defs>
<clipPath id="clip0_56_2318">
<rect width="512" height="512" fill="white"/>
</clipPath>
</defs>
</svg>
