<svg xmlns="http://www.w3.org/2000/svg" xmlns:xlink="http://www.w3.org/1999/xlink" viewBox="0 0 100 100" version="1.1" x="0px" y="0px" style="max-width:100%"><title style="" fill="currentColor">Artboard</title><desc style="" fill="currentColor">Created with Sketch.</desc><g stroke="currentColor" stroke-width="1" fill="none" fill-rule="evenodd" style=""><path d="M50,15 C56.6257125,15 62.2480741,19.2958558 64.2337583,25.254241 C65.1300478,25.0874215 66.0548147,25 67,25 C75.2842712,25 82,31.7157288 82,40 C82,46.5306882 77.8264807,52.0865987 72.0010864,54.1460874 L72,85 L28,85 L27.9999123,54.1464405 C22.1739962,52.0872337 18,46.5310614 18,40 C18,31.7157288 24.7157288,25 33,25 C33.9451853,25 34.8699522,25.0874215 35.7666561,25.25462 C37.7519259,19.2958558 43.3742875,15 50,15 Z M45,74 L43,74 L43,82 L45,82 L45,74 Z M51,74 L49,74 L49,82 L51,82 L51,74 Z M57,74 L55,74 L55,82 L57,82 L57,74 Z" fill="currentColor" style=""/></g></svg>