<svg width="512" height="512" viewBox="0 0 512 512" fill="none" xmlns="http://www.w3.org/2000/svg">
<g clip-path="url(#clip0_56_2369)">
<path d="M291.441 0.000244141C285.918 0.000244141 281.441 4.47681 281.441 10.0002C281.441 15.5237 285.918 20.0002 291.441 20.0002C402.031 20.0002 492 109.973 492 220.559C492 226.082 496.48 230.559 502 230.559C507.523 230.559 512 226.082 512 220.559C512 98.9456 413.059 0.000244141 291.441 0.000244141V0.000244141Z" fill="white"/>
<path d="M441.844 230.563C447.367 230.563 451.844 226.082 451.844 220.563C451.844 132.114 379.887 60.1565 291.441 60.1565C285.918 60.1565 281.441 64.637 281.441 70.1565C281.441 75.6799 285.918 80.1565 291.441 80.1565C368.859 80.1565 431.844 143.141 431.844 220.563C431.844 226.082 436.32 230.563 441.844 230.563Z" fill="white"/>
<path d="M371.676 220.563C371.676 226.082 376.152 230.563 381.676 230.563C387.199 230.563 391.676 226.082 391.676 220.563C391.676 165.293 346.711 120.328 291.441 120.328C285.918 120.328 281.441 124.805 281.441 130.324C281.441 135.848 285.918 140.324 291.441 140.324C335.684 140.324 371.676 176.317 371.676 220.563Z" fill="white"/>
<path d="M281.441 190.484C281.441 196.004 285.918 200.48 291.441 200.48C302.512 200.48 311.52 209.488 311.52 220.562C311.52 226.082 315.996 230.562 321.52 230.562C327.039 230.562 331.52 226.082 331.52 220.562C331.52 198.461 313.539 180.484 291.441 180.484C285.918 180.484 281.441 184.961 281.441 190.484Z" fill="white"/>
<path d="M187.434 324.68C187.434 330.203 182.957 334.68 177.434 334.68C171.91 334.68 167.434 330.203 167.434 324.68C167.434 319.16 171.91 314.68 177.434 314.68C182.957 314.68 187.434 319.16 187.434 324.68Z" fill="white"/>
<path d="M274.031 499.86C319.567 522.176 374.348 512.891 410.356 476.883L431.031 456.207C442.258 444.992 442.262 426.824 431.035 415.602L351.145 335.719C339.938 324.496 321.766 324.481 310.547 335.715L276.602 369.664C269.953 376.313 259.692 377.668 252.207 372.891C240.004 365.09 228.133 356.489 216.926 347.324C212.649 343.828 206.352 344.461 202.856 348.735C199.36 353.012 199.992 359.313 204.266 362.805C216.074 372.461 228.578 381.524 241.442 389.742C256.774 399.535 277.508 397.039 290.742 383.805L324.695 349.852C328.09 346.453 333.59 346.446 337 349.856L416.895 429.742C420.297 433.149 420.305 438.656 416.895 442.059L396.215 462.742C366.219 492.739 320.656 500.438 282.832 481.903C144.266 413.953 68.8751 306.211 30.0314 227.789C11.4494 190.285 19.1642 144.895 49.2306 114.836L69.4572 94.6135C72.8478 91.2151 78.3517 91.2034 81.7579 94.6174L161.66 174.516C165.043 177.895 165.078 183.403 161.652 186.821L127.707 220.77C114.473 234.004 111.977 254.739 121.77 270.074C127.539 279.102 133.758 288.008 140.258 296.543C143.602 300.938 149.875 301.785 154.27 298.442C158.664 295.098 159.516 288.824 156.168 284.426C150.004 276.328 144.098 267.875 138.621 259.309C133.844 251.821 135.199 241.559 141.848 234.91L175.789 200.969C187.012 189.762 187.024 171.586 175.797 160.371L95.9025 80.4807C84.6993 69.2581 66.5236 69.2424 55.3087 80.4768L35.09 100.696C-1.05065 136.824 -10.285 191.469 12.1095 236.668C52.3322 317.867 130.418 429.438 274.031 499.86V499.86Z" fill="white"/>
</g>
<defs>
<clipPath id="clip0_56_2369">
<rect width="512" height="512" fill="white"/>
</clipPath>
</defs>
</svg>
