<svg width="475" height="89" viewBox="0 0 475 89" fill="none" xmlns="http://www.w3.org/2000/svg">
<g clip-path="url(#clip0_281_57)">
<path d="M108.56 45C108.208 45 107.92 44.888 107.696 44.664C107.472 44.44 107.36 44.152 107.36 43.8V12.6C107.36 12.248 107.472 11.96 107.696 11.736C107.92 11.512 108.208 11.4 108.56 11.4H130.592C130.944 11.4 131.232 11.512 131.456 11.736C131.712 11.96 131.84 12.248 131.84 12.6V17.448C131.84 17.8 131.712 18.088 131.456 18.312C131.232 18.536 130.944 18.648 130.592 18.648H115.808V25.704H129.632C129.984 25.704 130.272 25.832 130.496 26.088C130.752 26.312 130.88 26.6 130.88 26.952V31.752C130.88 32.072 130.752 32.36 130.496 32.616C130.272 32.84 129.984 32.952 129.632 32.952H115.808V43.8C115.808 44.152 115.696 44.44 115.472 44.664C115.248 44.888 114.96 45 114.608 45H108.56ZM137.235 45C136.883 45 136.595 44.888 136.371 44.664C136.147 44.44 136.035 44.152 136.035 43.8V21.24C136.035 20.92 136.147 20.648 136.371 20.424C136.595 20.168 136.883 20.04 137.235 20.04H142.755C143.107 20.04 143.395 20.168 143.619 20.424C143.843 20.648 143.955 20.92 143.955 21.24V23.16C144.819 22.168 145.843 21.4 147.027 20.856C148.243 20.312 149.603 20.04 151.107 20.04H153.219C153.539 20.04 153.811 20.152 154.035 20.376C154.291 20.6 154.419 20.888 154.419 21.24V26.184C154.419 26.504 154.291 26.792 154.035 27.048C153.811 27.272 153.539 27.384 153.219 27.384H148.563C147.251 27.384 146.227 27.752 145.491 28.488C144.787 29.192 144.435 30.2 144.435 31.512V43.8C144.435 44.152 144.307 44.44 144.051 44.664C143.827 44.888 143.539 45 143.187 45H137.235ZM169.165 45.48C165.389 45.48 162.381 44.456 160.141 42.408C157.901 40.36 156.733 37.32 156.637 33.288C156.637 33.064 156.637 32.776 156.637 32.424C156.637 32.072 156.637 31.8 156.637 31.608C156.733 29.08 157.293 26.92 158.317 25.128C159.373 23.304 160.813 21.928 162.637 21C164.493 20.04 166.653 19.56 169.117 19.56C171.933 19.56 174.253 20.12 176.077 21.24C177.933 22.36 179.325 23.88 180.253 25.8C181.181 27.72 181.645 29.912 181.645 32.376V33.528C181.645 33.88 181.517 34.168 181.26 34.392C181.037 34.616 180.765 34.728 180.445 34.728H165.085C165.085 34.76 165.085 34.808 165.085 34.872C165.085 34.936 165.085 35 165.085 35.064C165.117 35.992 165.277 36.84 165.565 37.608C165.853 38.376 166.301 38.984 166.909 39.432C167.517 39.88 168.253 40.104 169.117 40.104C169.757 40.104 170.285 40.008 170.701 39.816C171.149 39.592 171.517 39.352 171.805 39.096C172.093 38.808 172.317 38.568 172.477 38.376C172.765 38.056 172.989 37.864 173.149 37.8C173.341 37.704 173.629 37.656 174.013 37.656H179.965C180.285 37.656 180.541 37.752 180.733 37.944C180.957 38.104 181.053 38.344 181.021 38.664C180.989 39.208 180.717 39.864 180.205 40.632C179.693 41.4 178.941 42.168 177.949 42.936C176.989 43.672 175.773 44.28 174.301 44.76C172.829 45.24 171.117 45.48 169.165 45.48ZM165.085 29.976H173.197V29.88C173.197 28.856 173.037 27.96 172.717 27.192C172.429 26.424 171.965 25.832 171.325 25.416C170.717 25 169.981 24.792 169.117 24.792C168.253 24.792 167.517 25 166.909 25.416C166.333 25.832 165.885 26.424 165.565 27.192C165.245 27.96 165.085 28.856 165.085 29.88V29.976ZM195.457 45.48C193.921 45.48 192.529 45.24 191.281 44.76C190.065 44.248 189.009 43.512 188.113 42.552C187.249 41.56 186.577 40.376 186.097 39C185.617 37.592 185.345 35.992 185.281 34.2C185.249 33.56 185.233 33 185.233 32.52C185.233 32.008 185.249 31.448 185.281 30.84C185.345 29.112 185.617 27.56 186.097 26.184C186.577 24.808 187.249 23.624 188.113 22.632C188.977 21.64 190.033 20.888 191.281 20.376C192.529 19.832 193.921 19.56 195.457 19.56C197.057 19.56 198.433 19.832 199.585 20.376C200.737 20.888 201.713 21.56 202.513 22.392V12.12C202.513 11.768 202.625 11.48 202.849 11.256C203.073 11.032 203.361 10.92 203.713 10.92H209.569C209.889 10.92 210.161 11.032 210.385 11.256C210.641 11.48 210.769 11.768 210.769 12.12V43.8C210.769 44.152 210.641 44.44 210.385 44.664C210.161 44.888 209.889 45 209.569 45H204.145C203.793 45 203.505 44.888 203.281 44.664C203.057 44.44 202.945 44.152 202.945 43.8V42.264C202.177 43.192 201.185 43.96 199.969 44.568C198.753 45.176 197.249 45.48 195.457 45.48ZM198.049 39.048C199.137 39.048 199.985 38.824 200.593 38.376C201.233 37.896 201.697 37.288 201.985 36.552C202.305 35.816 202.481 35.016 202.513 34.152C202.545 33.512 202.561 32.904 202.561 32.328C202.561 31.752 202.545 31.16 202.513 30.552C202.481 29.752 202.305 29.016 201.985 28.344C201.665 27.64 201.185 27.08 200.545 26.664C199.905 26.216 199.073 25.992 198.049 25.992C196.993 25.992 196.145 26.216 195.505 26.664C194.897 27.112 194.465 27.72 194.209 28.488C193.953 29.256 193.793 30.104 193.729 31.032C193.633 32.024 193.633 33.016 193.729 34.008C193.793 34.936 193.953 35.784 194.209 36.552C194.465 37.32 194.897 37.928 195.505 38.376C196.145 38.824 196.993 39.048 198.049 39.048ZM225.738 45.48C224.202 45.48 222.81 45.24 221.562 44.76C220.346 44.248 219.29 43.512 218.394 42.552C217.53 41.56 216.858 40.376 216.378 39C215.898 37.592 215.626 35.992 215.562 34.2C215.53 33.56 215.514 33 215.514 32.52C215.514 32.008 215.53 31.448 215.562 30.84C215.626 29.112 215.898 27.56 216.378 26.184C216.858 24.808 217.53 23.624 218.394 22.632C219.258 21.64 220.314 20.888 221.562 20.376C222.81 19.832 224.202 19.56 225.738 19.56C227.338 19.56 228.714 19.832 229.866 20.376C231.018 20.888 231.994 21.56 232.794 22.392V12.12C232.794 11.768 232.906 11.48 233.13 11.256C233.354 11.032 233.642 10.92 233.994 10.92H239.85C240.17 10.92 240.442 11.032 240.666 11.256C240.922 11.48 241.05 11.768 241.05 12.12V43.8C241.05 44.152 240.922 44.44 240.666 44.664C240.442 44.888 240.17 45 239.85 45H234.426C234.074 45 233.786 44.888 233.562 44.664C233.338 44.44 233.226 44.152 233.226 43.8V42.264C232.458 43.192 231.466 43.96 230.25 44.568C229.034 45.176 227.53 45.48 225.738 45.48ZM228.33 39.048C229.418 39.048 230.266 38.824 230.874 38.376C231.514 37.896 231.978 37.288 232.266 36.552C232.586 35.816 232.762 35.016 232.794 34.152C232.826 33.512 232.842 32.904 232.842 32.328C232.842 31.752 232.826 31.16 232.794 30.552C232.762 29.752 232.586 29.016 232.266 28.344C231.946 27.64 231.466 27.08 230.826 26.664C230.186 26.216 229.354 25.992 228.33 25.992C227.274 25.992 226.426 26.216 225.786 26.664C225.178 27.112 224.746 27.72 224.49 28.488C224.234 29.256 224.074 30.104 224.01 31.032C223.914 32.024 223.914 33.016 224.01 34.008C224.074 34.936 224.234 35.784 224.49 36.552C224.746 37.32 225.178 37.928 225.786 38.376C226.426 38.824 227.274 39.048 228.33 39.048ZM251.363 54.12C251.075 54.12 250.835 54.024 250.643 53.832C250.451 53.64 250.355 53.4 250.355 53.112C250.355 53.048 250.355 52.952 250.355 52.824C250.387 52.728 250.435 52.616 250.499 52.488L254.243 43.464L245.027 21.672C244.931 21.448 244.883 21.256 244.883 21.096C244.947 20.808 245.075 20.568 245.267 20.376C245.459 20.152 245.699 20.04 245.987 20.04H251.459C251.875 20.04 252.179 20.152 252.371 20.376C252.595 20.568 252.739 20.792 252.803 21.048L258.323 35.016L263.939 21.048C264.067 20.792 264.227 20.568 264.419 20.376C264.643 20.152 264.963 20.04 265.379 20.04H270.755C271.043 20.04 271.283 20.152 271.475 20.376C271.699 20.568 271.811 20.792 271.811 21.048C271.811 21.208 271.763 21.416 271.667 21.672L258.083 53.112C257.987 53.368 257.827 53.592 257.603 53.784C257.379 54.008 257.059 54.12 256.643 54.12H251.363ZM286.076 45C285.724 45 285.436 44.888 285.212 44.664C284.988 44.44 284.876 44.152 284.876 43.8V12.6C284.876 12.248 284.988 11.96 285.212 11.736C285.436 11.512 285.724 11.4 286.076 11.4H300.716C303.468 11.4 305.724 11.784 307.484 12.552C309.244 13.32 310.54 14.424 311.372 15.864C312.236 17.272 312.668 18.952 312.668 20.904C312.668 22.056 312.444 23.08 311.996 23.976C311.58 24.84 311.052 25.56 310.412 26.136C309.804 26.712 309.228 27.128 308.684 27.384C309.9 27.96 310.972 28.904 311.9 30.216C312.86 31.528 313.34 33.064 313.34 34.824C313.34 36.936 312.86 38.76 311.9 40.296C310.972 41.8 309.596 42.968 307.772 43.8C305.98 44.6 303.772 45 301.148 45H286.076ZM293.468 38.76H300.188C301.564 38.76 302.604 38.36 303.308 37.56C304.012 36.76 304.364 35.848 304.364 34.824C304.364 33.704 303.996 32.76 303.26 31.992C302.556 31.224 301.532 30.84 300.188 30.84H293.468V38.76ZM293.468 24.744H299.756C301.068 24.744 302.044 24.408 302.684 23.736C303.356 23.064 303.692 22.2 303.692 21.144C303.692 20.12 303.356 19.288 302.684 18.648C302.044 17.976 301.068 17.64 299.756 17.64H293.468V24.744ZM327.312 45.48C325.489 45.48 323.857 45.064 322.417 44.232C321.009 43.4 319.905 42.184 319.105 40.584C318.305 38.952 317.905 36.968 317.905 34.632V21.24C317.905 20.888 318.017 20.6 318.241 20.376C318.465 20.152 318.753 20.04 319.105 20.04H325.105C325.457 20.04 325.745 20.152 325.969 20.376C326.193 20.6 326.305 20.888 326.305 21.24V34.344C326.305 37.48 327.713 39.048 330.529 39.048C331.841 39.048 332.881 38.648 333.649 37.848C334.449 37.016 334.849 35.848 334.849 34.344V21.24C334.849 20.888 334.961 20.6 335.185 20.376C335.409 20.152 335.697 20.04 336.049 20.04H342.049C342.401 20.04 342.689 20.152 342.913 20.376C343.137 20.6 343.249 20.888 343.249 21.24V43.8C343.249 44.152 343.137 44.44 342.913 44.664C342.689 44.888 342.401 45 342.049 45H336.481C336.161 45 335.873 44.888 335.617 44.664C335.393 44.44 335.281 44.152 335.281 43.8V41.976C334.449 43.128 333.361 44.008 332.017 44.616C330.705 45.192 329.137 45.48 327.312 45.48ZM350.095 45C349.743 45 349.455 44.888 349.23 44.664C349.007 44.44 348.895 44.152 348.895 43.8V21.24C348.895 20.92 349.007 20.648 349.23 20.424C349.455 20.168 349.743 20.04 350.095 20.04H355.615C355.967 20.04 356.255 20.168 356.479 20.424C356.703 20.648 356.815 20.92 356.815 21.24V23.16C357.679 22.168 358.703 21.4 359.887 20.856C361.103 20.312 362.463 20.04 363.967 20.04H366.079C366.399 20.04 366.671 20.152 366.895 20.376C367.151 20.6 367.279 20.888 367.279 21.24V26.184C367.279 26.504 367.151 26.792 366.895 27.048C366.671 27.272 366.399 27.384 366.079 27.384H361.423C360.111 27.384 359.087 27.752 358.351 28.488C357.647 29.192 357.295 30.2 357.295 31.512V43.8C357.295 44.152 357.167 44.44 356.911 44.664C356.687 44.888 356.399 45 356.047 45H350.095ZM382.697 55.56C380.233 55.56 378.185 55.24 376.553 54.6C374.953 53.96 373.673 53.192 372.713 52.296C371.785 51.4 371.113 50.504 370.697 49.608C370.281 48.744 370.057 48.056 370.025 47.544C369.993 47.192 370.105 46.904 370.361 46.68C370.617 46.456 370.921 46.344 371.273 46.344H377.369C377.657 46.344 377.897 46.408 378.089 46.536C378.313 46.696 378.489 46.952 378.617 47.304C378.777 47.656 378.985 48.024 379.241 48.408C379.529 48.792 379.913 49.096 380.393 49.32C380.905 49.576 381.593 49.704 382.457 49.704C383.417 49.704 384.217 49.544 384.857 49.224C385.497 48.936 385.977 48.44 386.297 47.736C386.617 47.064 386.777 46.152 386.777 45V41.784C386.041 42.584 385.097 43.24 383.945 43.752C382.793 44.232 381.401 44.472 379.769 44.472C378.137 44.472 376.697 44.232 375.449 43.752C374.201 43.272 373.161 42.552 372.329 41.592C371.497 40.632 370.841 39.464 370.361 38.088C369.913 36.712 369.641 35.128 369.545 33.336C369.513 32.504 369.513 31.672 369.545 30.84C369.641 29.112 369.913 27.56 370.361 26.184C370.809 24.808 371.449 23.624 372.281 22.632C373.145 21.64 374.201 20.888 375.449 20.376C376.697 19.832 378.137 19.56 379.769 19.56C381.497 19.56 382.969 19.896 384.185 20.568C385.433 21.208 386.457 22.024 387.257 23.016V21.24C387.257 20.92 387.369 20.648 387.593 20.424C387.817 20.168 388.105 20.04 388.457 20.04H393.977C394.329 20.04 394.617 20.168 394.841 20.424C395.097 20.648 395.225 20.92 395.225 21.24V44.328C395.225 46.76 394.729 48.808 393.737 50.472C392.745 52.136 391.321 53.4 389.465 54.264C387.609 55.128 385.353 55.56 382.697 55.56ZM382.361 38.232C383.385 38.232 384.217 38.008 384.857 37.56C385.497 37.112 385.961 36.536 386.249 35.832C386.569 35.128 386.745 34.376 386.777 33.576C386.809 33.224 386.825 32.728 386.825 32.088C386.825 31.448 386.809 30.968 386.777 30.648C386.745 29.816 386.569 29.048 386.249 28.344C385.961 27.64 385.497 27.08 384.857 26.664C384.217 26.216 383.385 25.992 382.361 25.992C381.305 25.992 380.457 26.216 379.817 26.664C379.209 27.112 378.761 27.72 378.473 28.488C378.217 29.256 378.057 30.104 377.993 31.032C377.961 31.736 377.961 32.456 377.993 33.192C378.057 34.12 378.217 34.968 378.473 35.736C378.761 36.504 379.209 37.112 379.817 37.56C380.457 38.008 381.305 38.232 382.361 38.232ZM412.399 45.48C408.623 45.48 405.615 44.456 403.375 42.408C401.135 40.36 399.967 37.32 399.871 33.288C399.871 33.064 399.871 32.776 399.871 32.424C399.871 32.072 399.871 31.8 399.871 31.608C399.967 29.08 400.527 26.92 401.551 25.128C402.607 23.304 404.047 21.928 405.871 21C407.727 20.04 409.887 19.56 412.351 19.56C415.167 19.56 417.487 20.12 419.311 21.24C421.167 22.36 422.559 23.88 423.487 25.8C424.415 27.72 424.879 29.912 424.879 32.376V33.528C424.879 33.88 424.751 34.168 424.495 34.392C424.271 34.616 423.999 34.728 423.679 34.728H408.319C408.319 34.76 408.319 34.808 408.319 34.872C408.319 34.936 408.319 35 408.319 35.064C408.351 35.992 408.511 36.84 408.799 37.608C409.087 38.376 409.535 38.984 410.143 39.432C410.751 39.88 411.487 40.104 412.351 40.104C412.991 40.104 413.519 40.008 413.935 39.816C414.383 39.592 414.751 39.352 415.039 39.096C415.327 38.808 415.551 38.568 415.711 38.376C415.999 38.056 416.223 37.864 416.383 37.8C416.575 37.704 416.863 37.656 417.247 37.656H423.199C423.519 37.656 423.775 37.752 423.967 37.944C424.191 38.104 424.287 38.344 424.255 38.664C424.223 39.208 423.951 39.864 423.439 40.632C422.927 41.4 422.175 42.168 421.183 42.936C420.223 43.672 419.007 44.28 417.535 44.76C416.063 45.24 414.351 45.48 412.399 45.48ZM408.319 29.976H416.431V29.88C416.431 28.856 416.271 27.96 415.951 27.192C415.663 26.424 415.199 25.832 414.559 25.416C413.951 25 413.215 24.792 412.351 24.792C411.487 24.792 410.751 25 410.143 25.416C409.567 25.832 409.119 26.424 408.799 27.192C408.479 27.96 408.319 28.856 408.319 29.88V29.976ZM430.579 45C430.227 45 429.939 44.888 429.715 44.664C429.491 44.44 429.379 44.152 429.379 43.8V21.24C429.379 20.92 429.491 20.648 429.715 20.424C429.939 20.168 430.227 20.04 430.579 20.04H436.099C436.451 20.04 436.739 20.168 436.963 20.424C437.187 20.648 437.299 20.92 437.299 21.24V23.16C438.163 22.168 439.187 21.4 440.371 20.856C441.587 20.312 442.947 20.04 444.451 20.04H446.563C446.883 20.04 447.155 20.152 447.379 20.376C447.635 20.6 447.763 20.888 447.763 21.24V26.184C447.763 26.504 447.635 26.792 447.379 27.048C447.155 27.272 446.883 27.384 446.563 27.384H441.907C440.595 27.384 439.571 27.752 438.835 28.488C438.131 29.192 437.779 30.2 437.779 31.512V43.8C437.779 44.152 437.651 44.44 437.395 44.664C437.171 44.888 436.883 45 436.531 45H430.579ZM461.448 45.48C459.368 45.48 457.592 45.256 456.12 44.808C454.68 44.328 453.496 43.752 452.568 43.08C451.672 42.408 451 41.72 450.552 41.016C450.104 40.28 449.864 39.656 449.832 39.144C449.8 38.792 449.912 38.504 450.168 38.28C450.424 38.024 450.696 37.896 450.984 37.896H456.456C456.552 37.896 456.632 37.912 456.696 37.944C456.76 37.976 456.856 38.04 456.984 38.136C457.4 38.36 457.816 38.648 458.232 39C458.648 39.32 459.128 39.608 459.672 39.864C460.216 40.12 460.872 40.248 461.64 40.248C462.536 40.248 463.288 40.072 463.896 39.72C464.504 39.368 464.808 38.84 464.808 38.136C464.808 37.624 464.664 37.208 464.376 36.888C464.088 36.536 463.496 36.2 462.6 35.88C461.736 35.56 460.424 35.24 458.664 34.92C457 34.536 455.544 34.04 454.296 33.432C453.048 32.792 452.088 31.976 451.416 30.984C450.744 29.96 450.408 28.728 450.408 27.288C450.408 26.008 450.824 24.776 451.656 23.592C452.488 22.408 453.704 21.448 455.304 20.712C456.904 19.944 458.872 19.56 461.208 19.56C463.064 19.56 464.664 19.784 466.008 20.232C467.384 20.648 468.536 21.192 469.464 21.864C470.424 22.536 471.144 23.224 471.624 23.928C472.104 24.632 472.36 25.272 472.392 25.848C472.424 26.168 472.328 26.456 472.104 26.712C471.88 26.936 471.624 27.048 471.336 27.048H466.344C466.216 27.048 466.088 27.032 465.96 27C465.832 26.936 465.72 26.872 465.624 26.808C465.24 26.616 464.856 26.36 464.472 26.04C464.088 25.72 463.64 25.432 463.128 25.176C462.616 24.92 461.976 24.792 461.208 24.792C460.344 24.792 459.672 24.984 459.192 25.368C458.712 25.752 458.472 26.248 458.472 26.856C458.472 27.272 458.6 27.656 458.856 28.008C459.144 28.36 459.704 28.68 460.536 28.968C461.4 29.256 462.728 29.576 464.52 29.928C466.728 30.28 468.488 30.856 469.8 31.656C471.112 32.424 472.04 33.336 472.584 34.392C473.128 35.416 473.4 36.504 473.4 37.656C473.4 39.192 472.936 40.552 472.008 41.736C471.112 42.92 469.768 43.848 467.976 44.52C466.184 45.16 464.008 45.48 461.448 45.48Z" fill="white"/>
<path d="M106.958 85C106.765 85 106.6 84.9323 106.465 84.797C106.33 84.6617 106.262 84.4973 106.262 84.304V65.425C106.262 65.2123 106.33 65.0383 106.465 64.903C106.6 64.7677 106.765 64.7 106.958 64.7H115.368C116.934 64.7 118.21 64.9417 119.196 65.425C120.182 65.889 120.907 66.5367 121.371 67.368C121.854 68.1993 122.096 69.166 122.096 70.268C122.096 71.0027 121.961 71.6503 121.69 72.211C121.439 72.7523 121.12 73.197 120.733 73.545C120.366 73.893 119.998 74.1637 119.631 74.357C120.385 74.705 121.052 75.285 121.632 76.097C122.212 76.909 122.502 77.8757 122.502 78.997C122.502 80.157 122.241 81.1913 121.719 82.1C121.197 83.0087 120.424 83.724 119.399 84.246C118.374 84.7487 117.108 85 115.6 85H106.958ZM110.293 81.926H115.136C116.18 81.926 116.973 81.6457 117.514 81.085C118.055 80.505 118.326 79.809 118.326 78.997C118.326 78.1463 118.046 77.4407 117.485 76.88C116.944 76.3193 116.161 76.039 115.136 76.039H110.293V81.926ZM110.293 73.023H114.846C115.871 73.023 116.634 72.7813 117.137 72.298C117.659 71.7953 117.92 71.1477 117.92 70.355C117.92 69.543 117.659 68.9147 117.137 68.47C116.634 68.006 115.871 67.774 114.846 67.774H110.293V73.023ZM138.294 85.29C136.612 85.29 135.152 85.0097 133.915 84.449C132.678 83.869 131.721 82.9893 131.044 81.81C130.367 80.6113 130.029 79.084 130.029 77.228V65.425C130.029 65.2123 130.097 65.0383 130.232 64.903C130.367 64.7677 130.532 64.7 130.725 64.7H133.364C133.577 64.7 133.741 64.7677 133.857 64.903C133.992 65.0383 134.06 65.2123 134.06 65.425V77.228C134.06 78.8133 134.437 79.9927 135.191 80.766C135.945 81.52 136.979 81.897 138.294 81.897C139.609 81.897 140.633 81.52 141.368 80.766C142.122 79.9927 142.499 78.8133 142.499 77.228V65.425C142.499 65.2123 142.567 65.0383 142.702 64.903C142.837 64.7677 143.011 64.7 143.224 64.7H145.834C146.047 64.7 146.211 64.7677 146.327 64.903C146.462 65.0383 146.53 65.2123 146.53 65.425V77.228C146.53 79.084 146.192 80.6113 145.515 81.81C144.858 82.9893 143.91 83.869 142.673 84.449C141.455 85.0097 139.995 85.29 138.294 85.29ZM155.633 85C155.439 85 155.275 84.9323 155.14 84.797C155.004 84.6617 154.937 84.4973 154.937 84.304V65.425C154.937 65.2123 155.004 65.0383 155.14 64.903C155.275 64.7677 155.439 64.7 155.633 64.7H163.144C165.483 64.7 167.329 65.2413 168.683 66.324C170.036 67.4067 170.713 68.9823 170.713 71.051C170.713 72.4817 170.355 73.6707 169.64 74.618C168.944 75.5653 168.006 76.2517 166.827 76.677L171.061 84.072C171.119 84.188 171.148 84.2943 171.148 84.391C171.148 84.565 171.08 84.71 170.945 84.826C170.829 84.942 170.693 85 170.539 85H167.9C167.571 85 167.32 84.913 167.146 84.739C166.972 84.565 166.836 84.391 166.74 84.217L162.999 77.344H158.968V84.304C158.968 84.4973 158.9 84.6617 158.765 84.797C158.649 84.9323 158.484 85 158.272 85H155.633ZM158.968 74.067H163.057C164.236 74.067 165.116 73.806 165.696 73.284C166.276 72.7427 166.566 71.9887 166.566 71.022C166.566 70.0553 166.276 69.3013 165.696 68.76C165.135 68.1993 164.255 67.919 163.057 67.919H158.968V74.067ZM186.341 85.29C184.562 85.29 183.044 84.9807 181.788 84.362C180.55 83.7433 179.584 82.854 178.888 81.694C178.211 80.5147 177.844 79.113 177.786 77.489C177.766 76.6577 177.757 75.7683 177.757 74.821C177.757 73.8543 177.766 72.9457 177.786 72.095C177.844 70.4903 178.211 69.1177 178.888 67.977C179.584 66.8363 180.56 65.9567 181.817 65.338C183.093 64.7193 184.601 64.41 186.341 64.41C187.752 64.41 188.989 64.6033 190.053 64.99C191.116 65.3573 191.996 65.8407 192.692 66.44C193.407 67.02 193.939 67.6483 194.287 68.325C194.654 69.0017 194.847 69.63 194.867 70.21C194.886 70.384 194.838 70.529 194.722 70.645C194.606 70.761 194.451 70.819 194.258 70.819H191.271C191.077 70.819 190.932 70.7803 190.836 70.703C190.739 70.6257 190.652 70.5097 190.575 70.355C190.42 69.949 190.178 69.5527 189.85 69.166C189.521 68.76 189.076 68.4217 188.516 68.151C187.955 67.8803 187.23 67.745 186.341 67.745C185.026 67.745 183.972 68.093 183.18 68.789C182.406 69.485 181.991 70.6353 181.933 72.24C181.875 73.922 181.875 75.6233 181.933 77.344C181.991 78.9873 182.416 80.1667 183.209 80.882C184.021 81.5973 185.084 81.955 186.399 81.955C187.269 81.955 188.042 81.8003 188.719 81.491C189.415 81.1817 189.956 80.6983 190.343 80.041C190.749 79.3837 190.952 78.5427 190.952 77.518V76.619H187.414C187.22 76.619 187.056 76.5513 186.921 76.416C186.785 76.2807 186.718 76.1067 186.718 75.894V74.357C186.718 74.1443 186.785 73.9703 186.921 73.835C187.056 73.6997 187.22 73.632 187.414 73.632H194.345C194.557 73.632 194.722 73.6997 194.838 73.835C194.973 73.9703 195.041 74.1443 195.041 74.357V77.402C195.041 79.026 194.683 80.4277 193.968 81.607C193.272 82.7863 192.266 83.695 190.952 84.333C189.656 84.971 188.119 85.29 186.341 85.29ZM203.514 85C203.321 85 203.157 84.9323 203.021 84.797C202.886 84.6617 202.818 84.4973 202.818 84.304V65.425C202.818 65.2123 202.886 65.0383 203.021 64.903C203.157 64.7677 203.321 64.7 203.514 64.7H216.274C216.487 64.7 216.661 64.7677 216.796 64.903C216.932 65.0383 216.999 65.2123 216.999 65.425V67.339C216.999 67.5323 216.932 67.6967 216.796 67.832C216.661 67.9673 216.487 68.035 216.274 68.035H206.733V73.168H215.636C215.849 73.168 216.023 73.2357 216.158 73.371C216.294 73.487 216.361 73.6513 216.361 73.864V75.662C216.361 75.8747 216.294 76.0487 216.158 76.184C216.023 76.3 215.849 76.358 215.636 76.358H206.733V81.665H216.506C216.719 81.665 216.893 81.7327 217.028 81.868C217.164 82.0033 217.231 82.1773 217.231 82.39V84.304C217.231 84.4973 217.164 84.6617 217.028 84.797C216.893 84.9323 216.719 85 216.506 85H203.514ZM225.614 85C225.421 85 225.257 84.9323 225.121 84.797C224.986 84.6617 224.918 84.4973 224.918 84.304V65.425C224.918 65.2123 224.986 65.0383 225.121 64.903C225.257 64.7677 225.421 64.7 225.614 64.7H233.125C235.465 64.7 237.311 65.2413 238.664 66.324C240.018 67.4067 240.694 68.9823 240.694 71.051C240.694 72.4817 240.337 73.6707 239.621 74.618C238.925 75.5653 237.988 76.2517 236.808 76.677L241.042 84.072C241.1 84.188 241.129 84.2943 241.129 84.391C241.129 84.565 241.062 84.71 240.926 84.826C240.81 84.942 240.675 85 240.52 85H237.881C237.553 85 237.301 84.913 237.127 84.739C236.953 84.565 236.818 84.391 236.721 84.217L232.98 77.344H228.949V84.304C228.949 84.4973 228.882 84.6617 228.746 84.797C228.63 84.9323 228.466 85 228.253 85H225.614ZM228.949 74.067H233.038C234.218 74.067 235.097 73.806 235.677 73.284C236.257 72.7427 236.547 71.9887 236.547 71.022C236.547 70.0553 236.257 69.3013 235.677 68.76C235.117 68.1993 234.237 67.919 233.038 67.919H228.949V74.067ZM259.874 85C259.681 85 259.516 84.9323 259.381 84.797C259.246 84.6617 259.178 84.4973 259.178 84.304V65.425C259.178 65.2123 259.246 65.0383 259.381 64.903C259.516 64.7677 259.681 64.7 259.874 64.7H272.46C272.673 64.7 272.847 64.7677 272.982 64.903C273.117 65.0383 273.185 65.2123 273.185 65.425V67.455C273.185 67.6677 273.117 67.8417 272.982 67.977C272.847 68.093 272.673 68.151 272.46 68.151H263.151V73.661H271.88C272.093 73.661 272.267 73.7287 272.402 73.864C272.537 73.9993 272.605 74.1733 272.605 74.386V76.416C272.605 76.6093 272.537 76.7737 272.402 76.909C272.267 77.0443 272.093 77.112 271.88 77.112H263.151V84.304C263.151 84.4973 263.083 84.6617 262.948 84.797C262.813 84.9323 262.639 85 262.426 85H259.874ZM288.314 85.29C286.594 85.29 285.115 85.0097 283.877 84.449C282.64 83.869 281.673 82.9893 280.977 81.81C280.281 80.6113 279.904 79.1227 279.846 77.344C279.827 76.5127 279.817 75.691 279.817 74.879C279.817 74.067 279.827 73.2357 279.846 72.385C279.904 70.6257 280.291 69.1563 281.006 67.977C281.722 66.7977 282.698 65.9083 283.935 65.309C285.192 64.7097 286.652 64.41 288.314 64.41C289.977 64.41 291.437 64.7097 292.693 65.309C293.95 65.9083 294.936 66.7977 295.651 67.977C296.367 69.1563 296.753 70.6257 296.811 72.385C296.85 73.2357 296.869 74.067 296.869 74.879C296.869 75.691 296.85 76.5127 296.811 77.344C296.753 79.1227 296.376 80.6113 295.68 81.81C294.984 82.9893 294.008 83.869 292.751 84.449C291.514 85.0097 290.035 85.29 288.314 85.29ZM288.314 81.955C289.571 81.955 290.596 81.5877 291.388 80.853C292.181 80.099 292.606 78.881 292.664 77.199C292.703 76.3483 292.722 75.5653 292.722 74.85C292.722 74.1153 292.703 73.3323 292.664 72.501C292.626 71.3797 292.413 70.471 292.026 69.775C291.659 69.0597 291.156 68.5473 290.518 68.238C289.88 67.9093 289.146 67.745 288.314 67.745C287.502 67.745 286.777 67.9093 286.139 68.238C285.501 68.5473 284.989 69.0597 284.602 69.775C284.235 70.471 284.032 71.3797 283.993 72.501C283.974 73.3323 283.964 74.1153 283.964 74.85C283.964 75.5653 283.974 76.3483 283.993 77.199C284.051 78.881 284.477 80.099 285.269 80.853C286.062 81.5877 287.077 81.955 288.314 81.955ZM312.539 85.29C310.818 85.29 309.339 85.0097 308.102 84.449C306.864 83.869 305.898 82.9893 305.202 81.81C304.506 80.6113 304.129 79.1227 304.071 77.344C304.051 76.5127 304.042 75.691 304.042 74.879C304.042 74.067 304.051 73.2357 304.071 72.385C304.129 70.6257 304.515 69.1563 305.231 67.977C305.946 66.7977 306.922 65.9083 308.16 65.309C309.416 64.7097 310.876 64.41 312.539 64.41C314.201 64.41 315.661 64.7097 316.918 65.309C318.174 65.9083 319.16 66.7977 319.876 67.977C320.591 69.1563 320.978 70.6257 321.036 72.385C321.074 73.2357 321.094 74.067 321.094 74.879C321.094 75.691 321.074 76.5127 321.036 77.344C320.978 79.1227 320.601 80.6113 319.905 81.81C319.209 82.9893 318.232 83.869 316.976 84.449C315.738 85.0097 314.259 85.29 312.539 85.29ZM312.539 81.955C313.795 81.955 314.82 81.5877 315.613 80.853C316.405 80.099 316.831 78.881 316.889 77.199C316.927 76.3483 316.947 75.5653 316.947 74.85C316.947 74.1153 316.927 73.3323 316.889 72.501C316.85 71.3797 316.637 70.471 316.251 69.775C315.883 69.0597 315.381 68.5473 314.743 68.238C314.105 67.9093 313.37 67.745 312.539 67.745C311.727 67.745 311.002 67.9093 310.364 68.238C309.726 68.5473 309.213 69.0597 308.827 69.775C308.459 70.471 308.256 71.3797 308.218 72.501C308.198 73.3323 308.189 74.1153 308.189 74.85C308.189 75.5653 308.198 76.3483 308.218 77.199C308.276 78.881 308.701 80.099 309.494 80.853C310.286 81.5877 311.301 81.955 312.539 81.955ZM329.658 85C329.464 85 329.3 84.9323 329.165 84.797C329.029 84.6617 328.962 84.4973 328.962 84.304V65.425C328.962 65.2123 329.029 65.0383 329.165 64.903C329.3 64.7677 329.464 64.7 329.658 64.7H336.734C338.686 64.7 340.291 64.9997 341.548 65.599C342.824 66.1983 343.781 67.0877 344.419 68.267C345.076 69.4463 345.414 70.8867 345.434 72.588C345.472 73.4387 345.492 74.1927 345.492 74.85C345.492 75.5073 345.472 76.2517 345.434 77.083C345.395 78.881 345.066 80.3697 344.448 81.549C343.829 82.709 342.891 83.579 341.635 84.159C340.397 84.7197 338.812 85 336.879 85H329.658ZM332.993 81.665H336.734C337.816 81.665 338.696 81.5103 339.373 81.201C340.049 80.8917 340.542 80.3987 340.852 79.722C341.18 79.026 341.354 78.1173 341.374 76.996C341.393 76.416 341.403 75.9133 341.403 75.488C341.422 75.0433 341.422 74.6083 341.403 74.183C341.403 73.7383 341.393 73.2357 341.374 72.675C341.335 71.0897 340.939 69.92 340.185 69.166C339.431 68.412 338.232 68.035 336.589 68.035H332.993V81.665ZM368.553 85C368.36 85 368.196 84.9323 368.06 84.797C367.925 84.6617 367.857 84.4973 367.857 84.304V68.267H362.492C362.299 68.267 362.135 68.1993 361.999 68.064C361.864 67.9287 361.796 67.7643 361.796 67.571V65.425C361.796 65.2123 361.864 65.0383 361.999 64.903C362.135 64.7677 362.299 64.7 362.492 64.7H377.282C377.495 64.7 377.669 64.7677 377.804 64.903C377.94 65.0383 378.007 65.2123 378.007 65.425V67.571C378.007 67.7643 377.94 67.9287 377.804 68.064C377.669 68.1993 377.495 68.267 377.282 68.267H371.946V84.304C371.946 84.4973 371.879 84.6617 371.743 84.797C371.608 84.9323 371.434 85 371.221 85H368.553ZM385.706 85C385.512 85 385.348 84.9323 385.213 84.797C385.077 84.6617 385.01 84.4973 385.01 84.304V65.425C385.01 65.2123 385.077 65.0383 385.213 64.903C385.348 64.7677 385.512 64.7 385.706 64.7H393.217C395.556 64.7 397.402 65.2413 398.756 66.324C400.109 67.4067 400.786 68.9823 400.786 71.051C400.786 72.4817 400.428 73.6707 399.713 74.618C399.017 75.5653 398.079 76.2517 396.9 76.677L401.134 84.072C401.192 84.188 401.221 84.2943 401.221 84.391C401.221 84.565 401.153 84.71 401.018 84.826C400.902 84.942 400.766 85 400.612 85H397.973C397.644 85 397.393 84.913 397.219 84.739C397.045 84.565 396.909 84.391 396.813 84.217L393.072 77.344H389.041V84.304C389.041 84.4973 388.973 84.6617 388.838 84.797C388.722 84.9323 388.557 85 388.345 85H385.706ZM389.041 74.067H393.13C394.309 74.067 395.189 73.806 395.769 73.284C396.349 72.7427 396.639 71.9887 396.639 71.022C396.639 70.0553 396.349 69.3013 395.769 68.76C395.208 68.1993 394.328 67.919 393.13 67.919H389.041V74.067ZM416.673 85.29C414.991 85.29 413.532 85.0097 412.294 84.449C411.057 83.869 410.1 82.9893 409.423 81.81C408.747 80.6113 408.408 79.084 408.408 77.228V65.425C408.408 65.2123 408.476 65.0383 408.611 64.903C408.747 64.7677 408.911 64.7 409.104 64.7H411.743C411.956 64.7 412.12 64.7677 412.236 64.903C412.372 65.0383 412.439 65.2123 412.439 65.425V77.228C412.439 78.8133 412.816 79.9927 413.57 80.766C414.324 81.52 415.359 81.897 416.673 81.897C417.988 81.897 419.013 81.52 419.747 80.766C420.501 79.9927 420.878 78.8133 420.878 77.228V65.425C420.878 65.2123 420.946 65.0383 421.081 64.903C421.217 64.7677 421.391 64.7 421.603 64.7H424.213C424.426 64.7 424.59 64.7677 424.706 64.903C424.842 65.0383 424.909 65.2123 424.909 65.425V77.228C424.909 79.084 424.571 80.6113 423.894 81.81C423.237 82.9893 422.29 83.869 421.052 84.449C419.834 85.0097 418.375 85.29 416.673 85.29ZM441.146 85.29C439.348 85.29 437.821 84.9807 436.564 84.362C435.327 83.724 434.38 82.825 433.722 81.665C433.065 80.4857 432.698 79.0743 432.62 77.431C432.601 76.6383 432.591 75.7877 432.591 74.879C432.591 73.9703 432.601 73.1003 432.62 72.269C432.698 70.645 433.065 69.2433 433.722 68.064C434.399 66.8847 435.356 65.9857 436.593 65.367C437.85 64.729 439.368 64.41 441.146 64.41C442.461 64.41 443.64 64.584 444.684 64.932C445.728 65.28 446.618 65.7633 447.352 66.382C448.087 66.9813 448.657 67.687 449.063 68.499C449.469 69.311 449.682 70.1907 449.701 71.138C449.721 71.312 449.663 71.457 449.527 71.573C449.411 71.689 449.266 71.747 449.092 71.747H446.337C446.125 71.747 445.951 71.6987 445.815 71.602C445.68 71.486 445.583 71.3023 445.525 71.051C445.216 69.775 444.684 68.905 443.93 68.441C443.176 67.977 442.239 67.745 441.117 67.745C439.822 67.745 438.788 68.1123 438.014 68.847C437.241 69.5623 436.825 70.7513 436.767 72.414C436.709 73.9993 436.709 75.6233 436.767 77.286C436.825 78.9487 437.241 80.1473 438.014 80.882C438.788 81.5973 439.822 81.955 441.117 81.955C442.239 81.955 443.176 81.723 443.93 81.259C444.684 80.7757 445.216 79.9057 445.525 78.649C445.583 78.3783 445.68 78.1947 445.815 78.098C445.951 78.0013 446.125 77.953 446.337 77.953H449.092C449.266 77.953 449.411 78.011 449.527 78.127C449.663 78.243 449.721 78.388 449.701 78.562C449.682 79.5093 449.469 80.389 449.063 81.201C448.657 82.013 448.087 82.7283 447.352 83.347C446.618 83.9463 445.728 84.42 444.684 84.768C443.64 85.116 442.461 85.29 441.146 85.29ZM457.897 85C457.703 85 457.539 84.9323 457.404 84.797C457.268 84.6617 457.201 84.4973 457.201 84.304V65.425C457.201 65.2123 457.268 65.0383 457.404 64.903C457.539 64.7677 457.703 64.7 457.897 64.7H460.449C460.661 64.7 460.835 64.7677 460.971 64.903C461.106 65.0383 461.174 65.2123 461.174 65.425V72.211L467.728 65.222C467.805 65.1253 467.931 65.019 468.105 64.903C468.298 64.7677 468.549 64.7 468.859 64.7H471.73C471.884 64.7 472.02 64.758 472.136 64.874C472.271 64.99 472.339 65.135 472.339 65.309C472.339 65.4443 472.3 65.5603 472.223 65.657L464.248 74.415L472.774 84.014C472.87 84.13 472.919 84.2557 472.919 84.391C472.919 84.565 472.851 84.71 472.716 84.826C472.6 84.942 472.464 85 472.31 85H469.323C468.994 85 468.733 84.9323 468.54 84.797C468.366 84.6423 468.25 84.536 468.192 84.478L461.174 76.793V84.304C461.174 84.4973 461.106 84.6617 460.971 84.797C460.835 84.9323 460.661 85 460.449 85H457.897Z" fill="black"/>
<path d="M74.7738 67.2389C74.0553 66.9458 73.2168 66.7545 72.1694 66.7545C67.2921 66.7545 67.2921 70.198 62.4141 70.198C57.5367 70.198 57.5367 66.7545 52.66 66.7545C47.7827 66.7545 47.7827 70.198 42.9053 70.198C38.0279 70.198 38.0279 66.7545 33.1506 66.7545C28.2732 66.7545 28.2732 70.198 23.3959 70.198C18.5179 70.198 18.5179 66.7545 13.6399 66.7545C12.5919 66.7545 11.7527 66.9458 11.0342 67.2396C8.96742 68.0839 6.76447 67.5924 5.29822 66.3044V72.9924C5.29822 78.4858 9.75146 82.9397 15.2455 82.9397H69.7544C75.2485 82.9397 79.7018 78.4865 79.7018 72.9924V66.8881C78.2978 67.7195 76.4891 67.9393 74.7738 67.2389V67.2389Z" fill="#FFB655"/>
<path d="M42.4999 2.1582C22.7564 2.1582 6.41813 13.4622 3.66655 28.1779C3.23854 30.4665 4.99922 32.5812 7.32733 32.5812H77.6726C80.0007 32.5812 81.7613 30.4671 81.3333 28.1779C78.5818 13.4622 62.2435 2.1582 42.4999 2.1582V2.1582Z" fill="#FFB655"/>
<path d="M80.6064 31.1494C79.9307 32.0132 78.8782 32.5813 77.6726 32.5813H7.32739C6.33519 32.5813 5.4474 32.1961 4.78722 31.5787C4.05377 32.4321 3.60242 33.5288 3.60242 34.7667C3.60242 38.4145 7.51675 40.8425 11.0342 39.4061C11.7527 39.1123 12.5919 38.9204 13.6399 38.9204C18.5185 38.9204 18.5185 42.3645 23.3959 42.3645C28.2732 42.3645 28.2732 38.9204 33.1506 38.9204C38.028 38.9204 38.028 42.3645 42.9053 42.3645C47.7827 42.3645 47.7827 38.9204 52.66 38.9204C57.5374 38.9204 57.5374 42.3645 62.4141 42.3645C67.2915 42.3645 67.2915 38.9204 72.1695 38.9204C73.2168 38.9204 74.0553 39.1123 74.7738 39.4054C78.2913 40.8419 82.2056 38.4145 82.2056 34.7661C82.2056 33.3096 81.5798 32.0482 80.6064 31.1494Z" fill="#7ED63E"/>
<path d="M60.7617 46.3767L46.7937 60.1897H76.6019C80.323 60.1897 83.3398 57.1736 83.3398 53.4518V53.1146C83.3398 49.3935 80.323 46.3767 76.6019 46.3767H8.39806C4.67697 46.3767 1.66016 49.3935 1.66016 53.1146V53.4518C1.66016 57.1729 4.67697 60.1897 8.39806 60.1897H39.6628L26.6001 47.1264L25.8504 46.3774" fill="#E7272D"/>
<path d="M80.5377 58.9194C79.4301 59.7177 78.0715 60.1898 76.602 60.1898H46.7937L43.2283 63.7553L39.6635 60.1898H8.39806C7.13609 60.1898 5.95517 59.8422 4.94481 59.2378C4.11992 60.114 3.60242 61.2761 3.60242 62.6003C3.60242 66.2488 7.51675 68.6767 11.0342 67.2397C11.7527 66.9459 12.5919 66.7546 13.6399 66.7546C18.5185 66.7546 18.5185 70.1981 23.3959 70.1981C28.2732 70.1981 28.2732 66.7546 33.1506 66.7546C38.028 66.7546 38.028 70.1981 42.9053 70.1981C47.7827 70.1981 47.7827 66.7546 52.66 66.7546C57.5374 66.7546 57.5374 70.1981 62.4141 70.1981C67.2915 70.1981 67.2915 66.7546 72.1695 66.7546C73.2168 66.7546 74.0553 66.9459 74.7738 67.239C78.2913 68.6754 82.2056 66.2481 82.2056 62.5997C82.2056 61.1088 81.5513 59.8221 80.5377 58.9194V58.9194Z" fill="#7ED63E"/>
<path d="M74.7738 39.4053C74.0553 39.1122 73.2168 38.9209 72.1695 38.9209C67.2921 38.9209 67.2921 42.3644 62.4141 42.3644C57.5368 42.3644 57.5368 38.9209 52.66 38.9209C47.7827 38.9209 47.7827 42.3644 42.9053 42.3644C38.028 42.3644 38.028 38.9209 33.1506 38.9209C28.2733 38.9209 28.2733 42.3644 23.3959 42.3644C18.5179 42.3644 18.5179 38.9209 13.6399 38.9209C12.5919 38.9209 11.7527 39.1122 11.0342 39.406C9.7651 39.9248 8.4454 39.9377 7.27551 39.5746V46.3767H77.7245V39.7614C76.7725 39.9066 75.7576 39.8074 74.7738 39.4053V39.4053Z" fill="#E7272D"/>
<path d="M26.6001 47.1264L25.8504 46.3767H14.0244L23.5638 55.9161L29.4768 50.0031L26.6001 47.1264Z" fill="#FBBE36"/>
<path d="M25.8505 46.3767L43.2283 63.7552L60.7617 46.3767H25.8505Z" fill="#FBBE36"/>
<path d="M48.9202 11.1158C54.3721 11.9602 59.4291 13.8784 63.5445 16.6624C67.5243 19.355 70.4503 22.7285 72.0067 26.4191C72.2739 27.054 72.8893 27.4353 73.5372 27.4353C73.7525 27.4353 73.971 27.3931 74.1818 27.3043C75.0268 26.9476 75.4224 25.9742 75.0663 25.1292C73.2596 20.8446 69.9186 16.9659 65.405 13.9122C60.8863 10.8551 55.3617 8.75335 49.428 7.83443C48.5233 7.69435 47.6738 8.31497 47.5337 9.22157C47.393 10.1269 48.0136 10.9751 48.9202 11.1158V11.1158Z" fill="black"/>
<path d="M16.6599 23.5697C16.9226 24.2 17.5912 24.6248 18.2734 24.5924C18.9472 24.56 19.5658 24.0833 19.7708 23.4406C19.9783 22.7902 19.7461 22.0308 19.2014 21.6164C18.6378 21.1884 17.8097 21.1728 17.2312 21.5814C16.6158 22.0159 16.3752 22.8752 16.6599 23.5697Z" fill="black"/>
<path d="M24.6585 17.3876C24.9238 18.0251 25.604 18.4544 26.2947 18.4103C26.9607 18.3668 27.5664 17.8921 27.7707 17.2573C27.9788 16.6113 27.7454 15.8591 27.2097 15.4428C26.6436 15.0037 25.8012 14.9856 25.2201 15.4064C24.6157 15.8442 24.3706 16.697 24.6585 17.3876Z" fill="black"/>
<path d="M33.2511 23.5697C33.5138 24.2 34.183 24.6248 34.8652 24.5924C35.539 24.56 36.159 24.0833 36.3639 23.4406C36.5714 22.7896 36.338 22.0302 35.7926 21.6164C35.229 21.1884 34.4016 21.1728 33.8224 21.5814C33.2077 22.0159 32.9664 22.8752 33.2511 23.5697Z" fill="black"/>
<path d="M85 53.1146C85 49.459 82.6511 46.3436 79.3847 45.1926V41.0383C79.9099 40.8444 80.4158 40.5889 80.8911 40.2698C82.7815 38.9994 83.8658 36.9942 83.8658 34.7667C83.8658 33.3737 83.4352 32.0553 82.6349 30.9463C83.0396 29.9872 83.1615 28.9224 82.965 27.8731C81.5435 20.2701 76.6616 13.3104 69.2188 8.27484C61.8058 3.26 52.317 0.498047 42.5 0.498047C32.683 0.498047 23.1942 3.26 15.7812 8.27484C8.33839 13.3098 3.4565 20.2701 2.03499 27.8731C1.78856 29.1889 2.04212 30.5287 2.72823 31.6539C2.21138 32.602 1.94225 33.6577 1.94225 34.7667C1.94225 36.9942 3.02654 39.0007 4.91756 40.2705C5.14324 40.4222 5.37735 40.5577 5.61535 40.6816V45.1926C2.34886 46.3436 0 49.459 0 53.1146V53.4518C0 55.8733 1.03176 58.0575 2.677 59.5918C2.19711 60.5153 1.94225 61.5425 1.94225 62.6002C1.94225 64.2623 2.54665 65.7999 3.63808 67.0016V72.9924C3.63808 79.3924 8.84487 84.5999 15.2456 84.5999H69.7544C76.1551 84.5999 81.3619 79.3924 81.3619 72.9924V67.7545C82.9592 66.4815 83.8658 64.6339 83.8658 62.5996C83.8658 61.324 83.5065 60.1165 82.8353 59.0724C84.1796 57.5834 85 55.612 85 53.4518V53.1146ZM81.6797 53.1146V53.4518C81.6797 55.1658 80.825 56.6833 79.5202 57.6035C78.67 58.2027 77.6421 58.5296 76.6019 58.5296H50.8585L61.4452 48.0369H76.6013C79.4015 48.0369 81.6797 50.3151 81.6797 53.1146ZM25.1624 48.0369L25.4257 48.3008L27.1286 50.0031L23.5638 53.5686L18.0322 48.0369H25.1624ZM40.8372 59.016L30.6519 48.8313C30.6519 48.8306 30.6513 48.83 30.6506 48.8293L29.8582 48.0369H56.7216L45.6264 59.0095C45.6258 59.0101 45.6251 59.0108 45.6245 59.0121C45.6232 59.0134 45.6212 59.0147 45.6199 59.016L43.2283 61.4076L40.8372 59.016ZM5.29823 28.4827C6.55567 21.7591 10.9395 15.5588 17.6418 11.0245C24.5113 6.37733 33.3393 3.81836 42.5 3.81836C51.6607 3.81836 60.4887 6.37733 67.3582 11.0245C74.0605 15.5588 78.4437 21.7591 79.7018 28.4827C79.9346 29.7298 78.9385 30.9211 77.6726 30.9211H7.32738C6.05957 30.9211 5.06542 29.7298 5.29823 28.4827ZM5.38513 33.8802C6.00185 34.1188 6.66656 34.2414 7.32738 34.2414H77.6726C78.5889 34.2414 79.5105 34.004 80.3094 33.5546C80.4657 33.9385 80.5455 34.3516 80.5455 34.766C80.5455 35.8691 79.9968 36.8704 79.0396 37.513C78.0611 38.1706 76.8147 38.3282 75.6953 37.9741C75.1422 37.799 74.6201 37.5734 74.0495 37.4514C73.4321 37.3191 72.8004 37.2608 72.1695 37.2608C69.2039 37.2608 67.6125 38.384 66.3343 39.286C65.2124 40.0785 64.3265 40.7043 62.4147 40.7043C60.503 40.7043 59.6171 40.0785 58.4952 39.2867C57.217 38.3833 55.6263 37.2608 52.66 37.2608C49.6944 37.2608 48.1037 38.384 46.8255 39.2867C45.7036 40.0785 44.8177 40.7043 42.906 40.7043C40.9942 40.7043 40.1077 40.0785 38.9858 39.286C37.7076 38.3833 36.1168 37.2608 33.1512 37.2608C30.1857 37.2608 28.5942 38.384 27.3161 39.286C26.1942 40.0785 25.3077 40.7043 23.3965 40.7043C21.4841 40.7043 20.5983 40.0785 19.4757 39.286C18.1975 38.3833 16.6068 37.2608 13.6405 37.2608C12.4674 37.2608 11.4097 37.4599 10.4065 37.8691C9.22165 38.3528 7.83516 38.2303 6.76903 37.5137C5.81184 36.871 5.26321 35.8697 5.26321 34.7667C5.26257 34.4612 5.30407 34.1642 5.38513 33.8802V33.8802ZM9.26575 41.4734C10.1367 41.4313 10.9538 41.2114 11.7644 40.9027C12.5731 40.5941 13.455 40.5331 14.3117 40.6096C15.7773 40.74 16.5789 41.3061 17.5607 41.9987C18.8389 42.9014 20.4296 44.0246 23.3959 44.0246C26.3615 44.0246 27.9522 42.9014 29.2304 41.9987C30.3523 41.2069 31.2388 40.5811 33.1506 40.5811C35.0624 40.5811 35.9482 41.2069 37.0701 41.9987C38.3483 42.9014 39.9397 44.0246 42.9053 44.0246C45.8709 44.0246 47.4617 42.9014 48.7399 41.9987C49.8618 41.2069 50.7483 40.5811 52.6594 40.5811C54.5712 40.5811 55.4576 41.2069 56.5796 41.9987C57.8577 42.9014 59.4485 44.0246 62.4141 44.0246C65.3797 44.0246 66.9704 42.9014 68.2486 41.9987C69.3712 41.2069 70.257 40.5811 72.1688 40.5811C72.8471 40.5811 73.5131 40.6939 74.1454 40.9423C74.7622 41.1848 75.4042 41.3593 76.0637 41.4365V44.7172H60.7624C60.7617 44.7172 60.7617 44.7172 60.7611 44.7172H60.7604H25.855C25.8537 44.7172 25.8517 44.7172 25.8504 44.7172C25.8485 44.7172 25.8466 44.7172 25.8453 44.7172H8.93566V41.4825C9.04591 41.4819 9.1555 41.4786 9.26575 41.4734V41.4734ZM3.32031 53.1146C3.32031 50.3151 5.59849 48.0369 8.39806 48.0369H13.337L22.3901 57.0906C22.7013 57.4018 23.1235 57.5763 23.5638 57.5763C24.0042 57.5763 24.4263 57.4018 24.7376 57.0906L29.4769 52.3513L35.6551 58.5296H8.39806C7.52064 58.5296 6.64841 58.2974 5.88707 57.8623C4.35532 56.9875 3.32031 55.339 3.32031 53.4518V53.1146ZM5.53688 61.3473C6.45062 61.6787 7.42596 61.8499 8.39806 61.8499H38.9754L42.0545 64.929C42.6913 65.5664 43.7581 65.5677 44.3969 64.9342L47.509 61.8499H76.6013C77.5377 61.8499 78.4729 61.691 79.3574 61.3849C79.5429 61.3207 79.7322 61.2559 79.9067 61.1664C79.9631 61.1372 80.0448 61.0723 80.1116 61.0769C80.2037 61.0834 80.2277 61.2007 80.2608 61.2747C80.4404 61.6709 80.5364 62.1048 80.5442 62.5399C80.5721 64.106 79.4443 65.4166 77.9716 65.8433C77.1279 66.0885 76.2141 66.034 75.4009 65.702C74.3996 65.2928 73.3419 65.0937 72.1688 65.0937C69.2032 65.0937 67.6125 66.2169 66.3343 67.1196C65.2117 67.9121 64.3259 68.5379 62.4141 68.5379C60.503 68.5379 59.6165 67.9121 58.4946 67.1196C57.2164 66.2169 55.6256 65.0937 52.66 65.0937C49.6944 65.0937 48.1037 66.2169 46.8248 67.1196C45.7029 67.9121 44.8171 68.5379 42.9053 68.5379C40.9935 68.5379 40.1077 67.9121 38.9851 67.1196C37.7069 66.2169 36.1162 65.0937 33.1506 65.0937C30.185 65.0937 28.5942 66.2169 27.3154 67.1196C26.1935 67.9121 25.3077 68.5379 23.3959 68.5379C21.4835 68.5379 20.5976 67.9114 19.4757 67.1196C18.1969 66.2169 16.6061 65.0937 13.6399 65.0937C12.4667 65.0937 11.409 65.2928 10.4065 65.7026C9.32281 66.1449 8.05954 66.0865 7.03686 65.5107C6.1322 65.0016 5.45841 64.1287 5.30018 63.0918C5.25284 62.785 5.25024 62.4712 5.2911 62.1631C5.30277 62.0736 5.45517 61.3175 5.53688 61.3473V61.3473ZM78.0416 72.9924C78.0416 77.5617 74.3238 81.2796 69.7544 81.2796H15.2456C10.6762 81.2796 6.95839 77.5617 6.95839 72.9924V69.0547C8.32153 69.4412 9.79298 69.414 11.195 68.9477C11.2236 68.938 11.2521 68.9283 11.28 68.9192C11.4077 68.8744 11.5355 68.8284 11.6613 68.7765C12.2579 68.5327 12.9051 68.4146 13.6399 68.4146C15.5523 68.4146 16.4381 69.0398 17.56 69.8323C18.8389 70.735 20.4296 71.8582 23.3959 71.8582C26.3615 71.8582 27.9522 70.735 29.2304 69.8323C30.3523 69.0398 31.2388 68.4146 33.1499 68.4146C35.0617 68.4146 35.9482 69.0398 37.0701 69.8323C38.3483 70.735 39.9391 71.8582 42.9053 71.8582C45.8709 71.8582 47.4617 70.735 48.7399 69.8323C49.8618 69.0398 50.7483 68.4146 52.6594 68.4146C54.5712 68.4146 55.4576 69.0398 56.5789 69.8323C57.8571 70.735 59.4485 71.8582 62.4141 71.8582C65.3797 71.8582 66.9704 70.735 68.2486 69.8323C69.3705 69.0398 70.257 68.4146 72.1688 68.4146C72.6636 68.4146 73.1597 68.4698 73.6377 68.6027C74.0923 68.7292 74.5216 68.9289 74.9762 69.0573C75.9632 69.3355 77.0287 69.3945 78.041 69.2298V72.9924H78.0416Z" fill="black"/>
<path d="M37.5046 17.3875C37.7673 18.0178 38.4365 18.4458 39.1194 18.4108C39.7932 18.3765 40.4112 17.9018 40.6168 17.2597C40.8256 16.6086 40.5915 15.8506 40.0474 15.4349C39.4851 15.0049 38.6557 14.9887 38.0779 15.3992C37.4651 15.8337 37.2147 16.693 37.5046 17.3875Z" fill="black"/>
<path d="M44.9934 24.7052C45.2561 25.3362 45.9247 25.7603 46.6069 25.7279C47.2813 25.6954 47.8981 25.2181 48.1049 24.5768C48.3144 23.9263 48.0796 23.1663 47.5349 22.7519C46.9713 22.3232 46.1432 22.309 45.5648 22.7169C44.95 23.1514 44.7087 24.0106 44.9934 24.7052V24.7052Z" fill="black"/>
<path d="M40.7549 9.79888C41.3457 10.1925 42.1765 10.1536 42.7257 9.70355C43.2627 9.26387 43.4773 8.48503 43.2296 7.83523C42.9884 7.20424 42.349 6.75483 41.6713 6.75807C41.0007 6.76197 40.3632 7.2023 40.1259 7.83004C39.8607 8.53301 40.1317 9.37995 40.7549 9.79888V9.79888Z" fill="black"/>
</g>
<defs>
<clipPath id="clip0_281_57">
<rect width="475" height="89" fill="white"/>
</clipPath>
</defs>
</svg>
