<svg width="512" height="512" viewBox="0 0 512 512" fill="none" xmlns="http://www.w3.org/2000/svg">
<path d="M256 7.5L381 256L256 504.5C393.243 504.5 504.5 393.243 504.5 256C504.5 118.757 393.243 7.5 256 7.5Z" fill="#EEBF00"/>
<path fill-rule="evenodd" clip-rule="evenodd" d="M256 7.5C376.674 7.5 474.5 118.757 474.5 256C474.5 393.243 376.674 504.5 256 504.5C118.757 504.5 7.5 393.243 7.5 256C7.5 118.757 118.757 7.5 256 7.5ZM374 256C374 264.839 369.248 272.55 362.191 276.675L228.392 354.853C225.285 356.667 221.807 357.741 218.242 358C214.252 357.761 210.26 356.744 206.562 354.865C197.864 350.445 193.01 342.424 193 334.174C193 334.174 193 177.827 193.008 177.823C193.01 169.576 197.864 161.556 206.562 157.136C210.262 155.256 214.254 154.239 218.246 154C221.812 154.259 225.291 155.331 228.399 157.143C228.399 157.143 362.191 235.317 362.191 235.325C369.248 239.449 374 247.16 374 256Z" fill="#FFD422"/>
<path d="M437.02 74.98C388.667 26.629 324.38 0 256 0C187.62 0 123.333 26.629 74.98 74.98C26.629 123.333 0 187.62 0 256C0 324.38 26.629 388.667 74.98 437.02C123.333 485.371 187.62 512 256 512C324.38 512 388.667 485.371 437.02 437.02C485.371 388.667 512 324.38 512 256C512 187.62 485.371 123.333 437.02 74.98V74.98ZM256 497C123.112 497 15 388.888 15 256C15 123.112 123.112 15 256 15C388.888 15 497 123.112 497 256C497 388.888 388.888 497 256 497V497Z" fill="black"/>
<path d="M367.076 230.161C366.573 229.869 366.063 229.575 365.557 229.282L231.744 151.983C222.531 146.674 211.099 146.672 201.912 151.979C192.72 157.288 187.009 167.193 187.007 177.83H187.064C187.006 178.678 187.006 179.621 187.006 180.676L187.001 244.068C187.001 247.364 189.67 250.034 192.964 250.034C196.258 250.034 198.927 247.363 198.927 244.068C198.927 243.417 198.93 179.171 198.934 177.871V177.83C198.934 171.443 202.36 165.497 207.875 162.312C213.388 159.128 220.253 159.131 225.786 162.319C227.123 163.091 359.322 239.452 361.072 240.47C361.085 240.477 361.098 240.485 361.111 240.493C366.64 243.688 370.074 249.63 370.074 256C370.074 262.37 366.64 268.312 361.112 271.507L225.781 349.676C220.251 352.869 213.391 352.873 207.876 349.688C202.363 346.504 198.934 340.554 198.927 334.166V267.932C198.927 264.637 196.257 261.966 192.964 261.966C189.671 261.966 187.001 264.637 187.001 267.932L187 334.172C187.011 344.81 192.725 354.715 201.912 360.021C206.504 362.674 211.656 364 216.81 364C221.971 364 227.135 362.67 231.742 360.009L367.076 281.839C376.282 276.519 382 266.619 382 256C382 245.381 376.282 235.481 367.076 230.161Z" fill="black"/>
</svg>
